<svg width="110" height="111" viewBox="0 0 110 111" fill="none" xmlns="http://www.w3.org/2000/svg">
<circle cx="55" cy="55.5" r="55" fill="#008000" fill-opacity="0.1"/>
<path d="M71.0007 34.6904L68.4967 37.135L72.9676 41.7144L58.6676 41.543L58.6257 45.0427L72.9256 45.2142L68.3462 49.6851L70.7909 52.1891L79.6451 43.5446L71.0007 34.6904Z" fill="#F86F03"/>
<path d="M75.8724 66.2511L44.3747 65.8734L44.6265 44.875L53.3758 44.9799L53.4178 41.4801L37.6689 41.2913C36.741 41.2811 35.8469 41.6394 35.183 42.2877C34.519 42.936 34.1393 43.8212 34.1272 44.7491L33.8755 65.7476C33.8653 66.6755 34.2236 67.5695 34.8719 68.2335C35.5201 68.8975 36.4053 69.2772 37.3332 69.2893L75.8305 69.7508C76.7584 69.761 77.6525 69.4027 78.3165 68.7544C78.9804 68.1062 79.3601 67.2209 79.3722 66.2931L79.4981 55.7938L75.9983 55.7518L75.8724 66.2511ZM37.3752 65.7895L37.627 44.791L41.1267 44.833L40.875 65.8315L37.3752 65.7895Z" fill="#F86F03"/>
</svg>
