<svg width="446" height="490" viewBox="0 0 446 490" fill="none" xmlns="http://www.w3.org/2000/svg">
<path d="M7.06452 321.679C27.5207 397.588 73.7298 443.536 154.181 469.856C246.396 500.024 419.035 505.989 398.553 418.355C389.996 381.746 352.75 375.652 335.855 341.556C288.663 246.312 462.899 166.413 398.553 79.9872C364.681 34.4932 328.847 12.793 269.702 2.73624C158.088 -16.242 84.6481 66.4348 35.2043 159.949C4.76487 217.519 -9.66894 259.584 7.06452 321.679Z" fill="#FFA41B"/>
<path d="M362.707 139C370.207 139 376.307 132.9 376.307 125.4C376.307 117.9 370.207 111.8 362.707 111.8C360.107 111.8 357.707 112.5 355.607 113.8C354.507 108.8 349.907 105 344.607 105C342.007 105 339.607 105.9 337.607 107.4C337.707 106.6 337.807 105.8 337.807 105C337.807 93.7 328.707 84.6 317.407 84.6C307.207 84.6 298.707 92.1 297.207 101.9C294.807 99.6 291.507 98.2 287.907 98.2C280.407 98.2 274.307 104.3 274.307 111.8C274.307 113.4 274.607 114.9 275.107 116.4C274.807 116.4 274.607 116.4 274.307 116.4C268.007 116.4 263.007 121.5 263.007 127.7C263.007 133.9 268.107 139 274.307 139H362.707Z" fill="#FFF6F4" stroke="black" stroke-width="1.5" stroke-miterlimit="10" stroke-linecap="round" stroke-linejoin="round"/>
<path d="M101.207 88.9C94.4067 88.9 88.9067 83.4 88.9067 76.6C88.9067 69.8 94.4067 64.3 101.207 64.3C102.107 64.3 103.107 64.4 103.907 64.6C103.707 63.7 103.607 62.8 103.607 61.8C103.607 53.6 110.207 47 118.407 47C122.507 47 126.307 48.7 128.907 51.4C131.807 45.8 137.507 42 144.207 42C152.207 42 158.807 47.4 160.807 54.7C161.507 54.5 162.307 54.3 163.107 54.3C167.207 54.3 170.507 57.6 170.507 61.7C170.507 63.6 169.807 65.2 168.707 66.5C171.807 68.7 173.807 72.4 173.807 76.4C173.807 83.2 168.307 88.7 161.507 88.7H101.207V88.9Z" fill="#FFF6F4" stroke="black" stroke-width="1.5" stroke-miterlimit="10" stroke-linecap="round" stroke-linejoin="round"/>
<path d="M167.306 255.4C174.706 283.4 176.406 311.8 176.706 340.4C176.506 369.1 174.806 397.4 167.306 425.4C159.906 397.4 158.106 369 157.906 340.4C158.206 311.8 159.906 283.4 167.306 255.4Z" fill="#FFF6F4" stroke="black" stroke-width="1.5" stroke-miterlimit="10" stroke-linecap="round" stroke-linejoin="round"/>
<path d="M167.306 255.4V425.5" stroke="black" stroke-miterlimit="10" stroke-linecap="round" stroke-linejoin="round"/>
<path d="M123.307 261.2C137.707 286.4 146.707 313.3 154.407 340.9C161.607 368.6 167.307 396.5 167.407 425.5C153.007 400.4 143.907 373.4 136.307 345.8C129.007 318 123.407 290.2 123.307 261.2Z" fill="#FFF6F4" stroke="black" stroke-width="1.5" stroke-miterlimit="10" stroke-linecap="round" stroke-linejoin="round"/>
<path d="M123.307 261.2L167.307 425.5" stroke="black" stroke-miterlimit="10" stroke-linecap="round" stroke-linejoin="round"/>
<path d="M82.3066 278.2C102.707 298.8 118.407 322.5 132.907 347.2C147.107 372.1 159.707 397.5 167.307 425.5C146.907 404.9 131.207 381.3 116.707 356.5C102.507 331.6 89.9066 306.1 82.3066 278.2Z" fill="#FFF6F4" stroke="black" stroke-width="1.5" stroke-miterlimit="10" stroke-linecap="round" stroke-linejoin="round"/>
<path d="M82.3066 278.2L167.307 425.5" stroke="black" stroke-miterlimit="10" stroke-linecap="round" stroke-linejoin="round"/>
<path d="M47.0066 305.2C72.0066 319.8 93.3066 338.6 113.807 358.7C133.907 379.1 152.707 400.4 167.307 425.5C142.207 410.9 120.907 392.1 100.507 372C80.4066 351.5 61.6066 330.2 47.0066 305.2Z" fill="#FFF6F4" stroke="black" stroke-width="1.5" stroke-miterlimit="10" stroke-linecap="round" stroke-linejoin="round"/>
<path d="M47.0066 305.2L167.307 425.5" stroke="black" stroke-miterlimit="10" stroke-linecap="round" stroke-linejoin="round"/>
<path d="M20.0066 340.4C48.0066 348 73.4066 360.7 98.3066 374.8C123.007 389.3 146.707 405 167.307 425.4C139.307 417.8 113.907 405.1 89.0066 391C64.3066 376.5 40.6066 360.8 20.0066 340.4Z" fill="#FFF6F4" stroke="black" stroke-width="1.5" stroke-miterlimit="10" stroke-linecap="round" stroke-linejoin="round"/>
<path d="M20.0066 340.4L167.307 425.5" stroke="black" stroke-miterlimit="10" stroke-linecap="round" stroke-linejoin="round"/>
<path d="M211.307 261.2C211.207 290.2 205.507 318 198.307 345.8C190.707 373.4 181.707 400.4 167.207 425.5C167.307 396.5 172.907 368.7 180.207 340.9C187.907 313.3 196.907 286.4 211.307 261.2Z" fill="#FFF6F4" stroke="black" stroke-width="1.5" stroke-miterlimit="10" stroke-linecap="round" stroke-linejoin="round"/>
<path d="M211.307 261.2L167.307 425.5" stroke="black" stroke-miterlimit="10" stroke-linecap="round" stroke-linejoin="round"/>
<path d="M252.307 278.2C244.707 306.2 232.007 331.6 217.907 356.5C203.407 381.2 187.707 404.9 167.307 425.5C174.907 397.5 187.607 372.1 201.707 347.2C216.207 322.4 231.907 298.8 252.307 278.2Z" fill="#FFF6F4" stroke="black" stroke-width="1.5" stroke-miterlimit="10" stroke-linecap="round" stroke-linejoin="round"/>
<path d="M252.307 278.2L167.307 425.5" stroke="black" stroke-miterlimit="10" stroke-linecap="round" stroke-linejoin="round"/>
<path d="M287.607 305.2C273.007 330.2 254.207 351.5 234.107 372C213.707 392.1 192.407 410.9 167.307 425.5C181.907 400.4 200.707 379.1 220.807 358.7C241.207 338.6 262.507 319.8 287.607 305.2Z" fill="#FFF6F4" stroke="black" stroke-width="1.5" stroke-miterlimit="10" stroke-linecap="round" stroke-linejoin="round"/>
<path d="M287.607 305.2L167.307 425.5" stroke="black" stroke-miterlimit="10" stroke-linecap="round" stroke-linejoin="round"/>
<path d="M314.607 340.4C294.007 360.8 270.307 376.5 245.607 391C220.707 405.2 195.307 417.8 167.307 425.4C187.907 405 211.507 389.3 236.307 374.8C261.207 360.7 286.607 348.1 314.607 340.4Z" fill="#FFF6F4" stroke="black" stroke-width="1.5" stroke-miterlimit="10" stroke-linecap="round" stroke-linejoin="round"/>
<path d="M314.607 340.4L167.307 425.5" stroke="black" stroke-miterlimit="10" stroke-linecap="round" stroke-linejoin="round"/>
<path d="M317.907 329.8C307.107 360.1 307.807 395.1 317.907 425.5C317.507 393.9 316.707 361.4 317.907 329.8Z" fill="#FFF6F4" stroke="black" stroke-width="1.5" stroke-miterlimit="10" stroke-linecap="round" stroke-linejoin="round"/>
<path d="M249.207 319.2C270.007 347.2 285.607 378.6 297.307 411.3C299.107 416 300.507 420.8 302.307 425.5C297.907 386.3 279.107 345.4 249.207 319.2Z" fill="#FFF6F4" stroke="black" stroke-width="1.5" stroke-miterlimit="10" stroke-linecap="round" stroke-linejoin="round"/>
<path d="M322.307 345.7C305.807 367.9 298.407 398.1 302.407 425.4C306.707 398.2 313.007 371.8 322.307 345.7Z" fill="#FFF6F4" stroke="black" stroke-width="1.5" stroke-miterlimit="10" stroke-linecap="round" stroke-linejoin="round"/>
<path d="M288.107 328.5C292.907 360.8 292.707 393.1 289.107 425.5C300.807 395 300.807 358.6 288.107 328.5Z" fill="#FFF6F4" stroke="black" stroke-width="1.5" stroke-miterlimit="10" stroke-linecap="round" stroke-linejoin="round"/>
<path d="M396.907 329.9C379.407 355.3 368.107 384 358.107 413C356.707 417.2 355.407 421.4 353.707 425.6C356.707 391.6 370.807 352.7 396.907 329.9Z" fill="#FFF6F4" stroke="black" stroke-width="1.5" stroke-miterlimit="10" stroke-linecap="round" stroke-linejoin="round"/>
<path d="M407.007 345.7C392.507 367.4 381.307 390.9 371.407 415C369.907 418.4 368.607 422 367.007 425.4C370.207 396.2 384.107 364.9 407.007 345.7Z" fill="#FFF6F4" stroke="black" stroke-width="1.5" stroke-miterlimit="10" stroke-linecap="round" stroke-linejoin="round"/>
<path d="M380.307 345.7C389.307 370.9 388.807 400.1 380.307 425.4C380.607 399.2 381.307 372 380.307 345.7Z" fill="#FFF6F4" stroke="black" stroke-width="1.5" stroke-miterlimit="10" stroke-linecap="round" stroke-linejoin="round"/>
<path d="M413.107 358.2C414.907 381.8 407.707 406.3 393.807 425.4C400.207 403.3 407.007 380.5 413.107 358.2Z" fill="#FFF6F4" stroke="black" stroke-width="1.5" stroke-miterlimit="10" stroke-linecap="round" stroke-linejoin="round"/>
<path d="M407.907 319.2C402.707 354.6 402.907 390 406.807 425.5C394.107 392.2 394.007 352.1 407.907 319.2Z" fill="#FFF6F4" stroke="black" stroke-width="1.5" stroke-miterlimit="10" stroke-linecap="round" stroke-linejoin="round"/>
<path d="M423.807 375C425.107 384.2 423.407 393.4 420.507 402.1C417.507 410.8 413.107 419 406.507 425.5C407.707 421 409.307 416.9 410.707 412.7C415.007 400.3 419.107 387.4 423.807 375Z" fill="#FFF6F4" stroke="black" stroke-width="1.5" stroke-miterlimit="10" stroke-linecap="round" stroke-linejoin="round"/>
<path d="M51.7068 355.9C45.8068 378.8 48.6068 404.2 59.1068 425.5C56.6068 402.5 53.9068 378.9 51.7068 355.9Z" fill="#FFF6F4" stroke="black" stroke-width="1.5" stroke-miterlimit="10" stroke-linecap="round" stroke-linejoin="round"/>
<path d="M102.507 361.5C87.5068 379.8 79.3068 404 79.8068 427.7C87.2068 405.8 94.7068 383.3 102.507 361.5Z" fill="#FFF6F4" stroke="black" stroke-width="1.5" stroke-miterlimit="10" stroke-linecap="round" stroke-linejoin="round"/>
<path d="M57.3066 319.2C62.5066 354.6 62.3066 390 58.4066 425.5C71.1066 392.2 71.2066 352.1 57.3066 319.2Z" fill="#FFF6F4" stroke="black" stroke-width="1.5" stroke-miterlimit="10" stroke-linecap="round" stroke-linejoin="round"/>
<path d="M41.4067 375C40.1067 384.2 41.8067 393.4 44.7067 402.1C47.7067 410.8 52.1067 419 58.7067 425.5C57.5067 421 55.9067 416.9 54.5067 412.7C50.2067 400.3 46.1067 387.4 41.4067 375Z" fill="#FFF6F4" stroke="black" stroke-width="1.5" stroke-miterlimit="10" stroke-linecap="round" stroke-linejoin="round"/>
<path d="M126.307 255.4H105.007V425.5H126.307V255.4Z" fill="#FFF6F4" stroke="black" stroke-width="1.5" stroke-miterlimit="10" stroke-linecap="round" stroke-linejoin="round"/>
<path d="M360.207 255.4H338.906V425.5H360.207V255.4Z" fill="#FFF6F4" stroke="black" stroke-width="1.5" stroke-miterlimit="10" stroke-linecap="round" stroke-linejoin="round"/>
<path d="M20.0393 276.667V287.267H445.239V276.667H20.0393Z" fill="#FFF6F4" stroke="black" stroke-width="1.5" stroke-miterlimit="10" stroke-linecap="round" stroke-linejoin="round"/>
<path d="M20.0198 319.187V329.787H445.22V319.187H20.0198Z" fill="#FFF6F4" stroke="black" stroke-width="1.5" stroke-miterlimit="10" stroke-linecap="round" stroke-linejoin="round"/>
<path d="M20 361.707V372.307H445.2V361.707H20Z" fill="#FFF6F4" stroke="black" stroke-width="1.5" stroke-miterlimit="10" stroke-linecap="round" stroke-linejoin="round"/>
<path d="M118.506 282C118.506 283.6 117.206 284.8 115.706 284.8C114.106 284.8 112.906 283.5 112.906 282C112.906 280.4 114.206 279.2 115.706 279.2C117.206 279.1 118.506 280.4 118.506 282Z" fill="#FFF6F4" stroke="black" stroke-width="1.5" stroke-miterlimit="10" stroke-linecap="round" stroke-linejoin="round"/>
<path d="M118.506 324.5C118.506 326.1 117.206 327.3 115.706 327.3C114.106 327.3 112.906 326 112.906 324.5C112.906 322.9 114.206 321.7 115.706 321.7C117.206 321.7 118.506 322.9 118.506 324.5Z" fill="#FFF6F4" stroke="black" stroke-width="1.5" stroke-miterlimit="10" stroke-linecap="round" stroke-linejoin="round"/>
<path d="M118.506 367C118.506 368.6 117.206 369.8 115.706 369.8C114.106 369.8 112.906 368.5 112.906 367C112.906 365.4 114.206 364.2 115.706 364.2C117.206 364.2 118.506 365.4 118.506 367Z" fill="#FFF6F4" stroke="black" stroke-width="1.5" stroke-miterlimit="10" stroke-linecap="round" stroke-linejoin="round"/>
<path d="M352.407 282C352.407 283.6 351.107 284.8 349.607 284.8C348.007 284.8 346.807 283.5 346.807 282C346.807 280.4 348.107 279.2 349.607 279.2C351.107 279.1 352.407 280.4 352.407 282Z" fill="#FFF6F4" stroke="black" stroke-width="1.5" stroke-miterlimit="10" stroke-linecap="round" stroke-linejoin="round"/>
<path d="M352.407 324.5C352.407 326.1 351.107 327.3 349.607 327.3C348.007 327.3 346.807 326 346.807 324.5C346.807 322.9 348.107 321.7 349.607 321.7C351.107 321.7 352.407 322.9 352.407 324.5Z" fill="#FFF6F4" stroke="black" stroke-width="1.5" stroke-miterlimit="10" stroke-linecap="round" stroke-linejoin="round"/>
<path d="M352.407 367C352.407 368.6 351.107 369.8 349.607 369.8C348.007 369.8 346.807 368.5 346.807 367C346.807 365.4 348.107 364.2 349.607 364.2C351.107 364.2 352.407 365.4 352.407 367Z" fill="#FFF6F4" stroke="black" stroke-width="1.5" stroke-miterlimit="10" stroke-linecap="round" stroke-linejoin="round"/>
<path d="M445.207 452V425.4C440.807 425.4 440.707 424.9 436.307 424.9C431.907 424.9 431.907 425.4 427.507 425.4C429.307 420.5 429.407 415.2 427.507 410.6C425.407 412.4 423.607 414.4 422.107 416.4C424.707 411.7 426.907 407 428.507 401.7C421.107 404.8 414.707 410.4 410.607 417.1C409.607 411.7 407.307 406.5 403.607 402.3C401.007 408.7 400.607 414.8 401.007 421.3C401.007 421.6 401.107 422 401.107 422.3C400.307 417.9 399.207 413.5 397.307 408.9C394.207 411.6 392.307 415.2 391.607 419C390.907 410.6 387.107 402.2 380.907 396.3C380.107 402.4 380.307 408.1 380.907 414C379.207 415.7 377.707 417.5 376.507 419.4C377.707 416.4 378.807 413.3 379.807 410.1C374.007 411.4 369.607 414.7 366.507 418.8C365.407 412.2 362.507 405.8 357.807 400.9C356.207 405.8 355.907 410.6 356.107 415.3C355.107 413.1 353.907 411 352.507 408.8C351.107 410.5 350.207 412.4 349.607 414.3C348.007 408.4 344.707 402.8 339.907 398.7C339.007 406 339.607 412.5 340.507 419.5C340.507 419.8 340.607 420.1 340.607 420.4C339.807 418.5 338.507 416.6 336.807 415.1C334.207 418.4 332.607 421.9 332.007 425.4C332.007 425.4 330.507 418.1 332.007 411C327.507 413.4 324.207 418.5 323.407 420.4C323.407 420.1 323.507 419.8 323.507 419.5C324.307 412.5 325.007 406 324.107 398.7C319.307 402.8 316.007 408.3 314.407 414.3C313.807 412.4 312.807 410.5 311.507 408.8C310.107 411 308.907 413.1 307.907 415.3C308.107 410.5 307.807 405.8 306.207 400.9C301.507 405.9 298.607 412.2 297.507 418.8C294.407 414.6 290.007 411.3 284.207 410.1C285.207 413.3 286.307 416.4 287.507 419.4C286.307 417.6 284.807 415.8 283.107 414C283.707 408.2 284.007 402.5 283.107 396.3C276.907 402.2 273.107 410.5 272.407 419C271.707 415.2 269.807 411.6 266.707 408.9C264.807 413.5 263.607 417.9 262.907 422.3C262.907 422 263.007 421.6 263.007 421.3C263.307 414.8 262.907 408.8 260.407 402.3C256.707 406.5 254.407 411.7 253.407 417.1C253.407 408.4 251.107 399.6 246.007 396.4C246.107 403.2 244.407 411 241.807 416.5C240.207 414.5 238.407 412.5 236.407 410.7C234.207 420 229.307 425.5 229.307 425.5C231.107 420.6 231.207 415.3 229.307 410.7C227.207 412.5 225.407 414.5 223.907 416.5C226.507 411.8 228.707 407.1 230.307 401.8C222.907 404.9 216.507 410.5 212.407 417.2C211.407 411.8 209.107 406.6 205.407 402.4C202.807 408.8 202.407 414.9 202.807 421.4C202.807 421.7 202.907 422.1 202.907 422.4C202.107 418 201.007 413.6 199.107 409C196.007 411.7 194.107 415.3 193.407 419.1C192.707 410.7 188.907 402.3 182.707 396.4C181.907 402.5 182.107 408.2 182.707 414.1C181.007 415.8 179.507 417.6 178.307 419.5C179.507 416.5 180.607 413.4 181.607 410.2C175.807 411.5 171.407 414.8 168.307 418.9C167.207 412.3 164.307 405.9 159.607 401C158.007 405.9 157.707 410.7 157.907 415.4C156.907 413.2 155.707 411.1 154.307 408.9C152.907 410.6 152.007 412.5 151.407 414.4C149.807 408.5 146.507 402.9 141.707 398.8C140.807 406.1 141.407 412.6 142.307 419.6C142.307 419.9 142.407 420.2 142.407 420.5C141.607 418.6 138.307 413.5 133.807 411.1C135.307 418.3 133.807 425.5 133.807 425.5C133.107 421.9 131.507 418.5 129.007 415.2C127.307 416.8 126.007 418.6 125.207 420.5C125.207 420.2 125.307 419.9 125.307 419.6C126.107 412.6 126.807 406.1 125.907 398.8C121.107 402.9 117.807 408.4 116.207 414.4C115.607 412.5 114.607 410.6 113.307 408.9C111.907 411.1 110.707 413.2 109.707 415.4C109.907 410.6 109.607 405.9 108.007 401C103.307 406 100.407 412.3 99.3067 418.9C96.2067 414.7 91.8067 411.4 86.0067 410.2C87.0067 413.4 88.1067 416.5 89.3067 419.5C88.1067 417.7 86.6067 415.9 84.9067 414.1C85.5067 408.3 85.8067 402.6 84.9067 396.4C78.7067 402.3 74.9067 410.6 74.2067 419.1C73.5067 415.3 71.6067 411.7 68.5067 409C66.6067 413.6 65.4067 418 64.7067 422.4C64.7067 422.1 64.8067 421.7 64.8067 421.4C65.1067 414.9 64.7067 408.9 62.2067 402.4C58.5067 406.6 56.2067 411.8 55.2067 417.2C51.0067 410.6 44.7067 404.9 37.3067 401.8C38.9067 407.1 41.1067 411.8 43.7067 416.5C42.1067 414.5 40.3067 412.5 38.3067 410.7C36.4067 415.4 36.5067 420.7 38.3067 425.5C33.9067 425.5 33.9067 425 29.5067 425C25.1067 425 25.0067 425.5 20.6067 425.5V452.1H445.207V452Z" fill="#FFF6F4"/>
<path d="M445.207 425.4C440.807 425.4 440.707 424.9 436.307 424.9C431.907 424.9 431.907 425.4 427.507 425.4C429.307 420.5 429.407 415.2 427.507 410.6C425.407 412.4 423.607 414.4 422.107 416.4C424.707 411.7 426.907 407 428.507 401.7C421.107 404.8 414.707 410.4 410.607 417.1C409.607 411.7 407.307 406.5 403.607 402.3C401.007 408.7 400.607 414.8 401.007 421.3C401.007 421.6 401.107 422 401.107 422.3C400.307 417.9 399.207 413.5 397.307 408.9C394.207 411.6 392.307 415.2 391.607 419C390.907 410.6 387.107 402.2 380.907 396.3C380.107 402.4 380.307 408.1 380.907 414C379.207 415.7 377.707 417.5 376.507 419.4C377.707 416.4 378.807 413.3 379.807 410.1C374.007 411.4 369.607 414.7 366.507 418.8C365.407 412.2 362.507 405.8 357.807 400.9C356.207 405.8 355.907 410.6 356.107 415.3C355.107 413.1 353.907 411 352.507 408.8C351.107 410.5 350.207 412.4 349.607 414.3C348.007 408.4 344.707 402.8 339.907 398.7C339.007 406 339.607 412.5 340.507 419.5C340.507 419.8 340.607 420.1 340.607 420.4C339.807 418.5 338.507 416.6 336.807 415.1C334.207 418.4 332.607 421.9 332.007 425.4C332.007 425.4 330.507 418.1 332.007 411C327.507 413.4 324.207 418.5 323.407 420.4C323.407 420.1 323.507 419.8 323.507 419.5C324.307 412.5 325.007 406 324.107 398.7C319.307 402.8 316.007 408.3 314.407 414.3C313.807 412.4 312.807 410.5 311.507 408.8C310.107 411 308.907 413.1 307.907 415.3C308.107 410.5 307.807 405.8 306.207 400.9C301.507 405.9 298.607 412.2 297.507 418.8C294.407 414.6 290.007 411.3 284.207 410.1C285.207 413.3 286.307 416.4 287.507 419.4C286.307 417.6 284.807 415.8 283.107 414C283.707 408.2 284.007 402.5 283.107 396.3C276.907 402.2 273.107 410.5 272.407 419C271.707 415.2 269.807 411.6 266.707 408.9C264.807 413.5 263.607 417.9 262.907 422.3C262.907 422 263.007 421.6 263.007 421.3C263.307 414.8 262.907 408.8 260.407 402.3C256.707 406.5 254.407 411.7 253.407 417.1C253.407 408.4 251.107 399.6 246.007 396.4C246.107 403.2 244.407 411 241.807 416.5C240.207 414.5 238.407 412.5 236.407 410.7C234.207 420 229.307 425.5 229.307 425.5C231.107 420.6 231.207 415.3 229.307 410.7C227.207 412.5 225.407 414.5 223.907 416.5C226.507 411.8 228.707 407.1 230.307 401.8C222.907 404.9 216.507 410.5 212.407 417.2C211.407 411.8 209.107 406.6 205.407 402.4C202.807 408.8 202.407 414.9 202.807 421.4C202.807 421.7 202.907 422.1 202.907 422.4C202.107 418 201.007 413.6 199.107 409C196.007 411.7 194.107 415.3 193.407 419.1C192.707 410.7 188.907 402.3 182.707 396.4C181.907 402.5 182.107 408.2 182.707 414.1C181.007 415.8 179.507 417.6 178.307 419.5C179.507 416.5 180.607 413.4 181.607 410.2C175.807 411.5 171.407 414.8 168.307 418.9C167.207 412.3 164.307 405.9 159.607 401C158.007 405.9 157.707 410.7 157.907 415.4C156.907 413.2 155.707 411.1 154.307 408.9C152.907 410.6 152.007 412.5 151.407 414.4C149.807 408.5 146.507 402.9 141.707 398.8C140.807 406.1 141.407 412.6 142.307 419.6C142.307 419.9 142.407 420.2 142.407 420.5C141.607 418.6 138.307 413.5 133.807 411.1C135.307 418.3 133.807 425.5 133.807 425.5C133.107 421.9 131.507 418.5 129.007 415.2C127.307 416.8 126.007 418.6 125.207 420.5C125.207 420.2 125.307 419.9 125.307 419.6C126.107 412.6 126.807 406.1 125.907 398.8C121.107 402.9 117.807 408.4 116.207 414.4C115.607 412.5 114.607 410.6 113.307 408.9C111.907 411.1 110.707 413.2 109.707 415.4C109.907 410.6 109.607 405.9 108.007 401C103.307 406 100.407 412.3 99.3067 418.9C96.2067 414.7 91.8067 411.4 86.0067 410.2C87.0067 413.4 88.1067 416.5 89.3067 419.5C88.1067 417.7 86.6067 415.9 84.9067 414.1C85.5067 408.3 85.8067 402.6 84.9067 396.4C78.7067 402.3 74.9067 410.6 74.2067 419.1C73.5067 415.3 71.6067 411.7 68.5067 409C66.6067 413.6 65.4067 418 64.7067 422.4C64.7067 422.1 64.8067 421.7 64.8067 421.4C65.1067 414.9 64.7067 408.9 62.2067 402.4C58.5067 406.6 56.2067 411.8 55.2067 417.2C51.0067 410.6 44.7067 404.9 37.3067 401.8C38.9067 407.1 41.1067 411.8 43.7067 416.5C42.1067 414.5 40.3067 412.5 38.3067 410.7C36.4067 415.4 36.5067 420.7 38.3067 425.5C33.9067 425.5 33.9067 425 29.5067 425C25.1067 425 25.0067 425.5 20.6067 425.5" stroke="black" stroke-width="1.5" stroke-miterlimit="10" stroke-linecap="round" stroke-linejoin="round"/>
<path d="M400.107 263.7C399.307 261.5 397.207 264 392.907 265.3C403.407 256.6 400.007 237.3 394.807 237.3C394.807 228.3 389.307 222.1 386.107 222.1C381.807 222.1 382.307 244.9 362.407 249.7C356.607 245.1 349.607 241.7 342.007 239.6C324.507 234.9 310.907 238.5 281.307 238.5C270.707 236.2 256.407 232.7 247.207 232.7H247.007C247.607 227.9 246.307 223 243.507 218.9C241.007 215.3 237.607 210.6 233.407 205.4C232.407 200.4 230.007 193.1 230.007 193.1C229.807 190.8 229.507 188.6 229.207 186.5C243.407 179.7 247.207 163.5 247.207 163.5C247.207 163.5 231.907 162.8 219.407 159.1C215.907 154.9 211.107 150.2 205.607 147.2C205.307 145.8 203.807 143.8 200.807 142.7V142.8C186.607 92.6001 137.607 93.9001 117.707 96.6001C102.207 94.2001 88.0066 96.4001 82.0066 97.5001C81.3066 97.6001 81.2066 98.7001 81.9066 98.9001C92.3066 101.8 127.407 114.1 136.407 152.1C135.407 153.1 134.807 154 134.407 154.9C129.207 153.2 121.507 153.9 110.007 158.1C97.1066 162.8 79.0066 163.6 79.0066 163.6C79.0066 163.6 86.0066 194 117.607 189C114.807 194.9 114.307 200.8 118.907 199C116.007 208.9 118.207 215.2 120.907 213.2C125.007 229.3 135.107 249.4 149.807 268.4C151.407 272.5 152.707 276.4 153.807 280C153.807 284.7 149.707 294.4 151.607 295.3C153.907 296.5 156.907 291 156.907 291C154.907 300.9 154.807 305.1 156.507 306C158.207 306.9 160.207 303.8 160.207 303.8C157.307 316 164.207 316 164.207 316C167.007 323.6 169.907 334.6 174.207 347.3C174.607 351 175.407 353.8 176.607 354.1C179.407 361.7 182.807 369.6 187.007 377.7C195.607 421.9 187.007 450 194.007 463.9H219.407C219.407 463.9 219.807 457.9 220.707 447.9L220.807 448L245.307 441.4C245.307 441.4 244.307 424.2 237.707 398.9C244.807 384.5 252.107 371.3 255.107 366.1C255.807 364.9 256.407 363.6 256.807 362.2C257.707 362.2 258.507 362.2 259.407 362.1C259.907 362.3 260.307 362.5 260.807 362.3C261.007 362.2 261.107 362.1 261.307 362C267.607 361.9 274.107 361.7 280.807 361.7C285.007 361.7 289.107 361.5 293.007 361.2C296.807 369 301.807 376.1 307.407 382.5C316.907 393.4 312.907 404 304.407 423.1C296.507 440.8 290.507 454.2 290.507 463.8H315.907C315.907 463.8 323.007 435.8 342.907 407.5C344.907 404.6 345.907 401.1 345.607 397.5C345.407 395.3 345.307 392.5 345.207 389.4C346.207 389.8 347.107 390 347.707 389.8C354.907 400 356.907 410.6 355.907 423C354.507 440.7 353.107 454.1 356.507 463.7H381.907C381.907 463.7 379.107 435.7 388.907 407.4C390.007 404.3 390.007 401 389.007 397.8C388.307 395.5 387.307 392.6 386.207 389.3C386.207 389.3 389.207 390.5 390.507 389.3C392.207 387.8 389.907 382.8 381.207 375.5C383.507 376.3 387.207 375.4 387.207 373.5C387.207 371.6 378.907 369.3 377.007 361.5C373.607 338.8 382.807 307.1 378.607 280.8C378.607 279.4 378.507 278.1 378.407 276.7C392.107 280.5 402.307 269.6 400.107 263.7Z" fill="#FFF6F4"/>
<path d="M226.106 197.2C226.106 193.7 227.506 190.9 229.406 189.9" stroke="black" stroke-width="1.5" stroke-miterlimit="10" stroke-linecap="round" stroke-linejoin="round"/>
<path d="M177.162 207.688C182.123 206.886 185.495 202.213 184.692 197.252C183.89 192.29 179.217 188.919 174.255 189.721C169.294 190.524 165.923 195.197 166.725 200.158C167.528 205.12 172.201 208.491 177.162 207.688Z" stroke="black" stroke-width="1.5" stroke-miterlimit="10" stroke-linecap="round" stroke-linejoin="round"/>
<path d="M179.307 188.5C179.607 192.1 181.307 195.1 185.507 195.1C189.707 195.1 190.807 192.1 190.507 188.5C190.207 184.9 188.507 181.9 184.307 181.9C180.207 181.9 179.007 184.9 179.307 188.5Z" fill="black"/>
<path d="M181.007 185.2C181.107 186.2 182.007 187 183.007 187C184.007 187 184.807 186.2 184.707 185.2C184.607 184.2 183.707 183.4 182.707 183.4C181.607 183.4 180.907 184.2 181.007 185.2Z" fill="#FFF6F4"/>
<path d="M221.007 188.5C221.307 192.1 222.507 195.1 225.107 195.1C227.707 195.1 228.407 192.1 228.007 188.5C227.707 184.9 226.507 181.9 223.907 181.9C221.307 181.9 220.607 184.9 221.007 188.5Z" fill="black"/>
<path d="M221.907 185.2C222.007 186.2 222.607 187 223.207 187C223.807 187 224.307 186.2 224.207 185.2C224.107 184.2 223.507 183.4 222.907 183.4C222.207 183.4 221.807 184.2 221.907 185.2Z" fill="#FFF6F4"/>
<path d="M211.607 253.4C217.907 254.9 224.507 254.6 230.607 252.5C231.707 252.1 232.807 251.7 233.707 251.3C238.507 249.4 242.507 245.7 244.607 240.9C245.407 239.1 246.007 237.4 246.507 235.7C248.107 230 247.007 223.8 243.607 218.9C238.407 211.4 229.007 198.9 217.207 187.8C216.107 186.7 215.107 185.5 214.407 184L213.407 181.9" stroke="black" stroke-width="1.5" stroke-miterlimit="10" stroke-linecap="round" stroke-linejoin="round"/>
<path d="M143.707 233.4C151.307 242.6 169.907 244.5 179.207 243C179.207 243 189.507 247.1 201.507 250.7" stroke="black" stroke-width="1.5" stroke-miterlimit="10" stroke-linecap="round" stroke-linejoin="round"/>
<path d="M233.406 205.6C232.406 200.5 230.006 193.3 230.006 193.3C229.306 187.1 228.406 181.3 227.606 176.9C226.406 170.4 223.606 164.4 219.306 159.3C215.806 155.1 211.006 150.4 205.506 147.4C205.206 146 203.706 144 200.706 142.9C200.806 143.3 201.406 145.5 201.406 145.5C190.506 141.7 181.506 145.2 181.506 145.2C179.106 144.4 176.606 143.8 173.906 143.5C173.106 141.4 171.406 140.8 169.906 140.8C170.206 141.8 170.506 142.8 170.506 142.8C156.106 142.8 147.806 145.9 141.306 151.3C139.806 152.5 138.406 153.7 137.106 154.9C136.806 153.7 136.506 152.1 136.506 152.1C135.506 153.1 134.806 154 134.406 154.9" stroke="black" stroke-width="1.5" stroke-miterlimit="10" stroke-linecap="round" stroke-linejoin="round"/>
<path d="M170.007 140.9C153.407 87.2 95.8066 94.9 82.0066 97.6C81.3066 97.7 81.2066 98.8 81.9066 99C92.3066 101.9 127.407 114.2 136.507 152.2" stroke="black" stroke-width="1.5" stroke-miterlimit="10" stroke-linecap="round" stroke-linejoin="round"/>
<path d="M200.707 142.8C186.507 92.6 137.607 93.9 117.707 96.6" stroke="black" stroke-width="1.5" stroke-miterlimit="10" stroke-linecap="round" stroke-linejoin="round"/>
<path d="M222.107 232.9C228.307 231.5 231.307 239.1 241.107 236.3C244.907 235.2 244.107 230.9 246.007 230" stroke="black" stroke-width="1.5" stroke-miterlimit="10" stroke-linecap="round" stroke-linejoin="round"/>
<path d="M209.807 240.4C209.807 240.4 219.107 246.4 226.107 247.4C231.507 248.2 234.307 245.7 239.107 244.5C240.007 244.3 240.807 244.4 241.507 244.8" stroke="black" stroke-width="1.5" stroke-miterlimit="10" stroke-linecap="round" stroke-linejoin="round"/>
<path d="M241.207 236.3C241.007 240.7 239.207 244.6 239.207 244.6" stroke="black" stroke-width="1.5" stroke-miterlimit="10" stroke-linecap="round" stroke-linejoin="round"/>
<path d="M130.407 183.9C126.907 191.3 119.307 188.7 119.307 188.7C86.3066 195.1 79.0066 163.6 79.0066 163.6C79.0066 163.6 97.2066 162.8 110.007 158.1C126.207 152.2 134.807 153.2 139.707 158.1C140.207 152.1 144.407 152.1 145.207 157.6" stroke="black" stroke-width="1.5" stroke-miterlimit="10" stroke-linecap="round" stroke-linejoin="round"/>
<path d="M229.207 186.6C243.407 179.8 247.107 163.6 247.107 163.6C247.107 163.6 231.807 162.9 219.307 159.2" stroke="black" stroke-width="1.5" stroke-miterlimit="10" stroke-linecap="round" stroke-linejoin="round"/>
<path d="M247.107 232.7C260.707 232.7 285.207 240.3 292.807 240.3" stroke="black" stroke-width="1.5" stroke-miterlimit="10" stroke-linecap="round" stroke-linejoin="round"/>
<path d="M292.107 453.9C310.107 453.9 315.807 464.1 315.807 464.1" stroke="black" stroke-width="1.5" stroke-miterlimit="10" stroke-linecap="round" stroke-linejoin="round"/>
<path d="M354.507 453.9C372.507 453.9 381.807 464.1 381.807 464.1" stroke="black" stroke-width="1.5" stroke-miterlimit="10" stroke-linecap="round" stroke-linejoin="round"/>
<path d="M191.406 453.9C209.406 453.9 219.406 464.1 219.406 464.1" stroke="black" stroke-width="1.5" stroke-miterlimit="10" stroke-linecap="round" stroke-linejoin="round"/>
<path d="M215.607 439.1C232.907 434.5 245.307 441.7 245.307 441.7" stroke="black" stroke-width="1.5" stroke-miterlimit="10" stroke-linecap="round" stroke-linejoin="round"/>
<path d="M79.0066 163.6C85.3066 163.6 91.4066 166.6 99.0066 170.9C106.607 175.2 121.907 176.1 128.607 170.9C128.607 170.9 130.807 174 134.407 174" stroke="black" stroke-miterlimit="10" stroke-linecap="round" stroke-linejoin="round"/>
<path d="M247.107 163.6C240.807 163.6 234.707 166.6 227.107 170.9C226.807 171.1 226.507 171.3 226.107 171.4" stroke="black" stroke-miterlimit="10" stroke-linecap="round" stroke-linejoin="round"/>
<path d="M291.406 456.5C291.406 456.5 294.807 459.8 295.507 464.1" stroke="black" stroke-miterlimit="10" stroke-linecap="round" stroke-linejoin="round"/>
<path d="M354.707 456.5C354.707 456.5 359.307 459.8 361.507 464.1" stroke="black" stroke-miterlimit="10" stroke-linecap="round" stroke-linejoin="round"/>
<path d="M191.707 456.5C191.707 456.5 196.907 459.8 199.107 464.1" stroke="black" stroke-miterlimit="10" stroke-linecap="round" stroke-linejoin="round"/>
<path d="M216.607 441.5C216.607 441.5 222.407 443.4 225.707 447" stroke="black" stroke-miterlimit="10" stroke-linecap="round" stroke-linejoin="round"/>
<path d="M208.307 399.8C209.507 403.2 209.807 405.6 209.807 405.6" stroke="black" stroke-miterlimit="10" stroke-linecap="round" stroke-linejoin="round"/>
<path d="M211.107 401.8C211.107 401.8 212.307 404.6 212.607 406.6" stroke="black" stroke-miterlimit="10" stroke-linecap="round" stroke-linejoin="round"/>
<path d="M212.107 399.6C212.107 399.6 213.407 401.5 213.907 402.7" stroke="black" stroke-miterlimit="10" stroke-linecap="round" stroke-linejoin="round"/>
<path d="M194.607 415.6C194.607 415.6 194.807 418.7 194.607 420.7" stroke="black" stroke-miterlimit="10" stroke-linecap="round" stroke-linejoin="round"/>
<path d="M195.906 412.9C195.906 412.9 196.606 416.1 196.606 417.5" stroke="black" stroke-miterlimit="10" stroke-linecap="round" stroke-linejoin="round"/>
<path d="M296.107 359.2C296.107 359.2 297.207 362.8 299.707 365.7" stroke="black" stroke-miterlimit="10" stroke-linecap="round" stroke-linejoin="round"/>
<path d="M299.807 362.4C299.807 362.4 301.307 365.1 303.307 366.1" stroke="black" stroke-miterlimit="10" stroke-linecap="round" stroke-linejoin="round"/>
<path d="M301.507 354.2C301.507 354.2 302.007 356.8 303.707 358.4" stroke="black" stroke-miterlimit="10" stroke-linecap="round" stroke-linejoin="round"/>
<path d="M339.807 406.9C339.807 406.9 337.907 409.3 336.807 411.3" stroke="black" stroke-miterlimit="10" stroke-linecap="round" stroke-linejoin="round"/>
<path d="M339.307 404C339.307 404 338.107 405.5 337.207 406.9" stroke="black" stroke-miterlimit="10" stroke-linecap="round" stroke-linejoin="round"/>
<path d="M386.207 406.6C386.207 406.6 385.007 409.3 384.307 411.6" stroke="black" stroke-miterlimit="10" stroke-linecap="round" stroke-linejoin="round"/>
<path d="M385.107 403.9C385.107 403.9 384.307 405.6 383.807 407.2" stroke="black" stroke-miterlimit="10" stroke-linecap="round" stroke-linejoin="round"/>
<path d="M373.707 262.8C373.707 262.8 378.307 262.2 382.607 259.2" stroke="black" stroke-miterlimit="10" stroke-linecap="round" stroke-linejoin="round"/>
<path d="M379.807 263.5C379.807 263.5 386.307 262.5 389.107 258.2" stroke="black" stroke-miterlimit="10" stroke-linecap="round" stroke-linejoin="round"/>
<path d="M383.307 235C383.307 235 382.007 238 380.207 240.5" stroke="black" stroke-miterlimit="10" stroke-linecap="round" stroke-linejoin="round"/>
<path d="M385.906 233.3C385.906 233.3 385.306 235.6 384.406 237.2" stroke="black" stroke-miterlimit="10" stroke-linecap="round" stroke-linejoin="round"/>
<path d="M281.307 243.5C281.307 243.5 286.407 244.7 289.307 245" stroke="black" stroke-miterlimit="10" stroke-linecap="round" stroke-linejoin="round"/>
<path d="M285.807 246.6C285.807 246.6 288.707 247.1 291.707 247.1" stroke="black" stroke-miterlimit="10" stroke-linecap="round" stroke-linejoin="round"/>
<path d="M162.007 273.3C162.007 273.3 163.507 275.6 164.507 276.6" stroke="black" stroke-miterlimit="10" stroke-linecap="round" stroke-linejoin="round"/>
<path d="M162.007 269.3C162.007 269.3 163.707 272.1 164.507 272.9" stroke="black" stroke-miterlimit="10" stroke-linecap="round" stroke-linejoin="round"/>
<path d="M108.107 162.1C108.107 162.1 110.907 161.6 112.907 160.4" stroke="black" stroke-miterlimit="10" stroke-linecap="round" stroke-linejoin="round"/>
<path d="M107.107 164C107.107 164 108.807 163.7 110.507 163" stroke="black" stroke-miterlimit="10" stroke-linecap="round" stroke-linejoin="round"/>
<path d="M223.807 163.1C223.807 163.1 225.107 163.5 226.007 163.6" stroke="black" stroke-miterlimit="10" stroke-linecap="round" stroke-linejoin="round"/>
<path d="M128.507 124.4C128.507 124.4 129.907 125.9 130.807 127.8" stroke="black" stroke-miterlimit="10" stroke-linecap="round" stroke-linejoin="round"/>
<path d="M131.007 124.7C131.007 124.7 132.407 126.5 133.707 128.8" stroke="black" stroke-miterlimit="10" stroke-linecap="round" stroke-linejoin="round"/>
<path d="M129.406 119.6C129.406 119.6 131.606 121.6 133.306 124.4" stroke="black" stroke-miterlimit="10" stroke-linecap="round" stroke-linejoin="round"/>
<path d="M188.307 131.9C188.307 131.9 189.307 133.7 189.807 135.8" stroke="black" stroke-miterlimit="10" stroke-linecap="round" stroke-linejoin="round"/>
<path d="M190.707 132.8C190.707 132.8 191.607 134.9 192.407 137.4" stroke="black" stroke-miterlimit="10" stroke-linecap="round" stroke-linejoin="round"/>
<path d="M190.307 127.4C190.307 127.4 192.007 129.9 193.007 133" stroke="black" stroke-miterlimit="10" stroke-linecap="round" stroke-linejoin="round"/>
<path d="M161.307 128.7C161.307 128.7 162.607 130.5 162.907 132" stroke="black" stroke-miterlimit="10" stroke-linecap="round" stroke-linejoin="round"/>
<path d="M158.607 127.4C158.607 127.4 159.707 128.7 160.307 130.3" stroke="black" stroke-miterlimit="10" stroke-linecap="round" stroke-linejoin="round"/>
<path d="M208.707 191.6C208.707 191.6 210.907 193.5 212.107 195.2" stroke="black" stroke-miterlimit="10" stroke-linecap="round" stroke-linejoin="round"/>
<path d="M211.607 190.2C211.607 190.2 213.807 192.1 215.007 193.8" stroke="black" stroke-miterlimit="10" stroke-linecap="round" stroke-linejoin="round"/>
<path d="M214.906 190.2C214.906 190.2 217.106 192.1 218.306 193.8" stroke="black" stroke-miterlimit="10" stroke-linecap="round" stroke-linejoin="round"/>
<path d="M198.007 260C197.707 263.3 198.707 265.3 198.707 265.3" stroke="black" stroke-miterlimit="10" stroke-linecap="round" stroke-linejoin="round"/>
<path d="M199.907 257.6C199.907 257.6 199.507 259.3 199.607 261.2" stroke="black" stroke-miterlimit="10" stroke-linecap="round" stroke-linejoin="round"/>
<path d="M362.307 249.6C382.207 244.8 381.807 222 386.007 222C389.207 222 394.707 228.2 394.707 237.2" stroke="black" stroke-width="1.5" stroke-miterlimit="10" stroke-linecap="round" stroke-linejoin="round"/>
<path d="M386.107 250.3C393.907 243.6 391.607 237.3 394.707 237.3C399.907 237.3 403.407 256.6 392.807 265.3C397.107 264 399.207 261.5 400.007 263.7C402.207 269.6 392.007 280.5 378.207 277.1" stroke="black" stroke-width="1.5" stroke-miterlimit="10" stroke-linecap="round" stroke-linejoin="round"/>
<path d="M347.807 390.3C355.007 400.5 356.907 411 355.907 423.4C354.607 441.1 353.107 454.5 356.507 464.1H381.907C381.907 464.1 379.107 436.1 388.907 407.8C390.007 404.7 390.007 401.4 389.007 398.2C388.307 395.9 387.307 393 386.207 389.7C386.207 389.7 389.207 390.9 390.507 389.8C392.207 388.3 389.907 383.3 381.207 376C383.507 376.8 387.207 375.9 387.207 374C387.207 372.1 378.807 369.8 377.007 361.9C373.607 339.2 382.807 307.5 378.707 281.3" stroke="black" stroke-width="1.5" stroke-miterlimit="10" stroke-linecap="round" stroke-linejoin="round"/>
<path d="M368.007 255C361.407 247.7 352.207 242.4 341.907 239.6C324.407 234.9 310.807 238.5 281.207 238.5" stroke="black" stroke-width="1.5" stroke-miterlimit="10" stroke-linecap="round" stroke-linejoin="round"/>
<path d="M376.707 294.4C377.907 289.6 378.607 285.1 378.607 281.2C378.607 273 376.007 265.6 371.507 259.3" stroke="black" stroke-width="1.5" stroke-miterlimit="10" stroke-linecap="round" stroke-linejoin="round"/>
<path d="M291.407 301.8C282.507 309.5 278.807 319.2 280.507 321.5C281.907 323.4 286.007 321.5 286.007 321.5C280.607 327.9 279.207 336.8 280.707 338.9C282.207 341 285.807 337.6 285.807 337.6C285.807 337.6 281.507 353.2 289.407 353.2C293.307 364.3 299.807 374.2 307.307 382.9C316.807 393.8 312.807 404.4 304.307 423.5C296.407 441.2 290.407 454.6 290.407 464.2H315.807C315.807 464.2 322.907 436.2 342.807 407.9C344.807 405 345.807 401.5 345.507 397.9C345.307 395.7 345.207 393 345.107 389.9C349.807 391.9 351.007 387.6 345.507 377.7C345.507 377.7 349.107 382.5 351.807 380.1C353.507 378.5 348.807 373 349.407 361.9C355.407 346.7 367.907 322.8 374.407 302.4" stroke="black" stroke-width="1.5" stroke-miterlimit="10" stroke-linecap="round" stroke-linejoin="round"/>
<path d="M198.007 321.5C195.707 330.5 195.407 346.2 202.807 338.1C201.507 344.6 202.107 349.5 203.807 350.2C205.507 350.9 206.807 349.3 206.807 349.3C208.707 354.1 210.907 359 213.407 364C211.307 370 208.107 376.9 205.207 382.9C202.907 387.5 202.507 392.9 204.107 397.8C211.807 422.2 213.407 439.9 220.907 448.3L245.407 441.7C245.407 441.7 244.407 424.5 237.807 399.2C244.907 384.8 252.207 371.6 255.207 366.4C256.207 364.7 256.907 362.9 257.507 361C257.507 361 259.507 363.1 260.907 362.7C262.807 362.1 263.607 356.8 261.007 347.1C262.307 348.9 265.007 350.7 266.107 349.2C267.207 347.7 263.707 342.6 262.507 338.4C263.907 341.2 269.607 344.4 270.707 341.7C271.707 339 267.007 334.4 263.407 321.4" stroke="black" stroke-width="1.5" stroke-miterlimit="10" stroke-linecap="round" stroke-linejoin="round"/>
<path d="M261.307 362.4C267.607 362.3 274.107 362.1 280.807 362.1C285.007 362.1 289.107 361.9 293.007 361.6" stroke="black" stroke-width="1.5" stroke-miterlimit="10" stroke-linecap="round" stroke-linejoin="round"/>
<path d="M256.906 362.5C257.706 362.5 258.606 362.5 259.406 362.4" stroke="black" stroke-width="1.5" stroke-miterlimit="10" stroke-linecap="round" stroke-linejoin="round"/>
<path d="M174.307 334.3C173.307 342.3 174.107 353.5 176.607 354.2C178.707 354.8 182.107 348.7 182.107 348.7C182.107 348.7 187.207 359.4 191.007 358.2C193.807 357.3 193.307 352.9 193.307 352.9C193.307 352.9 195.707 358.1 199.507 359.6C203.207 361.1 206.707 358.6 206.707 358.6C208.207 359 209.807 359.4 211.307 359.8" stroke="black" stroke-width="1.5" stroke-miterlimit="10" stroke-linecap="round" stroke-linejoin="round"/>
<path d="M117.507 189.1C114.707 195 114.207 200.9 118.807 199.1C115.907 209 118.107 215.2 120.807 213.3C125.707 232.7 139.507 258 159.307 280.1" stroke="black" stroke-width="1.5" stroke-miterlimit="10" stroke-linecap="round" stroke-linejoin="round"/>
<path d="M195.307 248.8C196.807 251.9 195.307 254.1 195.307 261.8C195.307 272.9 202.207 276.8 204.707 275.8C207.307 274.8 204.607 271.8 204.607 261.8" stroke="black" stroke-width="1.5" stroke-miterlimit="10" stroke-linecap="round" stroke-linejoin="round"/>
<path d="M205.807 273.4C207.307 278.1 213.207 280.6 215.007 278.8C216.807 277 212.707 274.5 212.007 262.5" stroke="black" stroke-width="1.5" stroke-miterlimit="10" stroke-linecap="round" stroke-linejoin="round"/>
<path d="M214.007 273.1C215.107 275.4 218.207 276.7 219.707 275.7C221.607 274.4 220.007 272.4 218.807 268C216.607 259.8 217.307 257.4 218.507 254.4" stroke="black" stroke-width="1.5" stroke-miterlimit="10" stroke-linecap="round" stroke-linejoin="round"/>
<path d="M176.607 354.3C179.407 361.8 182.807 369.8 187.007 377.9C195.607 422.1 187.007 450.2 194.007 464.1H219.407C219.407 464.1 219.807 458.1 220.707 448.1" stroke="black" stroke-width="1.5" stroke-miterlimit="10" stroke-linecap="round" stroke-linejoin="round"/>
<path d="M149.707 268.5C151.307 272.7 152.707 276.7 153.807 280.3C153.807 285 149.707 294.4 151.507 295.4C153.807 296.6 156.807 291.1 156.807 291.1C154.807 301 154.707 305.2 156.407 306.1C158.107 307 160.107 303.9 160.107 303.9C157.207 316.1 164.107 316.1 164.107 316.1C166.907 323.7 169.807 334.7 174.207 347.4" stroke="black" stroke-width="1.5" stroke-miterlimit="10" stroke-linecap="round" stroke-linejoin="round"/>
<path d="M129.207 185.9C128.807 189.6 132.607 190 134.407 184.8" stroke="black" stroke-width="1.5" stroke-miterlimit="10" stroke-linecap="round" stroke-linejoin="round"/>
<path d="M210.807 232.7C210.807 232.7 212.207 239.9 206.107 246.2" stroke="black" stroke-width="1.5" stroke-miterlimit="10" stroke-linecap="round" stroke-linejoin="round"/>
<path d="M243.207 218.5C243.307 218.6 243.407 218.8 243.507 218.9C244.307 220 244.907 221.2 245.507 222.5C254.807 217.4 264.407 213 274.407 209.2C263.607 210 252.907 213.3 243.207 218.5Z" fill="#FFF6F4" stroke="black" stroke-width="1.5" stroke-miterlimit="10" stroke-linecap="round" stroke-linejoin="round"/>
<path d="M243.607 219.1C244.507 220.4 245.207 221.7 245.707 223.1C255.807 214.4 266.607 206.6 278.207 199.7C265.407 202.9 253.407 209.9 243.607 219.1Z" fill="#FFF6F4" stroke="black" stroke-width="1.5" stroke-miterlimit="10" stroke-linecap="round" stroke-linejoin="round"/>
<path d="M240.807 215.2C241.807 216.6 242.707 217.8 243.507 219C251.707 209.2 260.607 200 270.407 191.6C258.907 196.7 248.707 205 240.807 215.2Z" fill="#FFF6F4" stroke="black" stroke-width="1.5" stroke-miterlimit="10" stroke-linecap="round" stroke-linejoin="round"/>
<path d="M142.107 478.3C131.507 457.9 129.507 431.9 137.807 410.4C136.007 433.2 137.707 455.7 142.107 478.3Z" fill="#FFF6F4" stroke="black" stroke-width="1.5" stroke-miterlimit="10" stroke-linecap="round" stroke-linejoin="round"/>
<path d="M142.107 478.3C128.107 460.1 121.607 434.8 126.007 412.2C128.307 434.9 133.807 456.8 142.107 478.3Z" fill="#FFF6F4" stroke="black" stroke-width="1.5" stroke-miterlimit="10" stroke-linecap="round" stroke-linejoin="round"/>
<path d="M142.007 478.3C135.107 456.4 137.707 430.4 149.507 410.7C143.907 432.8 141.607 455.3 142.007 478.3Z" fill="#FFF6F4" stroke="black" stroke-width="1.5" stroke-miterlimit="10" stroke-linecap="round" stroke-linejoin="round"/>
<path d="M142.107 478.3C139.107 455.5 125.807 433 106.707 420.2C121.207 437.9 132.707 457.3 142.107 478.3Z" fill="#FFF6F4" stroke="black" stroke-width="1.5" stroke-miterlimit="10" stroke-linecap="round" stroke-linejoin="round"/>
<path d="M120.807 478.3C119.007 472.5 120.107 464.1 120.107 464.1C123.207 469 134.207 478.3 134.207 478.3C133.207 476 132.607 470.2 132.607 470.2C137.507 472.3 142.007 478.3 142.007 478.3C147.507 467.1 156.307 466.6 156.307 466.6C156.307 466.6 153.007 472.6 153.007 478.3" fill="#FFF6F4"/>
<path d="M120.807 478.3C119.007 472.5 120.107 464.1 120.107 464.1C123.207 469 134.207 478.3 134.207 478.3C133.207 476 132.607 470.2 132.607 470.2C137.507 472.3 142.007 478.3 142.007 478.3C147.507 467.1 156.307 466.6 156.307 466.6C156.307 466.6 153.007 472.6 153.007 478.3" stroke="black" stroke-width="1.5" stroke-miterlimit="10" stroke-linecap="round" stroke-linejoin="round"/>
</svg>
