<svg width="440" height="490" viewBox="0 0 440 490" fill="none" xmlns="http://www.w3.org/2000/svg">
<path d="M417.935 321.679C397.479 397.588 351.27 443.536 270.819 469.856C178.604 500.024 5.9653 505.989 26.4473 418.355C35.0037 381.746 72.2505 375.652 89.1447 341.556C136.337 246.312 -37.8985 166.413 26.4473 79.9872C60.3187 34.4932 96.1529 12.793 155.298 2.73624C266.912 -16.242 340.352 66.4348 389.796 159.949C420.235 217.519 434.669 259.584 417.935 321.679Z" fill="#FFA41B"/>
<path d="M254.5 171.5V138.939C254.322 139.797 252.92 141.373 244 138.5L214.5 129C214.5 129 231.526 112.352 244 115C250.682 116.419 259 124 259 124C259 124 276.547 114.033 289 112C302.923 109.727 325 115 325 115L331.5 124C331.5 124 341.318 115.195 349 115C359.016 114.746 370.5 129 370.5 129C370.5 129 358.179 138.534 349 138.5C341.775 138.473 331.5 132.5 331.5 132.5C331.5 132.5 337.267 166.891 339.5 167C341.734 167.109 359.448 164 362 182.5C364.552 201 349 214.5 349 214.5C349 214.5 345.46 225.647 339.5 228.5C334.393 230.945 325 228.5 325 228.5C325 228.5 327.476 269.881 317 293C309.456 309.647 289 330.5 289 330.5C289 330.5 293.497 344.648 295 354C297.633 370.387 295 396.5 295 396.5L284.5 401.5L274 361L269.5 401.5H259L254.5 338.5H188C188 338.5 184.066 355.751 183 367C181.729 380.413 183 401.5 183 401.5L165.5 396.5L156.5 334.5H144.5C144.5 334.5 137.954 362.566 140 380.5C140.951 388.833 144.5 401.5 144.5 401.5H132.5C132.5 401.5 106.809 321.257 103 268C101.134 241.902 103 201 103 201C103 201 92.3455 210.286 88.0001 218C82.6539 227.491 80.4494 234.121 81.0001 245C81.3138 251.198 84.5001 260.5 84.5001 260.5L68.5001 245C68.5001 245 68.2108 213.471 81.0001 201C90.1417 192.086 111 188 111 188C111 188 114.5 162.5 174 154.5C233.5 146.5 254.5 171.5 254.5 171.5Z" fill="white"/>
<path d="M334 411.5C325.213 415.405 344 434 344 434L393.5 438.5C393.5 438.5 389.652 419.103 389 406.5C388.617 399.09 392.705 393.929 389 387.5C385.117 380.762 379.105 376.377 371.5 378C360.509 380.346 367.5 406.5 367.5 406.5L361 394C361 394 350.531 384.695 344 387.5C335.388 391.199 344 411.5 344 411.5C344 411.5 337.569 409.914 334 411.5Z" fill="#FFF6F4"/>
<path d="M246.5 422C240.535 417.886 228.5 426.5 228.5 426.5C228.5 426.5 218.948 413.586 212 416.5C204.077 419.823 209.243 430.363 212 438.5C214.557 446.046 224 455 224 455C224 455 234.065 449.904 238.5 444.5C244.416 437.291 254.177 427.294 246.5 422Z" fill="#FFF6F4"/>
<path d="M146 434C142.591 434.208 138.5 438.5 138.5 438.5C138.5 438.5 129.71 419.529 120.5 422C113.123 423.979 112.186 431.182 110 438.5C107.709 446.171 110 459 110 459L160 455C160 455 158.245 448.27 156 444.5C153.103 439.634 151.652 433.655 146 434Z" fill="#FFF6F4"/>
<path d="M91 63C82.6595 54.6595 62.5 53 62.5 53L40 80C40 80 31.464 96.8763 35 107C37.6469 114.578 44.117 115.775 48.5 122.5C53.0796 129.527 57.5 142 57.5 142L74 136H101V91.5C101 91.5 99.3405 71.3405 91 63Z" fill="#FFF6F4"/>
<path d="M194.99 63.4953C194.354 63.7763 193.698 64.0203 193.085 64.3443C188.595 66.7163 184.117 69.1113 179.627 71.4813C178.995 71.8143 178.684 72.2383 178.51 72.9783C176.839 80.0743 173.828 86.5833 169.643 92.5373C168.225 94.5553 166.395 96.0833 163.868 96.6303C160.174 97.4293 157.374 94.8883 157.87 91.1473C158.116 89.2923 158.871 87.6303 159.769 86.0263C163.275 79.7693 168.297 74.9913 174.304 71.1793C175.036 70.7143 175.769 70.2513 176.452 69.6163C175.329 69.7043 174.206 69.8073 173.082 69.8793C169.079 70.1363 165.286 69.4183 161.782 67.3983C159.872 66.2973 158.238 64.9033 157.202 62.9143C155.688 60.0063 156.379 56.6873 158.863 54.9903C160.092 54.1503 161.476 53.7283 162.965 53.6403C166.148 53.4513 169.182 54.1253 172.116 55.2803C176.24 56.9033 180.135 58.9753 183.76 61.5243C184.907 62.3313 185.918 63.3323 187.067 64.3083C194.522 60.2243 202.615 57.3453 211.028 54.5333C208.79 54.1623 206.867 53.9033 204.972 53.5133C202.55 53.0153 200.23 52.2023 198.194 50.7513C196.418 49.4863 195.01 47.9403 194.654 45.6713C194.267 43.1993 195.364 41.0183 197.579 39.8463C199.874 38.6323 202.324 38.6793 204.778 39.0353C207.356 39.4093 209.767 40.3193 212.044 41.5913C214.747 43.1023 217.296 44.8343 219.525 46.9843C220.596 48.0183 221.51 49.2143 222.531 50.3783C223.94 50.1163 225.359 49.7403 226.801 49.6073C230.97 49.2223 234.89 47.6973 238.996 47.0443C240.887 46.7433 242.778 46.4483 244.669 46.1483C244.995 46.0963 245.318 46.0303 245.915 45.9193C245.366 45.7153 245.058 45.5913 244.744 45.4863C241.153 44.2813 237.845 42.5593 234.985 40.0493C232.957 38.2693 231.218 36.2663 230.445 33.6003C229.235 29.4243 231.613 26.0323 235.955 26.0003C237.669 25.9873 239.433 26.3673 241.095 26.8453C244.265 27.7563 247.015 29.4793 249.421 31.7393C252.413 34.5503 254.985 37.7103 257.193 41.1653C257.639 41.8633 258.007 42.6193 258.34 43.3793C258.591 43.9503 258.935 44.1983 259.571 44.1873C262.816 44.1343 266.063 44.1703 269.306 44.0713C276.719 43.8433 284.131 43.6713 291.545 44.0123C292.832 44.0713 293.513 44.5513 293.481 45.3303C293.449 46.0933 292.729 46.6363 291.533 46.7223C290.829 46.7723 290.118 46.7353 289.41 46.7363C284.329 46.7433 279.248 46.7213 274.167 46.7663C270.879 46.7953 267.593 46.9243 264.298 47.0093C263.782 48.7543 263.31 50.4263 262.793 52.0843C260.736 58.6783 256.401 63.3773 250.5 66.7433C248.957 67.6233 247.279 68.0953 245.48 68.0313C243.174 67.9493 241.421 66.6523 240.719 64.4633C239.973 62.1393 240.24 59.8503 241.097 57.6153C242.424 54.1543 244.807 51.5323 247.748 49.3663C248.083 49.1193 248.424 48.8803 248.759 48.6333C248.78 48.6173 248.772 48.5603 248.793 48.4053C244.511 48.8133 240.331 49.6293 236.105 50.4613C236.017 51.9753 235.971 53.3833 235.847 54.7843C235.199 62.0863 232.492 68.5823 227.953 74.2933C226.934 75.5753 225.594 76.6423 224.265 77.6233C223.492 78.1933 222.477 78.5583 221.519 78.7313C219.269 79.1373 217.247 77.9053 216.33 75.7213C215.512 73.7733 215.476 71.7303 215.829 69.6983C216.699 64.6993 219.054 60.3693 222.046 56.3513C222.715 55.4523 223.465 54.6143 224.34 53.5503C223.723 53.6933 223.276 53.7683 222.848 53.9013C217.843 55.4603 212.847 57.0483 207.831 58.5733C207.03 58.8173 206.961 59.3293 206.903 59.9723C206.634 62.9573 206.428 65.9513 206.058 68.9243C205.507 73.3543 203.982 77.4123 200.967 80.7913C199.357 82.5953 197.408 83.9413 195.032 84.5393C194.275 84.7303 193.468 84.8143 192.687 84.8003C190.357 84.7573 188.76 83.4603 188.208 81.1843C187.588 78.6273 187.966 76.1333 188.837 73.6993C190.049 70.3153 192.099 67.4353 194.351 64.6823C194.611 64.3643 194.874 64.0473 195.136 63.7303C195.087 63.6493 195.039 63.5723 194.99 63.4953ZM232.9 52.0313C230.527 52.6303 228.687 53.8093 227.104 55.3803C223.583 58.8723 221.066 63.0053 219.461 67.6903C218.89 69.3573 218.573 71.0793 218.731 72.8503C218.827 73.9313 218.889 75.1143 220.062 75.6193C221.205 76.1113 222.167 75.4493 223.048 74.8023C224.61 73.6543 225.849 72.1893 226.92 70.5893C229.211 67.1673 230.831 63.4323 231.895 59.4673C232.532 57.0983 232.876 54.6713 232.9 52.0313ZM261.025 47.3123C256.693 48.0433 252.756 49.2333 249.355 51.8213C246.998 53.6143 245.044 55.7433 243.915 58.5293C243.275 60.1083 243.029 61.7433 243.499 63.4143C243.812 64.5263 244.327 64.9063 245.472 64.9853C246.81 65.0773 248.076 64.7333 249.15 63.9963C250.93 62.7763 252.724 61.5413 254.326 60.1063C258.067 56.7533 259.983 52.3803 261.025 47.3123ZM254.939 43.9113C254.783 43.5843 254.73 43.4283 254.643 43.2943C252.434 39.9043 249.961 36.7283 247.007 33.9483C245.137 32.1883 242.983 30.8713 240.592 29.9493C239.033 29.3483 237.439 28.9033 235.735 29.0183C233.829 29.1473 232.889 30.3353 233.218 32.2133C233.558 34.1583 234.704 35.6233 236.072 36.9313C241.304 41.9353 247.787 43.5893 254.939 43.9113ZM183.396 65.3163C183.308 65.1003 183.298 65.0083 183.246 64.9613C183.092 64.8223 182.927 64.6953 182.758 64.5753C179.352 62.1533 175.723 60.1143 171.856 58.5463C170.095 57.8323 168.231 57.3223 166.371 56.9163C164.707 56.5533 162.975 56.4373 161.317 57.0713C159.65 57.7083 159.013 59.0993 159.569 60.7983C160.002 62.1203 160.896 63.1023 161.983 63.9043C164.423 65.7053 167.173 66.6813 170.198 66.8933C173.086 67.0963 175.934 66.7553 178.767 66.2603C180.309 65.9913 181.835 65.6373 183.396 65.3163ZM203.822 60.9673C203.718 60.9213 203.614 60.8743 203.51 60.8283C203.093 61.0883 202.664 61.3303 202.261 61.6093C198.286 64.3603 195.157 67.8933 192.795 72.0863C192.128 73.2703 191.614 74.5823 191.28 75.8993C190.968 77.1303 190.872 78.4483 190.889 79.7253C190.914 81.6623 191.837 82.3283 193.751 81.9103C194.392 81.7703 195.025 81.5123 195.607 81.2053C198.06 79.9123 199.748 77.8903 200.926 75.4233C202.009 73.1553 202.774 70.7933 203.013 68.2693C203.245 65.8313 203.549 63.4003 203.822 60.9673ZM219.234 50.9143C216.508 48.3953 213.872 46.2523 210.902 44.5353C208.568 43.1863 206.108 42.2323 203.424 41.8913C201.912 41.6993 200.428 41.7313 199.037 42.4493C197.595 43.1943 197.089 44.5833 197.836 46.0223C198.171 46.6683 198.653 47.3343 199.244 47.7303C200.373 48.4873 201.566 49.2283 202.838 49.6743C208.1 51.5173 213.523 51.5373 219.234 50.9143ZM174.903 74.7433C174.849 74.7003 174.794 74.6583 174.74 74.6153C174.41 74.8333 174.06 75.0253 173.754 75.2723C172.392 76.3673 170.996 77.4253 169.697 78.5913C166.381 81.5703 163.7 85.0553 161.75 89.0683C161.305 89.9853 160.975 91.0123 160.857 92.0203C160.706 93.3043 161.651 94.1333 162.896 93.8173C163.834 93.5793 164.843 93.1883 165.543 92.5573C166.547 91.6533 167.39 90.5293 168.14 89.3923C170.604 85.6583 172.45 81.6113 173.984 77.4183C174.307 76.5333 174.597 75.6353 174.903 74.7433Z" fill="#595A5C"/>
<path d="M391.795 287.288C393.931 286.183 396.028 284.992 398.213 283.995C401.613 282.443 405.169 281.4 408.959 281.615C410.102 281.68 411.282 281.93 412.348 282.345C415.818 283.695 416.904 287.131 414.943 290.315C414.029 291.798 412.768 292.937 411.296 293.848C409.256 295.111 407.012 295.872 404.712 296.484C400.478 297.612 396.147 297.695 391.812 297.558C389.368 297.48 386.931 297.206 384.201 296.998C381.579 300.944 378.803 305.123 376.026 309.302C376.106 309.378 376.186 309.454 376.267 309.53C376.61 309.276 376.961 309.031 377.296 308.766C380.416 306.295 383.724 304.146 387.558 302.941C389.914 302.2 392.297 301.707 394.807 302.087C398.699 302.676 400.574 305.823 399.163 309.513C398.617 310.94 397.735 312.142 396.663 313.211C393.073 316.789 388.667 318.742 383.719 319.422C379.917 319.945 376.077 319.936 372.252 319.497C371.719 319.436 371.191 319.325 370.443 319.202C368.924 322.173 367.387 325.178 365.851 328.182C365.921 328.239 365.991 328.296 366.061 328.353C366.397 328.147 366.737 327.947 367.069 327.734C369.736 326.027 372.609 324.879 375.769 324.491C377.54 324.273 379.265 324.455 380.929 325.084C383.803 326.171 384.541 328.928 382.607 331.309C381.622 332.522 380.415 333.48 379.031 334.192C375.15 336.187 371.018 337.222 366.655 337.206C365.206 337.201 363.759 336.95 362.166 336.797C362.035 337.033 361.82 337.331 361.691 337.664C360.084 341.815 358.492 345.971 356.892 350.125C356.593 350.9 356.332 351.696 355.958 352.435C355.511 353.317 354.803 353.656 354.16 353.425C353.519 353.195 353.258 352.517 353.469 351.513C354.337 347.38 355.799 343.439 357.423 339.56C359.03 335.721 360.741 331.926 362.407 328.112C362.589 327.696 362.769 327.28 362.987 326.781C362.543 326.599 362.178 326.389 361.786 326.299C359.928 325.875 358.454 324.807 357.118 323.526C353.095 319.671 350.97 314.89 350.375 309.404C350.287 308.594 350.391 307.728 350.583 306.93C351.268 304.081 354.065 302.605 356.906 303.544C358.836 304.182 360.283 305.492 361.548 307.014C363.281 309.097 364.385 311.52 365.12 314.103C365.54 315.581 365.809 317.101 366.144 318.603C366.223 318.959 366.296 319.316 366.422 319.913C368.714 315.843 370.892 311.974 373.002 308.227C371.839 306.579 370.61 305.059 369.625 303.395C367.605 299.981 365.897 296.418 365.15 292.47C364.714 290.161 364.515 287.85 365.019 285.526C365.343 284.034 365.95 282.678 367.029 281.571C369.017 279.531 371.627 279.316 373.914 281.01C375.4 282.111 376.338 283.629 377.059 285.29C378.421 288.429 378.923 291.756 379.113 295.139C379.178 296.29 379.123 297.448 379.123 298.879C379.485 298.418 379.685 298.179 379.869 297.927C381.882 295.168 383.878 292.397 385.914 289.656C386.331 289.095 386.435 288.663 386.124 287.978C384.085 283.488 383.033 278.761 382.87 273.832C382.743 269.996 383.28 266.277 384.781 262.723C385.404 261.248 386.224 259.907 387.435 258.834C390.537 256.086 394.41 256.999 395.888 260.866C397.005 263.788 397.281 266.852 397.223 269.954C397.181 272.203 396.935 274.425 396.323 276.675C396.718 276.23 397.105 275.779 397.507 275.342C402.371 270.061 407.795 265.496 414.295 262.333C417.076 260.979 419.972 259.929 423.049 259.486C424.831 259.229 426.629 259.177 428.351 259.843C429.005 260.096 429.657 260.407 430.233 260.803C432.418 262.304 433.018 264.498 431.683 266.778C431.027 267.898 430.084 268.919 429.076 269.75C426.147 272.165 422.605 273.319 418.989 274.194C415.296 275.088 411.531 275.562 407.723 275.436C406.319 275.39 404.899 275.196 403.533 274.873C402.718 274.68 402.196 274.785 401.673 275.395C398.908 278.619 396.123 281.826 393.357 285.048C392.764 285.739 392.221 286.472 391.655 287.185C391.699 287.22 391.747 287.254 391.795 287.288ZM388.621 286.245C389.171 285.355 389.605 284.747 389.939 284.09C390.561 282.868 391.128 281.618 391.712 280.377C393.83 275.877 394.834 271.16 394.229 266.195C394.035 264.604 393.635 262.998 393.056 261.505C392.464 259.98 390.91 259.683 389.685 260.768C388.987 261.386 388.366 262.18 387.958 263.016C387.396 264.164 386.985 265.404 386.655 266.644C385.563 270.751 385.827 274.89 386.51 279.024C386.902 281.404 387.622 283.691 388.621 286.245ZM372.548 316.769C372.641 316.828 372.707 316.906 372.767 316.901C376.667 316.638 380.601 316.597 384.458 316.035C388.31 315.474 391.753 313.718 394.519 310.887C395.258 310.13 395.901 309.2 396.326 308.234C397.02 306.657 396.381 305.509 394.685 305.19C393.721 305.008 392.689 304.972 391.717 305.096C389.09 305.434 386.633 306.343 384.324 307.639C380.043 310.04 376.36 313.23 372.717 316.469C372.636 316.542 372.603 316.669 372.548 316.769ZM387.079 294.103C387.099 294.226 387.119 294.348 387.138 294.471C389.082 294.471 391.026 294.473 392.97 294.471C396.382 294.467 399.791 294.429 403.134 293.613C405.482 293.04 407.834 292.418 409.846 291.035C410.816 290.368 411.724 289.493 412.389 288.526C413.344 287.137 412.868 285.871 411.348 285.187C410.898 284.985 410.411 284.855 409.93 284.732C408.353 284.328 406.783 284.571 405.232 284.873C398.295 286.223 392.608 290.013 387.079 294.103ZM405.182 272.372C405.429 272.43 405.547 272.475 405.668 272.483C410.447 272.803 415.144 272.257 419.751 271.01C422.487 270.27 425.164 269.316 427.435 267.54C428.144 266.986 428.807 266.313 429.311 265.573C429.991 264.573 429.809 263.723 428.755 263.156C427.9 262.696 426.917 262.372 425.956 262.236C424.244 261.993 422.557 262.352 420.917 262.863C415.048 264.691 410.031 267.975 405.431 271.963C405.347 272.036 405.307 272.162 405.182 272.372ZM374.435 305.804C375.287 304.705 375.285 304.705 375.639 302.656C376.371 298.423 376.32 294.194 375.46 289.991C375.008 287.779 374.359 285.614 372.786 283.885C371.202 282.145 369.428 282.326 368.399 284.438C367.94 285.38 367.691 286.496 367.636 287.549C367.461 290.948 368.293 294.174 369.806 297.19C371.236 300.043 372.822 302.818 374.435 305.804ZM363.442 324.663C363.517 323.995 363.574 323.71 363.577 323.424C363.627 319.367 362.843 315.473 361.198 311.767C360.376 309.916 359.216 308.284 357.571 307.068C357.012 306.655 356.363 306.313 355.703 306.101C354.69 305.776 353.717 306.257 353.408 307.275C353.197 307.97 353.101 308.765 353.204 309.48C353.895 314.296 355.874 318.486 359.545 321.755C360.678 322.765 361.982 323.584 363.442 324.663ZM363.948 334.037C363.978 334.142 364.007 334.248 364.037 334.353C365.437 334.28 366.841 334.25 368.236 334.125C371.583 333.825 374.81 333.036 377.783 331.433C378.648 330.967 379.451 330.326 380.154 329.635C381.148 328.66 380.958 327.986 379.58 327.639C378.624 327.399 377.596 327.218 376.625 327.303C371.456 327.758 367.392 330.337 363.948 334.037Z" fill="#595A5C"/>
<path d="M390.414 395.603C391.442 394.279 392.318 393.071 393.276 391.933C394.817 390.103 396.62 388.562 398.713 387.387C400.794 386.218 403.031 385.568 405.42 385.813C410.058 386.288 413.35 389.835 413.84 394.609C414.232 398.433 413.573 402.071 412.199 405.616C411.691 406.927 411.175 408.234 410.587 409.736C411.056 409.562 411.343 409.448 411.634 409.348C413.009 408.876 414.353 408.258 415.765 407.964C420.569 406.963 424.809 409.808 425.833 414.617C426.483 417.671 425.861 420.603 424.772 423.423C422.185 430.118 417.505 434.938 411.023 437.895C409.335 438.665 407.32 438.81 405.431 439.033C400.2 439.65 394.951 439.323 389.707 439.147C387.792 439.083 385.872 439.112 383.96 439.006C379.554 438.762 375.148 438.503 370.748 438.172C365.144 437.752 359.545 437.267 353.946 436.785C352.248 436.639 350.554 436.427 348.864 436.204C348.377 436.14 347.856 436.026 347.441 435.782C341.771 432.443 337.151 428.139 334.818 421.791C334.046 419.69 333.702 417.544 334.15 415.294C335.035 410.844 338.487 408.463 342.959 409.303C343.726 409.447 344.476 409.682 345.443 409.927C345.126 409.335 344.881 408.881 344.639 408.424C342.598 404.569 341.398 400.486 341.472 396.1C341.512 393.76 341.865 391.441 342.775 389.265C343.98 386.384 345.822 384.061 348.98 383.204C352.268 382.313 355.274 383.074 357.875 385.223C360.618 387.49 362.657 390.31 364.034 393.599C364.145 393.865 364.246 394.135 364.461 394.679C364.742 393.083 364.952 391.754 365.213 390.434C365.87 387.116 366.783 383.884 368.26 380.819C370.118 376.962 373.252 374.718 377.304 373.789C381.003 372.941 383.966 374.498 386.463 377.141C388.731 379.542 389.689 382.528 390.315 385.673C390.958 388.903 390.718 392.137 390.414 395.603ZM364.704 434.431C364.704 434.069 364.732 433.826 364.7 433.592C364.155 429.593 363.57 425.6 363.068 421.596C362.934 420.524 362.792 419.427 363.062 418.268C363.212 417.626 364.125 417.532 364.372 418.143C364.374 418.147 364.375 418.15 364.377 418.154C364.817 419.273 365.306 420.397 365.549 421.566C366.201 424.702 366.728 427.863 367.317 431.012C367.559 432.305 367.834 433.592 368.104 434.932C371.149 435.168 374.031 435.391 377.003 435.621C377.073 434.659 377.123 433.874 377.188 433.09C377.442 430.022 377.611 426.943 377.99 423.89C378.229 421.962 378.751 420.065 379.218 418.172C379.219 418.167 379.221 418.162 379.222 418.157C379.441 417.309 380.677 417.336 380.895 418.184C381.042 418.755 381.063 419.314 381.049 419.865C380.975 422.736 380.824 425.606 380.681 428.476C380.559 430.915 380.405 433.353 380.259 435.904H387.913C388.002 435.706 388.093 435.52 388.171 435.329C389.463 432.126 390.726 428.912 392.062 425.728C392.361 425.015 392.835 424.338 393.363 423.77C393.97 423.118 394.681 423.369 394.769 424.244C394.83 424.85 394.79 425.512 394.609 426.09C393.689 429.026 392.71 431.944 391.747 434.866C391.612 435.275 391.453 435.676 391.22 436.313C393.916 436.313 396.37 436.342 398.822 436.282C399.192 436.273 399.64 435.927 399.899 435.611C400.796 434.517 401.589 433.337 402.492 432.248C403.474 431.064 404.505 429.916 405.578 428.815C406.002 428.38 406.564 428.03 407.126 427.792C407.892 427.469 408.389 427.899 408.196 428.696C408.041 429.336 407.831 429.996 407.488 430.55C406.589 431.998 405.609 433.396 404.65 434.807C404.361 435.232 404.036 435.634 403.617 436.194C405.261 436.058 406.665 435.927 408.072 435.828C409.805 435.706 411.313 435.046 412.559 433.863C414.431 432.086 416.364 430.356 418.067 428.426C420.328 425.864 421.863 422.862 422.557 419.48C422.842 418.092 423.035 416.707 422.716 415.275C422.091 412.468 419.446 410.3 416.394 411.041C413.306 411.791 410.493 413.061 408.287 415.445C408.005 415.749 407.722 416.066 407.387 416.303C406.83 416.697 406.217 416.735 405.638 416.33C405.07 415.932 404.842 415.358 405.002 414.69C405.107 414.249 405.318 413.833 405.492 413.41C406.919 409.947 408.411 406.509 409.756 403.014C410.802 400.297 411.122 397.462 410.725 394.542C410.16 390.391 406.801 388.028 402.734 388.996C400.113 389.62 398.078 391.188 396.298 393.101C393.572 396.031 391.58 399.433 390.089 403.137C389.887 403.638 389.704 404.154 389.437 404.619C389.093 405.217 387.894 405.827 387.543 405.505C387.133 405.129 386.944 404.493 386.719 403.946C386.632 403.733 386.7 403.452 386.715 403.203C386.925 399.796 387.112 396.387 387.357 392.983C387.592 389.712 387.376 386.495 386.423 383.343C385.844 381.428 384.873 379.747 383.389 378.399C381.832 376.985 379.998 376.17 377.891 376.645C374.938 377.31 372.492 378.785 371.023 381.585C369.933 383.663 369.148 385.847 368.574 388.116C367.6 391.964 367.196 395.896 366.804 399.832C366.664 401.239 366.561 402.653 366.334 404.047C366.156 405.138 365.455 405.763 364.653 405.776C363.828 405.789 363.196 405.166 362.944 404.078C362.86 403.713 362.788 403.345 362.728 402.975C362.462 401.332 362.198 399.689 361.942 398.044C361.249 393.583 358.974 390.012 355.527 387.234C352.347 384.672 348.315 385.497 346.173 388.958C344.836 391.118 344.4 393.55 344.353 396.014C344.278 399.972 345.4 403.663 347.356 407.089C348.783 409.589 350.368 411.98 352.356 414.089C353.364 415.159 353.464 416.008 352.808 416.732C352.147 417.462 351.36 417.402 350.127 416.559C348.786 415.643 347.45 414.717 346.08 413.846C344.62 412.919 343.051 412.28 341.277 412.283C339.126 412.288 337.843 413.261 337.279 415.329C336.748 417.276 337.154 419.126 337.859 420.941C339.379 424.855 342.064 427.843 345.182 430.585C347.91 432.985 351.092 433.389 354.614 433.528C354.359 433.117 354.201 432.836 354.019 432.573C353.048 431.171 352.037 429.795 351.112 428.363C350.69 427.709 350.391 426.964 350.126 426.228C350.037 425.98 350.145 425.572 350.314 425.356C350.401 425.245 350.88 425.312 351.082 425.447C351.7 425.862 352.349 426.276 352.842 426.821C354.322 428.455 355.84 430.074 357.139 431.848C358.159 433.241 359.19 434.219 361.059 434.12C362.244 434.06 363.44 434.313 364.704 434.431Z" fill="#595A5C"/>
<path d="M390.341 214.064C389.804 213.439 389.277 212.906 388.842 212.307C385.553 207.781 383.657 202.741 383.387 197.135C383.302 195.376 383.55 193.642 384.318 192.021C385.81 188.874 388.811 188.16 391.501 190.363C393.306 191.841 394.318 193.829 394.904 196.056C395.665 198.948 395.773 201.893 395.632 204.859C395.614 205.23 395.623 205.602 395.625 205.973C395.625 205.996 395.678 206.019 395.814 206.131C399.21 201.462 402.235 196.567 405.274 191.653C401.671 188.263 399.618 184.096 398.444 179.445C397.482 175.635 397.585 171.844 398.802 168.117C399.131 167.109 399.652 166.111 400.295 165.268C401.587 163.574 403.607 163.308 405.422 164.433C406.858 165.323 407.739 166.672 408.502 168.128C410.155 171.284 410.511 174.706 410.578 178.186C410.605 179.588 410.582 180.992 410.582 182.363C410.619 182.312 410.73 182.198 410.799 182.062C412.637 178.467 414.469 174.87 416.306 171.274C416.788 170.331 416.77 169.54 416.264 168.483C415.539 166.971 415.182 165.254 414.844 163.59C413.843 158.659 413.566 153.69 414.279 148.686C414.624 146.262 415.612 144.138 417.243 142.331C418.447 140.997 419.887 140.198 421.789 140.615C423.757 141.046 424.885 142.325 425.422 144.175C426.12 146.58 426.019 149.045 425.769 151.493C425.27 156.381 423.629 160.976 422.032 165.577C421.818 166.193 421.592 166.804 421.524 167.522C422.179 167.037 422.822 166.535 423.491 166.07C425.885 164.407 428.252 162.694 431.032 161.698C432.372 161.218 433.733 160.876 435.18 160.94C438.628 161.093 440.428 163.759 439.24 167.009C438.507 169.016 437.178 170.631 435.662 172.069C430.174 177.274 423.74 180.347 416.079 180.556C415.599 180.569 415.214 180.603 414.94 181.103C412.8 185.005 410.635 188.893 408.548 192.941C408.882 192.701 409.218 192.466 409.548 192.221C413.175 189.523 417.132 187.53 421.635 186.842C422.841 186.658 424.16 186.654 425.334 186.942C427.729 187.53 428.848 189.687 428.232 192.078C427.805 193.738 426.853 195.094 425.737 196.351C423.074 199.351 419.709 201.293 416.046 202.797C412.704 204.169 409.218 204.934 405.639 205.279C404.022 205.435 402.391 205.462 400.702 204.764C398.111 208.585 395.525 212.397 392.94 216.21C392.968 216.26 392.996 216.31 393.024 216.36C393.317 216.2 393.621 216.057 393.902 215.878C396.711 214.091 399.725 212.782 403.036 212.359C404.413 212.183 405.871 212.241 407.233 212.502C408.109 212.67 408.982 213.286 409.672 213.905C411.243 215.314 411.603 217.182 410.536 218.998C409.811 220.233 408.858 221.396 407.8 222.363C404.281 225.58 399.984 227.203 395.365 228.066C391.976 228.699 388.576 228.732 385.182 228.112C384.587 228.003 384.261 228.245 383.933 228.682C382.207 230.98 380.463 233.264 378.722 235.55C378.496 235.848 378.278 236.161 378.007 236.414C377.394 236.987 376.619 237.093 376.066 236.724C375.483 236.336 375.219 235.449 375.613 234.707C376.06 233.865 376.606 233.069 377.173 232.3C379.175 229.585 381.229 226.907 383.215 224.181C385.349 221.253 387.431 218.286 389.529 215.332C389.816 214.931 390.062 214.503 390.341 214.064ZM403.524 202.205C403.934 202.205 404.335 202.231 404.732 202.201C409.9 201.812 414.808 200.507 419.317 197.905C421.541 196.622 423.445 194.952 424.787 192.727C425.232 191.989 425.809 191.144 425.233 190.296C424.645 189.429 423.644 189.562 422.72 189.691C419.415 190.155 416.393 191.376 413.536 193.065C409.648 195.363 406.636 198.647 403.565 201.867C403.523 201.913 403.545 202.019 403.524 202.205ZM416.808 177.431C417.355 177.431 417.562 177.452 417.765 177.428C423.747 176.725 428.97 174.333 433.356 170.221C434.494 169.155 435.499 167.878 436.301 166.54C437.338 164.811 436.573 163.749 434.549 163.847C434.302 163.859 434.046 163.883 433.811 163.957C432.86 164.255 431.858 164.461 430.978 164.906C426.206 167.316 421.975 170.443 418.6 174.63C417.959 175.424 417.488 176.355 416.808 177.431ZM387.414 225.19C389.406 225.581 391.143 225.409 392.872 225.207C397.319 224.688 401.486 223.375 405.095 220.637C406.014 219.94 406.849 219.1 407.598 218.219C408.526 217.128 408.28 216.089 406.96 215.524C406.299 215.241 405.494 215.066 404.792 215.153C403.317 215.335 401.833 215.61 400.412 216.043C395.168 217.641 391.422 221.392 387.414 225.19ZM406.147 188.114C406.262 187.932 406.355 187.844 406.377 187.741C407.35 183.159 407.784 178.54 407.187 173.871C406.942 171.957 406.288 170.156 405.28 168.503C404.981 168.013 404.616 167.534 404.186 167.159C403.458 166.523 402.821 166.632 402.338 167.468C402.031 168 401.812 168.597 401.636 169.189C400.255 173.839 400.96 178.317 402.813 182.687C403.643 184.643 404.74 186.434 406.147 188.114ZM418.333 165.291C418.45 165.303 418.568 165.314 418.685 165.326C418.797 165.072 418.93 164.824 419.018 164.562C419.773 162.315 420.559 160.078 421.261 157.814C422.402 154.135 423.135 150.39 422.804 146.508C422.758 145.973 422.683 145.426 422.515 144.919C421.994 143.347 420.703 143.061 419.572 144.282C418.415 145.531 417.69 147.018 417.396 148.701C416.834 151.928 416.871 155.176 417.228 158.41C417.482 160.715 417.957 162.998 418.333 165.291ZM391.471 210.671C391.604 210.36 391.712 210.186 391.753 209.997C392.494 206.603 392.787 203.169 392.481 199.708C392.317 197.844 392.004 195.975 390.994 194.345C390.564 193.651 390.032 192.97 389.401 192.464C388.481 191.726 387.637 191.917 387.181 192.996C386.784 193.933 386.485 194.972 386.431 195.981C386.244 199.467 387.261 202.718 388.652 205.864C389.389 207.532 390.282 209.114 391.471 210.671Z" fill="#595A5C"/>
<path d="M44.668 127.259C42.983 126.713 41.366 126.18 39.743 125.666C36.63 124.68 33.648 123.451 31.043 121.408C27.19 118.386 25.531 114.454 25.884 109.592C26.086 106.806 27.038 104.25 28.072 101.71C31.531 93.2134 35.543 84.9744 40.11 77.0284C44.052 70.1714 48.252 63.4614 52.407 56.7284C53.6 54.7944 55.34 53.3204 57.26 52.1114C58.616 51.2574 60.097 50.7194 61.751 50.8234C62.158 50.8494 62.57 50.7844 63.023 50.7584C63.16 50.3234 63.266 49.9274 63.409 49.5454C63.995 47.9884 64.566 46.4264 65.192 44.8854C66.48 41.7114 68.937 40.0074 72.271 39.7444C77.339 39.3454 82.357 39.6134 87.059 41.8484C88.105 42.3454 89.125 42.9494 90.041 43.6544C91.964 45.1344 92.927 47.1704 93.075 49.5794C93.23 52.1004 92.837 54.5604 92.171 56.9844C92.084 57.3004 92.003 57.6184 91.909 57.9724C92.175 58.1514 92.403 58.3304 92.653 58.4694C96.046 60.3554 97.817 63.3074 98.297 67.0924C98.899 71.8404 99.563 76.5834 100.045 81.3444C100.766 88.4674 101.542 95.5934 101.94 102.737C102.301 109.218 102.225 115.726 102.258 122.222C102.267 123.915 102.1 125.635 101.78 127.297C101.279 129.899 99.884 131.931 97.218 132.706C95.19 133.296 93.121 133.889 91.032 134.102C85.378 134.678 79.718 134.413 74.077 133.748C73.715 133.705 73.345 133.743 72.987 133.743C71.099 141.586 62.428 146.135 55.042 144.07C47.879 142.069 43.168 134.596 44.668 127.259ZM99.168 113.425C98.989 109.525 98.928 105.897 98.634 102.288C98.065 95.3194 97.416 88.3564 96.702 81.4014C96.192 76.4354 95.521 71.4854 94.921 66.5284C94.733 64.9794 94.024 63.7104 92.947 62.5884C91.674 61.2614 90.1 60.4214 88.463 59.6944C82.953 57.2444 77.172 55.7124 71.245 54.6884C68.245 54.1704 65.232 53.7774 62.179 53.9244C60.481 54.0064 58.835 54.3914 57.58 55.6004C56.416 56.7214 55.194 57.8644 54.347 59.2164C50.788 64.8974 47.206 70.5734 43.922 76.4144C39.515 84.2544 35.543 92.3224 31.98 100.593C30.699 103.566 29.78 106.571 29.259 109.759C28.727 113.012 29.623 115.671 31.951 117.912C34.474 120.341 37.591 121.743 40.836 122.843C47.78 125.198 54.863 127.076 62.053 128.499C66.54 129.387 71.058 130.177 75.597 130.729C80.101 131.276 84.651 131.44 89.19 131.059C90.842 130.92 92.477 130.593 94.122 130.361C96.207 130.068 97.401 128.689 97.896 126.834C98.479 124.646 98.924 122.392 99.125 120.14C99.328 117.825 99.168 115.478 99.168 113.425ZM70.119 133.238C62.384 132.059 54.88 130.254 47.477 128.135C45.71 131.766 49.634 138.608 54.476 140.632C60.676 143.224 68.377 139.613 70.119 133.238ZM69.7 51.3384C69.845 50.8184 69.948 50.4214 70.066 50.0284C70.625 48.1684 71.667 46.6994 73.606 46.1444C76.166 45.4114 78.786 45.2644 81.384 45.9064C84.696 46.7254 86.095 48.7604 85.858 52.2144C85.788 53.2404 85.709 54.2654 85.632 55.3314C86.816 55.7674 87.936 56.1794 89.203 56.6464C89.758 54.1054 90.329 51.6854 90.062 49.1684C89.893 47.5754 89.071 46.3414 87.674 45.5604C86.588 44.9534 85.486 44.3364 84.321 43.9144C80.525 42.5404 76.565 42.4654 72.606 42.7564C71.155 42.8634 69.709 43.4074 68.812 44.6804C67.511 46.5274 66.841 48.6734 66 50.9094C67.288 51.0594 68.423 51.1904 69.7 51.3384ZM82.671 54.3264C82.774 53.2404 82.851 52.2154 82.974 51.1964C83.092 50.2184 82.636 49.5904 81.799 49.2194C81.273 48.9864 80.714 48.8004 80.151 48.6804C78.534 48.3354 76.922 48.5274 75.326 48.8544C73.571 49.2144 72.937 49.9374 72.674 51.8044C75.957 52.6324 79.243 53.4614 82.671 54.3264Z" fill="#595A5C"/>
<path d="M18.022 393.526C17.693 391.345 17.337 389.338 17.099 387.318C16.759 384.436 16.952 381.573 17.745 378.776C18.52 376.042 20.061 373.781 22.355 372.116C25.337 369.953 28.596 369.762 31.963 371.116C34.037 371.95 35.824 373.251 37.44 374.776C39.567 376.784 41.5 378.961 43.032 381.47C43.114 381.604 43.222 381.723 43.437 382.006C43.632 381.131 43.788 380.42 43.95 379.71C44.689 376.471 45.925 373.44 47.793 370.684C49.272 368.503 51.187 366.802 53.544 365.616C57.54 363.606 61.723 364.228 64.958 367.323C67.54 369.794 69.035 372.863 69.811 376.313C70.644 380.017 70.579 383.756 70.192 387.5C69.984 389.518 69.698 391.529 69.432 393.659C69.815 393.464 70.167 393.289 70.516 393.108C73.471 391.575 76.528 390.982 79.806 391.969C84.687 393.438 87.122 396.721 87.567 401.727C88.006 406.662 86.276 410.979 83.346 414.859C79.466 419.997 74.23 422.602 67.864 423.105C64.96 423.335 62.065 423.69 59.161 423.926C57.087 424.095 55.001 424.12 52.926 424.279C44.099 424.952 35.277 424.659 26.455 424.191C26.33 424.184 26.205 424.166 26.081 424.171C22.308 424.324 18.641 423.594 14.952 422.933C9.012 421.869 4.83 418.51 1.98 413.334C0.500997 410.647 0.112997 407.787 0.638997 404.748C1.163 401.715 1.95 398.84 3.912 396.359C6.856 392.638 10.572 391.428 15.117 392.658C16.071 392.916 17.012 393.222 18.022 393.526ZM69.233 419.449C69.461 419.434 69.659 419.437 69.851 419.406C74.782 418.604 78.556 415.986 81.342 411.923C83.39 408.936 84.583 405.667 84.269 402.004C83.934 398.09 80.773 394.938 76.845 394.858C74.533 394.811 72.52 395.639 70.717 397.006C69.656 397.811 68.672 398.72 67.586 399.486C66.645 400.15 65.688 400.053 64.935 399.403C64.151 398.726 64.34 397.941 64.642 397.118C65.102 395.869 65.663 394.639 65.953 393.35C67.024 388.571 67.502 383.732 66.906 378.845C66.531 375.771 65.454 372.955 63.459 370.528C61.282 367.88 57.523 367.146 54.532 368.82C52.943 369.709 51.634 370.912 50.611 372.421C49.052 374.721 47.914 377.223 47.347 379.937C46.684 383.112 46.157 386.315 45.579 389.508C45.356 390.742 44.78 391.46 43.988 391.448C43.203 391.436 42.634 390.722 42.49 389.436C42.278 387.545 41.692 385.779 40.788 384.118C38.885 380.621 36.279 377.731 33.052 375.418C32.249 374.842 31.339 374.372 30.414 374.019C27.51 372.912 24.749 373.688 22.776 376.077C21.834 377.216 21.157 378.488 20.788 379.928C20.126 382.512 20.059 385.146 20.465 387.741C20.881 390.404 21.605 393.019 22.197 395.655C22.315 396.181 22.49 396.699 22.564 397.231C22.669 397.99 22.416 398.636 21.745 399.056C21.061 399.484 20.391 399.362 19.754 398.934C19.547 398.795 19.33 398.654 19.168 398.47C17.744 396.848 15.835 396.167 13.814 395.735C11.892 395.324 9.96 395.239 8.311 396.528C4.736 399.322 3.387 403.152 4.013 407.492C4.983 414.223 12.293 419.101 18.241 419.612C18.023 419.148 17.834 418.753 17.651 418.356C15.925 414.616 14.191 410.88 12.479 407.133C12.132 406.373 12.074 405.904 12.409 405.532C12.902 404.985 13.799 405.107 14.199 405.726C14.466 406.14 14.738 406.56 15.012 406.979C17.667 411.029 19.966 415.266 21.719 419.786C21.885 420.215 22.064 420.49 22.58 420.517C25.903 420.69 29.225 420.89 32.548 421.067C32.733 421.077 32.925 420.966 33.114 420.912C32.77 417.08 32.375 413.316 32.114 409.542C31.953 407.222 31.967 404.887 31.966 402.559C31.966 402.249 31.983 401.935 32.046 401.618C32.221 400.743 33.439 400.576 33.79 401.396C33.792 401.401 33.794 401.405 33.796 401.41C34.129 402.211 34.456 403.051 34.566 403.902C35.106 408.069 35.587 412.244 36.061 416.419C36.238 417.981 36.341 419.551 36.485 421.194C36.958 421.225 37.364 421.275 37.77 421.275C40.352 421.278 42.935 421.312 45.515 421.251C47.486 421.204 47.289 421.68 47.978 419.286C48.876 416.168 49.737 413.038 50.708 409.942C51.052 408.846 51.64 407.819 52.192 406.801C52.221 406.748 52.261 406.702 52.309 406.66C52.696 406.322 53.332 406.489 53.515 406.969C53.539 407.032 53.554 407.095 53.556 407.159C53.589 408.069 53.632 409.011 53.444 409.891C52.712 413.308 51.89 416.705 51.107 420.111C51.047 420.371 51.037 420.642 50.993 420.99C52.184 420.921 53.262 420.873 54.336 420.792C57.614 420.547 60.89 420.275 64.169 420.05C64.783 420.008 65.094 419.738 65.43 419.242C67.04 416.869 68.676 414.511 70.383 412.207C70.39 412.198 70.397 412.188 70.404 412.179C71.124 411.221 72.621 412.094 72.176 413.207C71.333 415.316 69.968 417.242 69.233 419.449Z" fill="#595A5C"/>
<path d="M137.02 436.424C137.95 435.562 138.73 434.752 139.599 434.053C141.411 432.597 143.528 432.043 145.809 432.347C148.103 432.652 149.726 433.96 150.502 436.143C150.845 437.107 150.924 438.169 151.082 439.193C151.156 439.669 151.133 440.159 151.161 440.802C151.757 440.47 152.176 440.224 152.606 439.999C156.283 438.086 160.642 439.812 161.643 443.667C161.907 444.683 161.908 445.832 161.754 446.88C161.345 449.662 160.4 452.277 158.91 454.683C158.038 456.091 156.857 456.916 155.154 456.989C152.286 457.111 149.421 457.316 146.553 457.433C143.561 457.555 140.565 457.598 137.572 457.706C132.373 457.894 127.175 458.127 121.975 458.297C119.104 458.391 116.231 458.397 113.358 458.446C112.423 458.462 111.718 458.094 111.076 457.39C108.033 454.053 106.678 450.102 106.676 445.641C106.675 444.007 107.241 442.532 108.152 441.204C109.331 439.483 111.037 438.911 113.053 439.126C113.422 439.165 113.786 439.256 114.375 439.363C114.233 438.802 114.136 438.345 114.001 437.9C113.09 434.888 112.906 431.858 113.71 428.789C115.005 423.85 119.54 420.21 124.335 420.344C127.528 420.433 130.04 421.978 132.178 424.227C133.821 425.955 134.848 428.052 135.536 430.295C136.071 432.039 136.41 433.843 136.835 435.62C136.893 435.855 136.944 436.093 137.02 436.424ZM144.277 454.313C145.557 454.238 146.877 454.116 148.198 454.101C148.884 454.093 149.222 453.867 149.486 453.221C150.003 451.953 150.593 450.709 151.247 449.507C151.251 449.501 151.254 449.494 151.257 449.488C151.822 448.46 153.4 448.897 153.372 450.07C153.342 451.387 152.828 452.669 152.519 453.991C153.123 454.089 153.649 454.159 154.162 454.258C154.808 454.382 155.474 454.117 155.823 453.559C157.239 451.297 158.136 448.855 158.597 446.234C158.827 444.927 158.543 443.819 157.445 443.027C156.305 442.205 155.062 442.232 153.932 442.978C152.967 443.614 152.116 444.424 151.228 445.173C150.944 445.413 150.722 445.727 150.439 445.969C149.932 446.402 149.351 446.589 148.703 446.309C148.023 446.015 147.659 445.476 147.676 444.74C147.694 443.95 147.814 443.163 147.818 442.374C147.824 441.006 147.888 439.625 147.722 438.274C147.451 436.073 146.193 435.15 143.999 435.47C143.28 435.575 142.503 435.825 141.928 436.247C141 436.928 140.16 437.756 139.392 438.618C138.76 439.328 138.296 440.185 137.741 440.965C137.281 441.612 136.681 442.055 135.843 441.921C134.953 441.78 134.493 441.136 134.269 440.331C134.114 439.773 134.031 439.191 133.952 438.615C133.518 435.477 133.054 432.334 131.675 429.448C131.11 428.265 130.358 427.114 129.468 426.156C127.155 423.666 124.254 422.956 121.553 424.109C118.458 425.43 116.921 427.893 116.558 431.17C116.177 434.606 117.206 437.752 118.539 440.836C118.753 441.332 118.994 441.82 119.157 442.332C119.366 442.987 119.158 443.571 118.671 444.036C118.17 444.515 117.552 444.602 116.93 444.356C116.47 444.174 116.063 443.864 115.614 443.649C114.792 443.255 113.986 442.784 113.119 442.536C111.716 442.134 110.977 442.508 110.424 443.836C110.14 444.516 109.868 445.282 109.897 445.996C110.029 449.228 110.921 452.226 113.008 454.777C113.204 455.016 113.526 455.319 113.784 455.314C115.331 455.281 116.877 455.167 118.603 455.07C118.158 454.316 117.832 453.791 117.534 453.251C116.926 452.151 116.91 451.358 117.467 450.976C117.951 450.644 118.748 450.88 119.549 451.695C120.365 452.525 121.104 453.432 121.914 454.268C122.184 454.547 122.571 454.9 122.905 454.9C124.932 454.904 126.959 454.816 129.1 454.756C128.98 454.43 128.897 454.207 128.817 453.982C127.772 451.045 126.703 448.116 125.702 445.164C125.495 444.554 125.432 443.848 125.494 443.205C125.577 442.345 126.303 442.088 126.908 442.691C127.371 443.152 127.772 443.716 128.059 444.304C129.008 446.247 129.91 448.213 130.797 450.186C131.457 451.656 132.066 453.148 132.698 454.631C135.456 454.533 138.107 454.439 140.789 454.343C141.104 452.709 141.37 451.115 141.735 449.543C141.89 448.873 142.151 448.18 142.544 447.625C142.975 447.016 143.624 447.136 143.886 447.844C144.112 448.456 144.24 449.132 144.264 449.786C144.314 451.233 144.277 452.685 144.277 454.313Z" fill="#595A5C"/>
<path d="M228.561 425.416C229.809 424.021 230.851 422.655 232.095 421.507C234.903 418.917 238.268 417.705 242.082 418.234C246.811 418.89 250.009 422.602 250.323 427.519C250.544 430.977 249.761 434.213 248.229 437.29C245.792 442.187 242.266 446.208 238.089 449.668C236.265 451.179 234.365 452.624 232.365 453.888C230.616 454.993 228.686 455.814 226.823 456.735C225.883 457.2 224.939 457.009 224.063 456.545C222.547 455.742 221.204 454.724 220.04 453.437C218.336 451.555 216.453 449.831 214.809 447.902C211.11 443.559 208.045 438.816 206.384 433.294C205.648 430.846 205.282 428.332 205.697 425.769C206.67 419.759 211.179 416.27 216.428 416.451C219.541 416.559 222.201 417.935 224.474 420.039C226.135 421.576 227.488 423.363 228.561 425.416ZM247.346 428.55C247.3 428.077 247.275 427.365 247.154 426.67C246.628 423.623 244.084 421.382 240.983 421.294C238.508 421.224 236.303 422.024 234.474 423.704C232.676 425.355 231.248 427.287 230.288 429.552C230.046 430.123 229.741 430.676 229.398 431.193C229.037 431.737 228.521 432.115 227.818 431.968C227.182 431.835 226.846 431.363 226.69 430.758C226.597 430.396 226.53 430.028 226.441 429.665C225.437 425.535 223.031 422.487 219.253 420.576C217.827 419.855 216.279 419.567 214.645 419.914C210.178 420.861 208.675 425.046 208.905 428.418C209.1 431.279 209.966 433.949 211.249 436.515C214.164 442.346 218.306 447.226 223.131 451.5C225.555 453.648 226.039 453.656 228.818 452.154C231.689 450.603 234.27 448.629 236.736 446.507C240.335 443.41 243.419 439.891 245.565 435.61C246.647 433.457 247.3 431.203 247.346 428.55Z" fill="#595A5C"/>
<path d="M16.896 200.23C16.814 199.546 16.751 199.024 16.69 198.502C16.175 194.109 16.882 190.027 19.841 186.561C22.673 183.244 28.403 181.674 32.527 183.039C33.94 183.507 35.121 184.342 36.175 185.375C40.044 189.168 42.099 193.869 42.925 199.138C43.671 203.899 43.447 208.687 43.003 213.461C42.81 215.529 42.526 217.595 42.136 219.634C41.905 220.842 41.496 222.047 40.971 223.161C40.4 224.373 39.256 225.121 38.031 225.533C36.464 226.06 34.843 226.513 33.21 226.737C29.253 227.279 25.282 227.732 21.268 227.368C16.979 226.979 12.779 226.206 8.77703 224.572C6.39903 223.601 4.26503 222.239 2.57803 220.267C-0.0309746 217.217 -0.644975 213.757 0.669025 209.996C2.35103 205.181 5.88703 202.309 10.626 200.766C12.616 200.117 14.647 199.777 16.896 200.23ZM40.225 205.666C40.096 201.196 39.748 198.531 38.824 195.671C37.85 192.656 36.408 189.922 34.124 187.68C33.217 186.79 32.226 186.034 30.922 185.868C26.528 185.31 21.546 186.987 20.065 192.82C19.852 193.66 19.745 194.54 19.703 195.408C19.589 197.765 19.909 200.06 20.908 202.225C21.24 202.946 21.196 203.615 20.624 204.178C20.085 204.709 19.437 204.712 18.77 204.421C18.579 204.338 18.386 204.26 18.202 204.164C16.457 203.248 14.628 203.119 12.746 203.612C8.87102 204.627 5.67503 206.53 4.00503 210.388C2.59703 213.64 3.24103 216.606 5.86203 218.991C7.39603 220.387 9.19602 221.323 11.142 221.998C15.145 223.385 19.283 224.16 23.501 224.186C26.57 224.205 29.646 223.869 32.708 223.579C34.143 223.443 35.572 223.117 36.967 222.742C38.382 222.362 39.012 221.266 39.129 219.853C39.239 218.526 39.344 217.198 39.445 215.87C39.707 212.469 39.966 209.068 40.225 205.666Z" fill="#595A5C"/>
<path d="M385.864 48.7034C386.382 46.8134 387.142 45.2124 388.288 43.7984C392.793 38.2384 400.974 38.1734 405.155 43.6984C406.599 45.6054 407.263 47.8504 407.563 50.1804C408.181 54.9774 407.571 59.6354 405.843 64.1594C403.738 69.6724 400.998 74.8354 397.527 79.6134C396.749 80.6834 395.734 80.9594 394.477 80.8774C391.413 80.6784 388.518 79.7614 385.612 78.8844C381.178 77.5474 377.132 75.4114 373.485 72.5944C369.535 69.5434 366.53 65.7674 365.586 60.6994C364.838 56.6874 365.83 53.0824 368.512 50.0154C370.144 48.1494 372.054 46.5774 374.519 45.9264C378.256 44.9404 381.688 45.6904 384.814 47.9264C384.983 48.0474 385.138 48.1874 385.304 48.3124C385.434 48.4104 385.57 48.4984 385.864 48.7034ZM404.766 53.6244C404.885 51.1564 404.638 48.8564 403.707 46.6644C402.451 43.7094 399.111 41.8474 395.976 42.4414C392.141 43.1684 389.791 45.5494 388.868 49.2774C388.511 50.7174 388.487 52.2414 388.319 53.7274C388.183 54.9264 387.691 55.6144 386.912 55.6714C386.198 55.7244 385.739 55.2894 385.331 54.1734C385.317 54.1344 385.3 54.0964 385.286 54.0574C384.044 50.5904 381.065 48.4674 377.377 48.5754C373.539 48.6874 371.115 50.9984 369.395 54.1434C368.508 55.7664 368.176 57.5644 368.448 59.4604C369.082 63.8704 371.575 67.1404 374.943 69.7544C378.516 72.5284 382.52 74.5724 386.88 75.8604C388.555 76.3554 390.231 76.8514 391.921 77.2884C392.679 77.4844 393.474 77.5424 394.253 77.6534C394.801 77.7314 395.173 77.5204 395.501 77.0464C397.658 73.9294 399.743 70.7764 401.304 67.3004C403.278 62.9054 404.952 58.4434 404.766 53.6244Z" fill="#595A5C"/>
<path d="M186.543 338.596C185.958 341.414 185.39 344.14 184.826 346.867C183.254 354.472 182.397 362.157 182.256 369.922C182.191 373.503 182.113 377.085 182.062 380.666C181.993 385.517 182.708 390.295 183.431 395.072C183.611 396.263 183.797 397.464 183.832 398.664C183.887 400.528 182.974 401.737 181.172 402.26C180.338 402.502 179.457 402.727 178.6 402.718C176.104 402.694 173.602 402.631 171.115 402.429C168.457 402.213 166.616 400.727 165.707 398.241C164.996 396.294 164.404 394.297 163.863 392.294C162.048 385.573 160.528 378.781 160.199 371.808C159.834 364.071 159.64 356.326 159.461 348.582C159.357 344.085 159.432 339.585 159.425 335.086C159.425 334.84 159.405 334.593 159.388 334.22C156.43 333.562 153.479 332.906 150.479 332.239C150.275 332.572 150.083 332.837 149.939 333.126C146.314 340.418 143.92 348.088 142.78 356.157C141.733 363.565 141.316 371.015 141.895 378.461C142.278 383.386 143.227 388.268 143.93 393.167C144.131 394.566 144.479 395.954 144.553 397.359C144.689 399.932 143.325 401.574 140.813 401.998C138.377 402.409 135.936 402.303 133.472 402.134C130.431 401.925 128.653 400.108 127.262 397.746C124.495 393.048 122.715 387.934 121.224 382.721C118.841 374.389 117.139 365.901 115.471 357.404C113.877 349.279 112.099 341.187 110.635 333.039C109.539 326.94 108.729 320.785 107.943 314.636C107.199 308.815 106.597 302.974 106.033 297.132C105.434 290.916 104.916 284.691 104.433 278.465C103.847 270.91 103.279 263.352 102.814 255.789C102.572 251.841 102.596 247.877 102.45 243.922C102.307 240.052 102.053 236.185 101.934 232.315C101.72 225.391 102.088 218.486 102.997 211.622C103.379 208.739 104.045 205.893 104.579 203.03C104.638 202.711 104.683 202.389 104.769 201.852C103.976 202.105 103.302 202.262 102.676 202.53C96.657 205.107 91.734 208.966 88.336 214.667C84.715 220.741 82.417 227.257 81.9 234.311C81.506 239.685 81.934 245.036 82.895 250.355C83.882 255.819 85.264 261.164 87.131 266.39C87.578 267.641 87.84 268.957 88.252 270.223C88.381 270.62 88.642 271.06 88.974 271.293C93.849 274.72 96.66 279.322 97.344 285.291C98.244 293.135 94.955 299.052 89 303.701C85.322 306.573 81.014 308.132 76.422 308.891C74.826 309.155 73.689 308.232 73.71 306.626C73.722 305.675 73.88 304.721 74.028 303.776C74.467 300.974 74.123 298.318 72.764 295.79C71.341 293.144 70.206 290.371 69.382 287.476C67.888 282.228 69.252 277.672 72.869 273.762C73.747 272.813 75.001 272.199 76.12 271.492C76.674 271.143 77.316 270.934 77.995 270.628C77.878 270.271 77.806 269.957 77.676 269.67C74.296 262.193 71.853 254.411 70.591 246.314C68.448 232.565 70.07 219.407 77.404 207.286C81.105 201.169 85.686 195.924 92.104 192.487C97.237 189.739 102.647 188.166 108.511 188.476C109.313 188.518 109.485 188.057 109.744 187.53C111.977 182.978 114.697 178.77 118.278 175.135C125.339 167.969 133.621 162.834 143.182 159.659C151.633 156.853 160.258 154.957 169.088 153.874C176.003 153.025 182.924 152.432 189.895 152.752C194.221 152.95 198.555 153.09 202.866 153.471C211.725 154.254 220.393 156.015 228.862 158.784C237.323 161.55 245.432 165.086 253.176 169.468C253.604 169.71 254.044 169.932 254.78 170.323C252.528 159.588 250.974 149.053 252.719 138.275C252.515 138.293 252.388 138.268 252.304 138.317C245.991 142.016 239.824 141.505 233.842 137.578C232.282 136.554 230.881 135.283 229.435 134.091C227.535 132.526 225.634 130.957 223.382 129.92C222.444 129.488 221.438 129.189 220.44 128.911C220.019 128.793 219.529 128.818 219.089 128.89C217.282 129.189 215.948 127.963 216.274 126.162C216.419 125.358 216.73 124.551 217.119 123.828C219.398 119.595 222.885 116.627 227.197 114.655C233.232 111.895 239.497 111.657 245.876 113.285C246.441 113.429 247 113.592 247.565 113.737C252.517 115.014 255.535 118.324 257.281 122.973C257.338 123.125 257.387 123.28 257.492 123.588C257.754 123.274 257.95 123.043 258.141 122.807C259.133 121.576 260.095 120.319 261.123 119.118C261.997 118.097 263.101 117.378 264.29 116.727C266.362 115.592 268.351 114.307 270.504 113.008C270.137 112.455 269.757 111.876 269.37 111.302C266.944 107.706 264.609 104.055 263.159 99.9323C262.79 98.8813 262.543 97.7704 262.387 96.6664C262.195 95.3024 262.467 93.9424 263.38 92.9004C265.455 90.5324 267.728 88.3783 271 87.7983C272.015 87.6183 273.068 87.5633 274.1 87.5873C276.039 87.6333 277.368 88.6804 278.224 90.3704C279.255 92.4044 279.661 94.6203 280.056 96.8343C280.817 101.099 280.581 105.383 280.261 109.667C280.24 109.952 280.228 110.237 280.215 110.474C285.073 110.394 289.889 110.157 294.696 110.28C299.507 110.403 304.308 110.884 309.185 111.214C309.195 111.174 309.261 111.02 309.267 110.863C309.417 106.494 309.47 102.118 309.746 97.7573C309.868 95.8253 310.289 93.8774 310.838 92.0144C311.758 88.8954 314.137 87.5013 317.363 87.9333C318.683 88.1103 320.004 88.2743 321.323 88.4523C324.551 88.8883 326.633 91.1623 326.823 94.4233C326.924 96.1533 326.62 97.8233 326.159 99.4763C324.843 104.189 322.933 108.661 320.678 112.993C320.489 113.356 320.297 113.716 320.042 114.199C324.106 115.877 327.668 118.206 330.612 121.362C330.76 121.292 330.866 121.277 330.898 121.221C334.04 115.695 339.078 112.888 345.078 111.786C350.51 110.788 355.798 111.66 360.708 114.264C365.134 116.612 368.142 120.218 369.744 124.978C369.863 125.332 369.972 125.697 370.019 126.065C370.177 127.298 369.444 128.188 368.213 128.265C367.841 128.288 367.464 128.25 367.091 128.217C364.719 128.009 362.957 128.956 361.52 130.849C357.929 135.579 353.263 138.533 347.24 139.042C345.792 139.164 344.328 139.175 342.875 139.122C342.145 139.095 341.407 138.86 340.703 138.628C339.879 138.356 339.088 137.985 337.989 137.538C340.028 146.314 340.697 154.968 339.84 163.845C340.233 164.011 340.638 164.191 341.05 164.355C349.545 167.72 356.112 173.283 360.37 181.426C362.189 184.906 363.204 188.622 363.092 192.58C363.028 194.826 362.991 197.088 362.695 199.309C362.209 202.952 360.443 206.024 357.754 208.478C356.04 210.041 354.121 211.388 352.235 212.749C351.608 213.201 351.215 213.551 351.309 214.417C351.467 215.882 350.868 217.186 350.131 218.421C348.431 221.269 345.958 223.25 343.046 224.74C338.785 226.92 334.226 227.947 329.478 228.235C329.067 228.26 328.657 228.292 328.151 228.327C328.047 229.346 327.924 230.325 327.852 231.308C327.293 238.91 326.377 246.47 325.162 253.995C324.658 257.115 324.274 260.266 323.559 263.339C322.08 269.701 320.421 276.021 318.828 282.356C317.228 288.716 314.659 294.715 312.218 300.783C309.43 307.715 304.86 313.394 300.427 319.215C297.641 322.874 294.564 326.255 291.036 329.212C290.599 329.578 290.449 329.929 290.643 330.504C293.091 337.785 294.641 345.292 296.011 352.826C297.553 361.302 298.968 369.806 300.205 378.331C300.939 383.392 301.251 388.516 301.685 393.617C301.786 394.81 301.679 396.034 301.546 397.231C301.316 399.298 300.24 400.534 298.208 400.898C295.917 401.309 293.597 401.571 291.284 401.846C290.76 401.908 290.193 401.821 289.677 401.686C288.604 401.405 287.906 400.814 287.67 399.593C286.466 393.34 285.252 387.088 283.914 380.862C282.401 373.821 280.675 366.829 278.616 359.924C278.557 359.726 278.487 359.531 278.259 359.315C278.131 360.257 277.973 361.197 277.88 362.142C277.365 367.362 276.807 372.58 276.382 377.807C276.098 381.293 276.08 384.799 275.819 388.287C275.571 391.605 275.195 394.915 274.811 398.221C274.574 400.262 273.426 401.624 271.37 401.983C269.286 402.347 267.173 402.548 265.074 402.831C263.291 403.071 261.186 401.327 260.805 399.64C260.512 398.342 260.226 397.039 260.01 395.727C258.833 388.576 257.94 381.393 257.4 374.161C256.808 366.23 256.113 358.306 255.396 350.385C255.126 347.402 254.696 344.433 254.28 341.465C254.093 340.129 253.832 339.945 252.475 340.004C251.311 340.054 250.153 340.273 248.99 340.291C244.703 340.358 240.411 340.517 236.13 340.375C227.387 340.085 218.652 339.57 209.898 339.736C202.348 339.879 194.83 339.347 187.324 338.594C187.127 338.578 186.921 338.596 186.543 338.596ZM303.222 310.383C302.364 308.644 300.893 307.903 299.287 307.586C297.254 307.185 295.176 306.975 293.107 306.809C290.163 306.572 287.197 306.571 284.265 306.245C281.285 305.914 278.669 304.65 276.642 302.359C272.627 297.822 271.834 291.531 274.654 286.168C276.264 283.107 278.416 280.445 281.203 278.387C292.056 270.371 303.735 269.182 316.139 274.295C316.51 274.448 316.88 274.601 317.248 274.753C319.748 268.902 325.326 233.432 324.548 228.31C321.541 228.228 318.507 228.242 315.488 228.036C312.436 227.828 309.398 227.401 306.419 227.076C306.03 228.551 305.725 230.106 305.201 231.583C304.674 233.068 303.999 234.512 303.268 235.911C300.723 240.784 297.251 244.81 292.304 247.379C288.929 249.132 285.338 249.934 281.547 249.201C277.42 248.402 274.398 245.964 272.161 242.493C271.305 241.164 270.509 239.792 269.733 238.414C268.41 236.066 266.551 234.251 264.256 232.883C262.826 232.03 261.334 231.282 259.897 230.443C256.989 228.745 254.445 226.625 252.422 223.907C248.257 218.31 248.884 211.923 252.237 207.128C254.886 203.34 258.413 200.624 262.851 199.174C263.474 198.97 264.094 198.759 264.789 198.526C264.685 198.259 264.636 198.061 264.538 197.891C260.534 190.891 258.068 183.297 255.958 175.571C255.765 174.863 255.424 174.393 254.801 174.057C253.152 173.167 251.519 172.246 249.867 171.361C243.101 167.734 236.109 164.627 228.795 162.268C228.383 162.135 227.955 162.05 227.506 161.936C227.448 162.213 227.395 162.333 227.404 162.449C227.623 165.461 227.348 168.447 226.796 171.4C225.714 177.192 223.513 182.496 219.587 186.966C216.525 190.451 212.779 192.681 208.01 192.829C206.263 192.883 204.512 192.945 202.766 192.895C197.21 192.736 192.371 194.5 188.242 198.205C187.096 199.234 185.993 200.312 184.892 201.389C182.867 203.369 180.94 205.458 178.826 207.336C173.744 211.851 167.825 214.679 161.047 215.479C153.699 216.347 146.695 214.922 140.026 211.834C133.125 208.638 127.685 203.667 123.338 197.507C120.076 192.884 118.467 187.693 118.697 181.991C118.725 181.309 118.805 180.63 118.861 179.949C118.77 179.884 118.679 179.818 118.588 179.753C118.437 179.999 118.317 180.273 118.129 180.486C115.421 183.548 113.399 187.035 111.871 190.801C109.295 197.149 107.451 203.712 106.363 210.48C106.175 211.65 106.056 212.831 105.901 214.04C107.405 214.13 108.737 214.133 110.049 214.3C116.052 215.067 121.736 216.923 127.172 219.532C136.506 224.013 144.24 230.344 149.682 239.272C152.863 244.49 154.876 250.057 153.818 256.25C152.291 265.189 147.783 272.016 139.218 275.744C138.951 275.86 138.671 275.952 138.414 276.087C136.021 277.347 133.553 278.486 131.258 279.905C126.645 282.758 124.498 287.075 124.666 292.426C124.74 294.777 125.216 297.14 125.737 299.446C126.691 303.666 127.855 307.835 128.204 312.176C128.502 315.884 128.231 319.501 126.819 322.975C124.491 328.702 120.404 332.288 114.198 333.272C114.083 333.29 113.979 333.372 113.833 333.442C113.852 333.731 113.84 334.024 113.894 334.303C114.822 339.04 115.72 343.783 116.703 348.509C118.311 356.244 119.901 363.985 121.643 371.69C122.642 376.107 123.926 380.46 125.082 384.841C125.247 385.468 125.441 385.932 126.29 385.976C128.949 386.114 131.6 386.417 134.259 386.562C135.948 386.654 137.647 386.579 139.423 386.579C139.385 386.211 139.353 385.89 139.318 385.57C139.044 383.004 138.629 380.444 138.522 377.871C138.246 371.289 138.416 364.715 139.153 358.157C140.225 348.624 142.838 339.56 147.198 331.009C150.035 325.444 152.952 319.919 155.729 314.325C160.439 304.84 164.123 294.92 167.961 285.067C168.685 283.207 169.474 281.368 170.33 279.566C170.94 278.282 171.807 277.915 172.687 278.359C173.574 278.806 173.712 279.612 173.161 280.969C172.456 282.704 171.738 284.435 171.077 286.187C167.566 295.498 164.069 304.819 159.757 313.797C157.432 318.637 154.874 323.364 152.426 328.145C152.225 328.537 152.057 328.946 151.872 329.351C154.358 330.348 168.128 333.03 169.174 332.821C169.266 330.787 169.132 328.762 169.49 326.829C170.354 322.166 172.66 318.353 176.858 315.904C179.492 314.368 182.412 314.001 185.409 313.98C186.862 313.97 188.335 313.963 189.763 313.735C193.126 313.199 196.213 311.82 199.256 310.348C201.89 309.075 204.613 308.068 207.501 307.525C213.136 306.465 218.27 307.357 222.659 311.298C224.512 312.962 225.981 314.907 227.088 317.134C228.597 320.168 229.641 323.373 230.568 326.617C231.515 329.929 232.016 333.288 231.36 336.732C231.341 336.831 231.432 336.951 231.491 337.113C233.49 337.202 235.482 337.353 237.475 337.369C242.766 337.412 248.058 337.342 253.347 337.431C255.814 337.473 256.681 338.093 257.122 340.475C257.478 342.398 257.865 344.325 258.054 346.268C258.756 353.521 259.35 360.784 260.045 368.038C260.684 374.71 261.39 381.375 262.096 388.041C262.234 389.343 262.506 390.631 262.734 392.034C266.076 391.783 269.257 391.545 272.518 391.3C272.575 390.848 272.656 390.443 272.673 390.036C272.969 382.963 273.129 375.882 273.941 368.839C274.427 364.621 274.89 360.401 275.35 356.18C275.814 351.918 276.402 347.663 276.666 343.388C276.856 340.317 277.821 337.687 279.916 335.499C281.988 333.335 284.126 331.231 286.291 329.159C289.6 325.991 293.007 322.924 296.28 319.72C299.064 316.992 301.081 313.663 303.222 310.383ZM303.481 204.544C305.091 205.775 306.639 207.03 308.258 208.183C316.623 214.138 325.937 216.614 336.126 215.391C343.028 214.562 349.178 211.784 354.523 207.327C358.218 204.246 359.955 200.249 359.742 195.431C359.678 193.977 359.549 192.526 359.469 191.073C359.279 187.621 358.521 184.334 356.666 181.366C350.339 171.241 341.086 166.038 329.283 165.31C322.68 164.903 316.134 165.576 309.686 167.057C305.289 168.067 300.972 169.347 297.177 171.895C292.844 174.803 288.88 178.174 285.112 181.78C284.662 182.211 284.224 182.698 283.687 182.979C283.31 183.176 282.632 183.256 282.348 183.043C282.057 182.825 281.972 182.178 282.002 181.733C282.027 181.352 282.303 180.962 282.537 180.626C283.976 178.56 285.669 176.748 287.743 175.287C289.238 174.234 290.699 173.122 292.095 171.942C294.205 170.157 296.375 168.454 298.95 167.421C301.494 166.4 304.074 165.431 306.707 164.675C311.279 163.363 315.98 162.693 320.72 162.308C325.298 161.936 329.868 161.828 334.42 162.616C335.138 162.74 335.861 162.832 336.645 162.948C336.763 162.233 336.926 161.665 336.938 161.094C336.974 159.308 336.972 157.52 336.948 155.734C336.894 151.858 336.591 148.008 335.975 144.171C335.093 138.674 333.689 133.368 331.293 128.307C329.707 124.956 327.471 122.22 324.402 120.258C322.243 118.878 319.924 117.674 317.542 116.733C313.491 115.133 309.132 114.865 304.858 114.28C303.93 114.153 302.993 114.091 302.138 114.007C302.057 115.776 302.069 117.398 301.892 118.999C301.374 123.684 299.612 127.942 297.136 131.902C294.01 136.902 289.577 139.999 283.669 140.875C282.152 141.1 280.616 141.335 279.156 141.786C276.495 142.61 274.635 144.302 273.818 147.087C273.351 148.678 272.738 150.245 272.022 151.742C270.293 155.353 267.665 158.124 263.975 159.784C261.61 160.848 259.179 161.65 256.433 161.015C256.512 161.652 256.554 162.144 256.637 162.629C257.032 164.925 257.41 167.224 257.846 169.512C258.445 172.658 258.83 175.876 259.78 178.915C261.055 182.997 262.622 187.008 264.343 190.927C269.681 203.083 278.388 212.036 290.37 217.794C296.291 220.639 302.489 222.681 308.875 224.152C311.26 224.702 313.688 225.329 316.111 225.398C320.726 225.528 325.355 225.361 329.971 225.165C333.615 225.011 337.136 224.145 340.489 222.676C343.372 221.412 345.852 219.641 347.522 216.901C347.852 216.36 348.081 215.758 348.469 214.949C348.002 215.11 347.845 215.149 347.702 215.216C339.805 218.925 331.576 219.642 323.064 218.02C315.023 216.487 308.118 212.743 302.112 207.282C301.249 206.497 300.599 206.117 299.424 206.553C297.913 207.114 296.314 207.097 294.773 206.514C294.054 206.242 293.442 205.821 293.144 205.063C292.76 204.085 293.33 203.257 294.367 203.324C294.737 203.348 295.097 203.487 295.466 203.552C297.743 203.959 299.815 203.545 301.402 201.776C303.103 199.882 302.829 198.842 301.829 197.296C301.523 196.823 301.276 196.254 301.203 195.702C301.087 194.828 301.794 194.296 302.645 194.551C302.994 194.656 303.33 194.859 303.624 195.08C305.827 196.737 306.451 199.481 305.15 202.001C304.735 202.805 304.156 203.527 303.481 204.544ZM224.168 160.932C223.931 160.82 223.822 160.754 223.705 160.716C223.428 160.626 223.148 160.545 222.868 160.467C214.659 158.194 206.336 156.598 197.802 156.265C193.973 156.115 190.143 155.873 186.314 155.869C180.436 155.862 174.597 156.474 168.766 157.226C160.146 158.337 151.72 160.209 143.515 163.091C136.283 165.631 129.592 169.074 124.109 174.556C123.685 174.98 123.27 175.521 123.109 176.081C120.955 183.555 121.66 190.63 126.467 196.949C133.276 205.899 142.177 211.31 153.488 212.496C160.922 213.275 167.702 211.546 173.839 207.284C176.594 205.371 178.899 202.964 181.249 200.597C183.359 198.472 185.49 196.344 187.801 194.448C191.769 191.194 196.42 189.66 201.557 189.635C203.223 189.627 204.891 189.62 206.557 189.656C210.989 189.75 214.545 187.98 217.384 184.64C219.431 182.232 220.932 179.511 222.047 176.566C223.953 171.534 224.511 166.322 224.168 160.932ZM113.201 330.183C116.751 329.652 119.673 328.343 121.743 325.517C123.707 322.836 124.857 319.839 125.011 316.494C125.146 313.568 124.931 310.663 124.315 307.803C123.616 304.551 122.809 301.321 122.091 298.073C121.458 295.211 121.183 292.316 121.561 289.391C122.297 283.693 125.323 279.489 130.199 276.641C132.851 275.092 135.636 273.751 138.429 272.463C142.381 270.64 145.446 267.925 147.622 264.146C151.435 257.525 151.877 250.787 148.51 243.864C147.063 240.889 145.262 238.128 143.126 235.622C134.086 225.012 122.35 219.399 108.76 217.304C107.752 217.148 106.718 217.158 105.59 217.084C105.444 218.604 105.255 219.959 105.195 221.321C105.052 224.562 104.829 227.809 104.896 231.049C104.994 235.792 105.317 240.531 105.544 245.271C105.792 250.468 105.991 255.668 106.298 260.861C106.657 266.927 107.072 272.99 107.534 279.049C108.016 285.356 108.474 291.667 109.141 297.956C110.018 306.229 111.072 314.484 112.086 322.743C112.384 325.169 112.807 327.582 113.201 330.183ZM266.49 201.241C264.906 201.851 263.337 202.396 261.817 203.053C258.884 204.32 256.501 206.31 254.609 208.869C252.88 211.207 252.18 213.844 252.466 216.75C252.733 219.46 254.111 221.603 255.886 223.536C258.088 225.934 260.799 227.644 263.684 229.076C267.874 231.155 271.16 234.127 273.378 238.299C274.192 239.831 275.2 241.297 276.327 242.616C278.371 245.007 281.015 246.285 284.221 246.274C287.088 246.264 289.736 245.493 292.14 243.951C298.081 240.142 301.316 234.475 303.11 227.836C303.142 227.716 303.157 227.591 303.171 227.467C303.323 226.118 303.261 225.996 301.975 225.609C297.985 224.408 294.069 223.002 290.293 221.237C280.826 216.814 272.803 210.647 266.982 201.837C266.849 201.635 266.675 201.462 266.49 201.241ZM172.391 333.497C172.695 333.574 172.889 333.641 173.088 333.67C176.094 334.11 179.096 334.578 182.108 334.977C190.871 336.136 199.675 336.672 208.515 336.698C214.22 336.715 219.925 336.823 225.631 336.887C226.412 336.896 227.193 336.888 228.003 336.888C228.424 335.385 228.514 333.953 228.353 332.491C227.813 327.587 226.158 323.021 224.1 318.587C222.954 316.119 221.181 314.149 218.958 312.579C216.467 310.819 213.666 310.186 210.675 310.383C207.828 310.57 205.09 311.281 202.469 312.41C200.749 313.152 199.064 313.975 197.337 314.698C194.133 316.039 190.84 317.047 187.326 317.134C185.664 317.176 183.989 317.114 182.344 317.302C179.983 317.572 177.79 318.388 176.118 320.17C174.29 322.118 173.043 324.391 172.497 327.041C172.06 329.158 172.291 331.266 172.391 333.497ZM255.248 148.802C255.402 150.881 255.632 153.869 255.837 156.858C255.885 157.552 256.191 157.973 256.886 158.004C257.793 158.045 258.736 158.186 259.607 158.008C264.217 157.067 267.455 154.321 269.454 150.124C270.167 148.627 270.695 147.035 271.23 145.46C272.137 142.786 273.892 140.888 276.369 139.611C278.243 138.645 280.24 138.1 282.333 137.901C287.223 137.436 291.132 135.231 293.951 131.21C295.752 128.64 297.159 125.843 298.05 122.827C298.794 120.309 299.343 117.743 299.002 115.081C298.833 113.761 298.83 113.732 297.489 113.664C291.992 113.389 286.501 113.447 281.018 113.994C274.255 114.669 268.323 117.113 263.359 121.878C260.697 124.433 258.899 127.425 257.776 130.9C255.986 136.426 255.408 142.12 255.248 148.802ZM305.026 307.385C305.432 306.679 305.769 306.11 306.09 305.532C310.615 297.362 313.901 288.709 316.151 279.657C316.624 277.755 317.05 277.893 314.801 276.915C306.238 273.19 297.658 273.182 289.143 277.053C284.583 279.126 280.738 282.105 277.988 286.383C276.491 288.711 275.821 291.221 276.05 293.98C276.406 298.279 279.541 302.036 283.726 302.92C285.463 303.287 287.271 303.347 289.052 303.467C291.751 303.649 294.466 303.65 297.153 303.933C300.045 304.236 302.791 305.057 305.026 307.385ZM179.222 388.436C178.483 379.887 178.852 371.505 179.379 363.122C179.908 354.723 181.457 346.492 183.479 338.331C176.436 337.193 169.532 336.078 162.574 334.954C162.555 335.273 162.529 335.477 162.532 335.68C162.697 345.627 162.845 355.574 163.04 365.521C163.179 372.615 164.127 379.614 165.665 386.537C165.988 387.993 166.088 388.121 167.518 388.169C170.845 388.279 174.173 388.352 177.5 388.436C178.03 388.448 178.56 388.436 179.222 388.436ZM298.315 389.298C296.582 369.797 293.218 350.696 288.168 331.738C285.365 334.232 282.624 336.65 280.562 339.717C280.252 340.178 280.092 340.795 280.029 341.358C279.763 343.758 279.662 346.18 279.303 348.564C278.962 350.829 279.391 352.925 280.075 355.048C283.462 365.56 286.016 376.289 288.346 387.075C288.624 388.363 288.886 389.654 289.156 390.942C292.225 390.392 295.158 389.865 298.315 389.298ZM107.969 191.771C107.586 191.741 107.383 191.704 107.181 191.712C106.224 191.751 105.255 191.723 104.312 191.861C97.051 192.928 90.859 196.099 85.836 201.459C80.519 207.133 76.953 213.833 74.823 221.257C72.133 230.632 72.4 240.107 74.435 249.567C75.91 256.427 78.332 262.989 80.909 269.495C80.95 269.599 81.069 269.672 81.049 269.65C82.326 269.65 83.479 269.65 84.794 269.65C84.621 268.99 84.515 268.47 84.348 267.97C83.727 266.115 83.031 264.283 82.463 262.413C80.511 255.977 79.267 249.393 78.795 242.691C78.576 239.585 78.533 236.433 78.787 233.333C79.429 225.51 82.007 218.295 86.33 211.745C90.877 204.856 97.124 200.298 105.201 198.337C105.507 198.263 105.898 197.977 105.996 197.7C106.676 195.785 107.288 193.847 107.969 191.771ZM77.07 305.657C77.435 305.64 77.647 305.665 77.841 305.617C81.439 304.731 84.849 303.369 87.691 300.961C92.509 296.878 95.4 291.884 94.176 285.296C93.35 280.85 91.523 276.981 87.295 274.703C83.754 272.795 79.421 272.405 76.08 275.193C72.888 277.856 71.332 282.44 72.459 286.439C73.242 289.216 74.392 291.84 75.753 294.378C77.256 297.179 77.836 300.147 77.363 303.307C77.254 304.04 77.179 304.777 77.07 305.657ZM254.705 129.408C255.354 128.563 255.069 127.757 254.958 127.002C254.268 122.338 252.039 118.894 247.423 117.163C241.942 115.108 236.439 114.998 230.894 116.69C226.747 117.956 223.361 120.365 220.848 123.931C220.461 124.481 220.183 125.107 219.791 125.814C222.591 125.971 224.867 126.972 226.99 128.326C228.286 129.152 229.521 130.08 230.741 131.017C232.391 132.285 233.939 133.693 235.64 134.886C239.522 137.609 243.771 138.389 248.329 136.877C250.547 136.142 252.354 134.814 253.86 132.73C252.214 131.575 250.769 130.356 249.145 129.463C245.802 127.626 242.473 125.733 238.816 124.532C238.484 124.423 238.112 123.912 238.074 123.554C238.015 123.008 238.448 122.637 239.036 122.644C239.488 122.649 239.953 122.687 240.389 122.8C245.525 124.143 250.535 125.773 254.705 129.408ZM366.116 124.619C364.834 121.69 362.845 119.382 360.151 117.731C354.358 114.181 344.622 112.914 337.252 118.773C335.525 120.146 334.097 121.743 333.401 123.881C333.279 124.254 333.185 124.728 333.31 125.071C333.574 125.797 333.99 126.468 334.353 127.18C335.251 126.462 335.985 125.693 336.873 125.202C338.8 124.137 340.76 123.107 342.788 122.258C345.786 121.003 349.003 120.808 352.211 120.673C352.294 120.67 352.39 120.652 352.458 120.685C352.735 120.818 353.003 120.968 353.275 121.112C353.115 121.382 353.02 121.779 352.784 121.901C351.829 122.394 350.852 122.862 349.843 123.227C348.279 123.792 346.643 124.172 345.108 124.8C342.878 125.713 340.697 126.75 338.523 127.792C337.485 128.289 336.717 129.109 336.241 130.185C336.02 130.686 335.998 131.118 336.359 131.577C338.044 133.711 340.185 135.122 342.848 135.708C344.711 136.118 346.58 136.009 348.43 135.641C352.619 134.808 356.2 132.984 358.621 129.294C359.672 127.693 361.045 126.416 362.809 125.657C363.825 125.222 364.925 124.985 366.116 124.619ZM316.785 113.13C316.945 112.933 317.04 112.846 317.098 112.739C319.657 108.008 321.813 103.107 323.203 97.8994C323.479 96.8654 323.633 95.7744 323.658 94.7054C323.686 93.4914 323.286 92.3403 322.06 91.8273C320.085 91.0023 318.053 90.4513 315.873 91.0213C314.904 91.2743 314.201 91.7853 313.935 92.7563C313.618 93.9163 313.182 95.0853 313.123 96.2673C312.876 101.166 312.749 106.07 312.589 110.973C312.577 111.334 312.652 111.697 312.689 112.08C314.094 112.44 315.417 112.779 316.785 113.13ZM277.33 104.006C277.24 102.49 277.241 100.107 276.918 97.7683C276.647 95.8103 276.034 93.8933 275.501 91.9793C275.271 91.1533 274.65 90.6884 273.734 90.6634C271.449 90.6024 269.299 91.1203 267.56 92.6033C265.373 94.4683 265.061 96.1143 265.861 98.2433C266.386 99.6413 266.934 101.052 267.672 102.343C269.137 104.904 270.732 107.391 272.292 109.896C272.726 110.593 273.099 111.579 273.737 111.829C274.38 112.081 275.312 111.546 276.128 111.426C276.792 111.328 277.031 110.999 277.051 110.348C277.107 108.519 277.208 106.692 277.33 104.006ZM139.977 389.981C135.521 389.741 131.195 389.508 126.587 389.26C127.385 391.035 128.031 392.644 128.825 394.176C129.354 395.197 130.016 396.176 130.766 397.046C131.199 397.549 131.891 397.886 132.53 398.137C133.176 398.391 133.895 398.521 134.592 398.573C136.323 398.702 138.065 398.869 139.794 398.805C141.222 398.752 141.42 398.375 141.266 396.967C141.19 396.267 141.064 395.571 140.933 394.878C140.617 393.216 140.285 391.557 139.977 389.981ZM166.955 391.678C167.471 393.804 167.969 395.942 168.531 398.063C168.612 398.369 168.958 398.713 169.262 398.832C169.951 399.101 170.681 399.332 171.412 399.411C172.651 399.546 173.904 399.607 175.15 399.6C176.645 399.591 178.144 399.526 179.633 399.395C180.64 399.307 180.853 399.068 180.726 398.127C180.432 395.954 180.05 393.792 179.712 391.678C175.428 391.678 171.284 391.678 166.955 391.678ZM289.822 394.035C290.107 395.45 290.364 396.709 290.611 397.969C290.713 398.49 290.973 398.798 291.546 398.723C293.521 398.463 295.497 398.204 297.472 397.941C298.053 397.863 298.391 397.485 298.407 396.938C298.446 395.581 298.42 394.222 298.42 392.708C295.516 393.156 292.744 393.584 289.822 394.035ZM272.292 394.71C269.115 394.962 266.271 395.187 263.221 395.429C263.474 396.807 263.673 398.104 263.98 399.375C264.036 399.608 264.552 399.917 264.817 399.884C266.829 399.634 268.836 399.332 270.834 398.98C271.134 398.927 271.541 398.575 271.613 398.289C271.888 397.183 272.049 396.047 272.292 394.71Z" fill="#595A5C"/>
<path d="M182.338 252.31C182.394 249.101 183.061 245.928 184.188 242.866C186.512 236.552 189.974 230.987 195.133 226.557C198.388 223.763 202.143 221.95 206.232 220.791C208.363 220.187 210.529 220.432 212.678 220.764C213.5 220.891 214.311 221.088 215.132 221.226C219.199 221.911 222.533 223.905 225.281 226.926C227.383 229.236 229.548 231.497 231.522 233.914C234.837 237.974 238.967 240.762 243.907 242.424C245.721 243.034 247.513 243.711 249.31 244.373C252.636 245.598 255.363 247.655 257.605 250.381C259.003 252.082 259.921 254.016 260.529 256.125C261.363 259.019 261.826 261.984 262.009 264.971C262.102 266.482 261.987 268.092 261.558 269.535C259.365 276.916 255.035 282.614 247.884 285.818C241.704 288.587 235.758 287.768 229.964 284.432C226.53 282.455 223.258 280.251 219.953 278.082C216.146 275.583 211.865 274.453 207.363 274.024C202.223 273.535 197.248 272.42 192.711 269.824C189.755 268.133 187.029 266.152 185.34 263.092C183.505 259.768 182.395 256.216 182.338 252.31ZM259.103 264.243C258.971 263.004 258.938 261.745 258.685 260.531C258.184 258.13 257.665 255.713 256.357 253.584C254.431 250.451 251.657 248.335 248.248 247.037C246.615 246.415 244.962 245.841 243.3 245.299C237.745 243.488 233.019 240.485 229.248 235.955C227.119 233.398 224.814 230.981 222.515 228.572C220.184 226.129 217.423 224.462 213.964 224.093C211.358 223.815 208.771 223.35 206.144 223.912C202.801 224.628 199.945 226.284 197.34 228.423C192.232 232.618 188.936 238.046 186.755 244.196C185.474 247.809 184.888 251.523 185.56 255.368C186.384 260.083 188.667 263.84 192.72 266.454C196.605 268.96 200.891 270.316 205.452 270.931C208.376 271.325 211.317 271.691 214.188 272.344C218.315 273.283 221.856 275.504 225.257 277.95C228 279.923 230.858 281.705 233.964 283.065C237.426 284.58 240.947 284.703 244.58 283.728C252.459 281.614 259.402 272.109 259.103 264.243Z" fill="#595A5C"/>
<path d="M350.051 187.697C350.457 189.369 350.458 191.13 349.907 192.76C349.592 193.692 349.118 194.556 348.387 195.328C347.166 196.615 345.713 197.305 343.907 196.851C342.004 196.373 340.771 195.128 340.297 193.257C339.683 190.832 340.042 188.452 341.11 186.218C341.832 184.709 343.025 183.622 344.806 183.699C346.994 183.793 348.919 184.536 349.774 186.784C349.887 187.08 349.976 187.386 350.051 187.697ZM347.409 189.852C347.173 189.077 347.11 188.179 346.666 187.551C345.638 186.097 344.61 186.336 343.939 187.717C343.254 189.126 343.135 190.667 343.344 192.212C343.437 192.899 343.786 193.472 344.51 193.683C345.304 193.915 345.882 193.527 346.339 192.938C347.029 192.05 347.246 191.006 347.409 189.852Z" fill="#595A5C"/>
<path d="M328.622 190.239C328.556 193.099 328.115 194.98 326.929 196.621C324.807 199.558 321.314 199.34 319.545 196.176C317.969 193.358 318.565 188.679 320.794 186.372C322.216 184.901 323.957 184.821 325.738 185.849C327.821 187.051 328.699 188.776 328.622 190.239ZM325.672 191.024C325.479 190.314 325.375 189.563 325.073 188.902C324.59 187.842 323.865 187.789 323.058 188.653C321.854 189.943 321.462 193.126 322.318 194.664C322.927 195.757 323.662 195.829 324.411 194.814C325.23 193.707 325.52 192.418 325.672 191.024Z" fill="#595A5C"/>
<path d="M326.138 149.711C326.406 150.618 326.438 151.589 326.187 152.501C326.149 152.64 326.103 152.774 326.046 152.903C325.454 154.232 323.949 154.406 323.004 153.305C322.156 152.316 321.945 150.057 322.594 148.924C323.294 147.703 325.166 147.737 325.876 149.056C325.988 149.262 326.071 149.483 326.138 149.711Z" fill="#595A5C"/>
<path d="M295.503 154.586C295.333 153.832 295.346 153.042 295.58 152.305C295.642 152.111 295.716 151.926 295.817 151.755C296.589 150.445 298.369 150.499 299.04 151.855C299.63 153.047 299.734 154.326 299.207 155.587C298.918 156.279 298.404 156.746 297.614 156.795C296.771 156.847 296.135 156.441 295.832 155.698C295.687 155.345 295.59 154.971 295.503 154.586Z" fill="#595A5C"/>
</svg>
