<svg width="110" height="111" viewBox="0 0 110 111" fill="none" xmlns="http://www.w3.org/2000/svg">
<circle cx="55" cy="55.5" r="55" fill="#008000" fill-opacity="0.1"/>
<path d="M69 59.5C71.612 59.5 73.836 61.17 74.66 63.5H55V62.5H41C40.2545 62.5 39.5358 62.7775 38.9838 63.2785C38.4318 63.7795 38.0861 64.468 38.014 65.21L38 65.5V66.93C38 72.278 44.778 76.5 55 76.5V75.5H69.942C66.362 77.986 61.122 79.5 55 79.5C43.42 79.5 35 74.366 35 66.93V65.5C35 63.9087 35.6321 62.3826 36.7574 61.2574C37.8826 60.1321 39.4087 59.5 41 59.5H69ZM75 65.5V66.93C75 67.464 74.954 67.988 74.86 68.5H55V65.5H75ZM74.258 70.5H55V73.5H72.268C73.122 72.578 73.794 71.572 74.258 70.5ZM66.908 42C67.0321 42.9961 67.0321 44.0038 66.908 45H55V42H66.908ZM66.482 40C66.1587 38.9402 65.6895 37.9305 65.088 37H55V40H66.48H66.482ZM55 31.5C58.306 31.5 61.3 32.838 63.47 35H55V34.5C52.6131 34.5 50.3239 35.4482 48.636 37.136C46.9482 38.8239 46 41.113 46 43.5C46 45.8869 46.9482 48.1761 48.636 49.864C50.3239 51.5518 52.6131 52.5 55 52.5V52H63.47C62.0728 53.3924 60.3539 54.4189 58.4654 54.9886C56.5769 55.5583 54.5771 55.6537 52.6429 55.2663C50.7088 54.879 48.9 54.0208 47.3765 52.7677C45.8531 51.5147 44.6621 49.9054 43.9088 48.0823C43.1556 46.2593 42.8634 44.2786 43.058 42.3157C43.2527 40.3528 43.9283 38.4681 45.0249 36.8285C46.1216 35.1889 47.6055 33.8449 49.3454 32.9155C51.0853 31.9861 53.0274 31.4999 55 31.5ZM65.088 50H55V47H66.48C66.156 48.072 65.684 49.08 65.088 50Z" fill="#F86F03"/>
</svg>
