<svg width="32" height="32" viewBox="0 0 32 32" fill="none" xmlns="http://www.w3.org/2000/svg">
<rect width="32" height="32" rx="5" fill="white"/>
<path d="M23.3043 4.00001L20.3828 5.17034L18.6087 7.03288V9.37145C18.5322 9.36798 18.107 9.35493 17.5652 9.34234V8.84241C17.5652 8.52311 17.3565 8.31025 17.0435 8.31025C16.7304 8.31025 16.5217 8.52311 16.5217 8.84241V9.33195C16.0088 9.3308 15.4887 9.3397 14.9565 9.36106V8.84242C14.9565 8.52312 14.7478 8.31026 14.4348 8.31026C14.1217 8.31026 13.913 8.52312 13.913 8.84242V9.41199C13.1435 9.45464 12.4497 9.50923 11.8261 9.57308V8.84241C11.8261 8.52311 11.6174 8.31025 11.3043 8.31025C10.9913 8.31025 10.7826 8.52311 10.7826 8.84241V9.68845C10.0559 9.7799 9.47906 9.86758 9.18988 9.91295H9.18784L9.18478 9.91399C8.9986 9.94512 8.87111 9.97437 8.69565 10.0055V9.05548C8.69565 8.73619 8.48695 8.52333 8.17391 8.52333C7.86086 8.52333 7.65217 8.73619 7.65217 9.05548V10.2019C6.43555 10.4434 5.57439 10.6521 5.04348 10.7995V9.69365C5.04348 9.37436 4.83478 9.1615 4.52174 9.1615C4.2087 9.1615 4 9.37436 4 9.69365V16.0265C4.36522 15.7604 4.67826 15.4941 5.04348 15.2813V11.8992C5.4765 11.7722 6.35431 11.5441 7.65217 11.2818V13.5258C7.65217 13.6322 7.70414 13.6854 7.70414 13.7919C8.01719 13.6322 8.33043 13.5252 8.69565 13.4187V11.0874C8.92677 11.0457 9.10193 11.0059 9.35394 10.9638C9.62701 10.9209 10.1474 10.8431 10.7826 10.7611V12.6735V12.7806H10.8346C11.1476 12.6742 11.4609 12.5679 11.8261 12.4615V10.6426C12.4437 10.578 13.1401 10.5221 13.913 10.4784V11.9824C14.2261 11.9291 14.5913 11.8755 14.9565 11.8223V10.4254C15.4825 10.4036 16.0048 10.3951 16.5217 10.3963V11.6092C16.6783 11.6092 16.8352 11.5562 16.9395 11.5562H17.5652V10.4067C18.096 10.4191 18.5583 10.4336 18.6087 10.4358V11.5032C19.287 11.5032 19.913 11.503 20.6957 11.5562V8.8424C20.6957 8.52311 20.9043 8.31025 21.2174 8.31025H25.3913C25.7043 8.31025 25.913 8.52311 25.913 8.8424V11.9293C26.5913 11.9825 27.3217 12.089 28 12.1954V7.03287L26.2259 5.22333L23.3043 4.00001ZM23.3043 6.18164C23.6174 6.18164 23.8261 6.3945 23.8261 6.71379C23.8261 7.03309 23.6174 7.24595 23.3043 7.24595C22.9913 7.24595 22.7826 7.03309 22.7826 6.71379C22.7826 6.3945 22.9913 6.18164 23.3043 6.18164ZM18.2959 12.6735C16.1046 13.7378 13.9654 14.9626 12.035 16.4526C9.2176 18.5281 6.86977 20.9221 4.2089 24.3279L4 24.541V28H8.64368L8.69565 27.8399C9.0087 26.9885 11.2518 22.519 14.017 19.1664C16.417 16.2396 18.7654 14.1112 20.6437 12.7276C19.7567 12.6743 19.0263 12.6735 18.2959 12.6735ZM22.4178 12.8336C20.5917 13.8979 17.7221 16.2924 14.8526 19.8046C12.2439 23.0507 10.2085 26.9889 9.7911 28H15.4783L15.5302 27.8399C16.5215 24.8066 17.8261 21.9332 19.3913 19.2724C21.0087 16.6117 22.7828 14.3764 24.035 12.9396C23.5132 12.8864 22.9917 12.8868 22.4178 12.8336ZM15.5822 12.8866C13.6518 13.1527 12.1387 13.5788 11.1474 13.8449C9.53003 14.3238 8.27785 14.6959 6.71264 15.5474C5.87785 16.0263 5.04327 16.5582 4.31284 17.1968L4 17.4629V22.8915C6.50435 19.805 8.74742 17.6226 11.4083 15.6004C12.7126 14.5893 14.1213 13.738 15.5822 12.8866ZM25.3393 12.9936C24.1393 14.3772 22.0518 16.7713 20.2779 19.8046C18.7648 22.3589 17.5128 25.1264 16.5737 28H21.6872L21.7391 27.894C22.2609 25.4993 22.9387 23.1572 23.6692 20.8689C24.504 18.2614 25.548 15.6538 26.6437 13.1527C26.2263 13.0994 25.8089 13.0469 25.3393 12.9936ZM27.6872 13.3127C26.5393 15.8671 25.4957 18.5272 24.6087 21.188C23.8783 23.423 23.2524 25.7117 22.7306 28H28V13.3127L27.6872 13.3127Z" fill="#F86F03"/>
</svg>
