<svg width="692" height="126" viewBox="0 0 692 126" fill="none" xmlns="http://www.w3.org/2000/svg">
<path d="M93.0347 5.3616e-05L78.9548 6.14371L70.4047 15.9212V28.1976C70.0362 28.1794 67.9868 28.1108 65.3758 28.0448V25.4204C65.3758 23.7442 64.37 22.6268 62.8613 22.6268C61.3526 22.6268 60.3469 23.7442 60.3469 25.4204V27.9902C57.8749 27.9842 55.3682 28.0309 52.8035 28.143V25.4204C52.8035 23.7443 51.7977 22.6268 50.2891 22.6268C48.7804 22.6268 47.7746 23.7443 47.7746 25.4204V28.4104C44.0657 28.6343 40.7223 28.9209 37.7168 29.256V25.4203C37.7168 23.7442 36.711 22.6268 35.2023 22.6268C33.6937 22.6268 32.6879 23.7442 32.6879 25.4203V29.8617C29.1855 30.3417 26.4056 30.802 25.0119 31.0402H25.0021L24.9874 31.0457C24.0901 31.2091 23.4757 31.3626 22.6301 31.5258V26.5389C22.6301 24.8628 21.6243 23.7453 20.1156 23.7453C18.6069 23.7453 17.6011 24.8628 17.6011 26.5389V32.5571C11.7378 33.8248 7.58754 34.9204 5.0289 35.6944V29.889C5.0289 28.2129 4.02312 27.0954 2.51445 27.0954C1.00578 27.0954 0 28.2129 0 29.889V63.1335C1.76012 61.7367 3.26879 60.3388 5.0289 59.2214V41.467C7.1158 40.8006 11.3463 39.6029 17.6012 38.226V50.0059C17.6012 50.5646 17.8516 50.844 17.8516 51.4027C19.3603 50.5646 20.87 50.0027 22.6301 49.4439V37.2057C23.7439 36.9866 24.5881 36.7777 25.8026 36.5565C27.1186 36.3315 29.6268 35.9228 32.6879 35.4926V45.5319V46.0939H32.9383C34.447 45.5353 35.9567 44.9776 37.7168 44.4189V34.8706C40.6933 34.5315 44.0497 34.2379 47.7746 34.0085V41.9036C49.2833 41.6242 51.0434 41.3427 52.8035 41.0633V33.7302C55.3384 33.6157 57.8554 33.5711 60.3469 33.5774V39.9448C61.1012 39.9448 61.8575 39.6664 62.3604 39.6664H65.3758V33.6319C67.9337 33.6972 70.162 33.7733 70.4047 33.7847V39.3882C73.6735 39.3882 76.6908 39.3871 80.4625 39.6664V25.4203C80.4625 23.7442 81.4683 22.6268 82.9769 22.6268H103.093C104.601 22.6268 105.607 23.7442 105.607 25.4203V41.6252C108.876 41.9046 112.396 42.4632 115.665 43.022V15.9211L107.115 6.42192L93.0347 5.3616e-05ZM93.0347 11.4526C94.5434 11.4526 95.5492 12.57 95.5492 14.2461C95.5492 15.9223 94.5434 17.0397 93.0347 17.0397C91.5261 17.0397 90.5203 15.9223 90.5203 14.2461C90.5203 12.57 91.5261 11.4526 93.0347 11.4526ZM68.897 45.5319C58.3363 51.119 48.027 57.5485 38.7236 65.3705C25.1455 76.2654 13.8305 88.8332 1.00676 106.712L0 107.831V125.989H22.3796L22.6301 125.148C24.1387 120.679 34.9489 97.216 48.2755 79.6166C59.842 64.252 71.16 53.0788 80.212 45.8155C75.9375 45.5361 72.4172 45.5319 68.897 45.5319ZM88.7621 46.3721C79.9615 51.9592 66.1321 64.5291 52.3026 82.9667C39.7303 100.007 29.921 120.681 27.9094 125.989H55.318L55.5684 125.148C60.3459 109.225 66.633 94.1409 74.1763 80.1731C81.9712 66.2053 90.5213 54.4712 96.556 46.9286C94.0415 46.6492 91.528 46.6515 88.7621 46.3721ZM55.8189 46.6504C46.5154 48.0472 39.2235 50.2842 34.446 51.681C26.6512 54.1952 20.6165 56.1485 13.0732 60.6182C9.05007 63.1324 5.02792 65.9249 1.50769 69.2772L0 70.6739V99.1716C12.0694 82.9689 22.8796 71.512 35.7033 60.8965C41.9894 55.5887 48.7784 51.1201 55.8189 46.6504ZM102.842 47.2124C97.0589 54.4756 86.9981 67.0434 78.449 82.9667C71.1571 96.3758 65.1233 110.903 60.5973 125.989H85.2409L85.4914 125.432C88.0059 112.861 91.2727 100.566 94.7929 88.5538C98.8161 74.8654 103.848 61.1769 109.128 48.0472C107.117 47.7678 105.105 47.4918 102.842 47.2124ZM114.157 48.8874C108.625 62.2965 103.595 76.2611 99.3209 90.2289C95.8006 101.962 92.7843 113.976 90.2698 125.989H115.665V48.8874L114.157 48.8874Z" fill="white" fill-opacity="0.85"/>
<path d="M167.233 111.399C170.08 111.399 172.413 111.063 174.232 110.391C176.09 109.679 177.573 108.75 178.68 107.603C179.787 106.457 180.558 105.152 180.993 103.689C181.428 102.187 181.645 100.645 181.645 99.063C181.645 97.3233 181.388 95.7615 180.874 94.3777C180.36 92.9938 179.53 91.8274 178.383 90.8785C177.237 89.89 175.734 89.1388 173.876 88.6247C172.057 88.1107 169.803 87.8537 167.115 87.8537H151.991V111.399H167.233ZM151.991 52.506V75.7548H163.675C166.166 75.7548 168.38 75.5571 170.317 75.1617C172.255 74.7268 173.876 74.0547 175.181 73.1453C176.485 72.2359 177.474 71.0497 178.146 69.5868C178.858 68.0843 179.214 66.2853 179.214 64.1897C179.214 62.0546 178.917 60.2358 178.324 58.7333C177.77 57.2309 176.901 56.0249 175.714 55.1155C174.528 54.2061 173.026 53.5537 171.207 53.1583C169.388 52.7234 167.233 52.506 164.742 52.506H151.991ZM164.742 38.9836C170.515 38.9836 175.438 39.5372 179.51 40.6443C183.622 41.7118 186.963 43.2539 189.533 45.2703C192.143 47.2473 194.041 49.6592 195.227 52.506C196.413 55.3528 197.006 58.5356 197.006 62.0546C197.006 64.0315 196.71 65.9294 196.117 67.7482C195.563 69.567 194.673 71.2869 193.448 72.908C192.261 74.4896 190.719 75.9328 188.822 77.2375C186.924 78.5423 184.67 79.6494 182.06 80.5588C187.912 81.9427 192.242 84.1964 195.049 87.32C197.856 90.4435 199.26 94.4963 199.26 99.4782C199.26 103.116 198.548 106.496 197.125 109.62C195.741 112.743 193.705 115.452 191.016 117.745C188.327 120.038 185.006 121.837 181.052 123.142C177.138 124.407 172.63 125.04 167.53 125.04H134.199V38.9836H164.742Z" fill="white" fill-opacity="0.85"/>
<path d="M226.399 63.8932V125.04H210.03V63.8932H226.399ZM228.356 46.5158C228.356 47.8997 228.079 49.1847 227.526 50.3709C226.972 51.557 226.221 52.6048 225.272 53.5142C224.363 54.4236 223.275 55.1353 222.01 55.6493C220.784 56.1633 219.46 56.4203 218.037 56.4203C216.692 56.4203 215.407 56.1633 214.181 55.6493C212.995 55.1353 211.948 54.4236 211.038 53.5142C210.129 52.6048 209.397 51.557 208.844 50.3709C208.33 49.1847 208.073 47.8997 208.073 46.5158C208.073 45.1319 208.33 43.8469 208.844 42.6608C209.397 41.4351 210.129 40.3675 211.038 39.4581C211.948 38.5487 212.995 37.837 214.181 37.323C215.407 36.809 216.692 36.552 218.037 36.552C219.46 36.552 220.784 36.809 222.01 37.323C223.275 37.837 224.363 38.5487 225.272 39.4581C226.221 40.3675 226.972 41.4351 227.526 42.6608C228.079 43.8469 228.356 45.1319 228.356 46.5158Z" fill="white" fill-opacity="0.85"/>
<path d="M278.385 76.4665C277.95 77.1387 277.495 77.6329 277.021 77.9492C276.586 78.226 275.973 78.3644 275.182 78.3644C274.391 78.3644 273.581 78.1667 272.75 77.7713C271.92 77.3759 270.991 76.9608 269.963 76.5258C268.935 76.0514 267.749 75.6164 266.404 75.2211C265.1 74.8257 263.577 74.628 261.838 74.628C259.188 74.628 257.132 75.1815 255.67 76.2886C254.207 77.3562 253.475 78.7796 253.475 80.5588C253.475 81.7845 253.89 82.8125 254.721 83.6428C255.551 84.4732 256.638 85.2046 257.983 85.8373C259.366 86.4303 260.928 87.0037 262.668 87.5572C264.408 88.0712 266.187 88.6445 268.006 89.2771C269.864 89.9098 271.663 90.6412 273.403 91.4715C275.142 92.3019 276.684 93.3496 278.029 94.6149C279.413 95.8406 280.52 97.3431 281.35 99.1223C282.18 100.862 282.596 102.977 282.596 105.468C282.596 108.434 282.042 111.182 280.935 113.712C279.867 116.203 278.286 118.358 276.19 120.177C274.095 121.996 271.485 123.419 268.362 124.447C265.238 125.475 261.64 125.989 257.567 125.989C255.472 125.989 253.396 125.791 251.34 125.396C249.284 125.04 247.327 124.526 245.468 123.854C243.61 123.142 241.87 122.332 240.249 121.422C238.628 120.513 237.225 119.524 236.038 118.457L239.834 112.348C240.269 111.636 240.803 111.083 241.436 110.687C242.108 110.292 242.958 110.094 243.986 110.094C244.974 110.094 245.884 110.351 246.714 110.865C247.544 111.34 248.473 111.874 249.501 112.467C250.529 113.02 251.735 113.554 253.119 114.068C254.543 114.543 256.302 114.78 258.398 114.78C259.979 114.78 261.343 114.602 262.49 114.246C263.637 113.89 264.566 113.416 265.277 112.823C265.989 112.19 266.503 111.498 266.82 110.747C267.175 109.956 267.353 109.145 267.353 108.315C267.353 106.971 266.918 105.883 266.048 105.053C265.218 104.183 264.111 103.432 262.727 102.799C261.383 102.167 259.821 101.594 258.042 101.079C256.263 100.565 254.444 99.9922 252.586 99.3596C250.767 98.7269 248.968 97.9757 247.188 97.1058C245.449 96.236 243.887 95.1487 242.503 93.8439C241.159 92.4996 240.052 90.8587 239.182 88.9213C238.352 86.9839 237.936 84.6313 237.936 81.8636C237.936 79.3331 238.431 76.941 239.419 74.6873C240.408 72.394 241.89 70.3775 243.867 68.6378C245.844 66.8981 248.296 65.5143 251.221 64.4862C254.187 63.4582 257.607 62.9442 261.482 62.9442C265.831 62.9442 269.785 63.6559 273.343 65.0793C276.902 66.5027 279.828 68.3611 282.121 70.6543L278.385 76.4665Z" fill="white" fill-opacity="0.85"/>
<path d="M324.809 99.4782C320.816 99.6759 317.494 100.032 314.845 100.546C312.196 101.02 310.081 101.653 308.499 102.444C306.957 103.234 305.85 104.144 305.178 105.172C304.546 106.16 304.229 107.248 304.229 108.434C304.229 110.806 304.882 112.486 306.186 113.475C307.531 114.463 309.389 114.958 311.761 114.958C314.49 114.958 316.842 114.483 318.819 113.534C320.836 112.546 322.832 111.024 324.809 108.968V99.4782ZM291.478 72.3743C295.076 69.1321 299.05 66.7202 303.399 65.1386C307.748 63.5175 312.453 62.707 317.514 62.707C321.152 62.707 324.394 63.3001 327.241 64.4862C330.127 65.6724 332.559 67.333 334.536 69.4681C336.552 71.5637 338.094 74.0744 339.162 77.0003C340.229 79.9262 340.763 83.1288 340.763 86.6083V125.04H333.29C331.748 125.04 330.562 124.823 329.732 124.388C328.941 123.953 328.289 123.043 327.775 121.66L326.47 117.745C324.928 119.089 323.425 120.276 321.962 121.304C320.539 122.332 319.056 123.202 317.514 123.913C315.972 124.585 314.312 125.099 312.532 125.455C310.793 125.811 308.835 125.989 306.661 125.989C303.972 125.989 301.521 125.633 299.307 124.921C297.092 124.21 295.175 123.162 293.554 121.778C291.972 120.355 290.746 118.595 289.877 116.5C289.007 114.404 288.572 111.992 288.572 109.264C288.572 107.01 289.145 104.757 290.292 102.503C291.438 100.249 293.396 98.2129 296.163 96.3941C298.971 94.5358 302.687 93.0136 307.313 91.8274C311.979 90.6017 317.811 89.9098 324.809 89.7516V86.6083C324.809 82.773 323.999 79.9657 322.378 78.1865C320.756 76.3677 318.424 75.4583 315.379 75.4583C313.125 75.4583 311.247 75.7351 309.745 76.2886C308.242 76.8026 306.918 77.3759 305.771 78.0085C304.664 78.6016 303.616 79.1749 302.628 79.7285C301.639 80.2425 300.493 80.4995 299.188 80.4995C298.041 80.4995 297.073 80.2227 296.282 79.6692C295.531 79.0761 294.898 78.3842 294.384 77.5934L291.478 72.3743Z" fill="white" fill-opacity="0.85"/>
<path d="M373.727 125.989C370.96 125.989 368.508 125.594 366.373 124.803C364.238 123.973 362.439 122.806 360.976 121.304C359.513 119.801 358.406 117.982 357.655 115.847C356.904 113.712 356.528 111.3 356.528 108.612V75.6362H350.775C349.905 75.6362 349.154 75.3594 348.521 74.8059C347.928 74.2523 347.632 73.422 347.632 72.3149V65.9096L357.418 64.1304L360.739 48.2951C361.174 46.5158 362.38 45.6262 364.357 45.6262H372.897V64.249H388.673V75.6362H372.897V107.544C372.897 109.244 373.293 110.589 374.083 111.577C374.914 112.566 376.08 113.06 377.582 113.06C378.373 113.06 379.045 112.981 379.599 112.823C380.153 112.625 380.627 112.427 381.022 112.229C381.418 111.992 381.774 111.795 382.09 111.636C382.446 111.439 382.802 111.34 383.158 111.34C383.632 111.34 384.027 111.458 384.344 111.696C384.66 111.893 384.976 112.249 385.293 112.763L390.215 120.592C387.961 122.371 385.411 123.716 382.564 124.625C379.718 125.534 376.772 125.989 373.727 125.989Z" fill="white" fill-opacity="0.85"/>
<path d="M435.651 87.2607C435.651 85.5605 435.414 83.9394 434.939 82.3974C434.504 80.8554 433.793 79.4913 432.804 78.3051C431.816 77.1189 430.57 76.1898 429.068 75.5176C427.565 74.8059 425.766 74.45 423.671 74.45C419.756 74.45 416.692 75.5571 414.478 77.7713C412.264 79.9855 410.82 83.1486 410.148 87.2607H435.651ZM409.911 96.9872C410.425 102.72 412.046 106.911 414.774 109.561C417.542 112.21 421.14 113.534 425.569 113.534C427.822 113.534 429.76 113.277 431.381 112.763C433.041 112.21 434.485 111.617 435.71 110.984C436.975 110.312 438.102 109.719 439.091 109.205C440.119 108.651 441.127 108.374 442.116 108.374C443.381 108.374 444.369 108.849 445.081 109.798L449.826 115.729C448.086 117.745 446.168 119.426 444.073 120.77C441.977 122.075 439.803 123.122 437.549 123.913C435.295 124.664 433.022 125.178 430.728 125.455C428.435 125.772 426.221 125.93 424.086 125.93C419.816 125.93 415.822 125.238 412.106 123.854C408.428 122.431 405.206 120.355 402.438 117.627C399.71 114.859 397.555 111.439 395.974 107.366C394.392 103.294 393.601 98.5688 393.601 93.1915C393.601 89.0399 394.273 85.1256 395.618 81.4484C397.002 77.7713 398.979 74.5687 401.549 71.8405C404.119 69.1123 407.242 66.9574 410.919 65.3759C414.596 63.7548 418.748 62.9442 423.374 62.9442C427.288 62.9442 430.887 63.5768 434.168 64.8421C437.49 66.0678 440.336 67.8668 442.709 70.2392C445.121 72.6115 446.979 75.5374 448.284 79.0168C449.628 82.4567 450.3 86.3908 450.3 90.8192C450.3 92.0449 450.241 93.0531 450.122 93.8439C450.004 94.6347 449.806 95.2673 449.529 95.7417C449.252 96.2162 448.877 96.5523 448.402 96.75C447.928 96.9081 447.315 96.9872 446.564 96.9872H409.911Z" fill="white" fill-opacity="0.85"/>
<path d="M475.818 73.9756C477.756 70.4962 479.99 67.7482 482.52 65.7317C485.051 63.7152 488.016 62.707 491.417 62.707C494.184 62.707 496.438 63.3594 498.178 64.6642L497.11 76.7631C496.912 77.5539 496.596 78.1074 496.161 78.4237C495.766 78.7005 495.212 78.8389 494.501 78.8389C493.868 78.8389 492.959 78.7598 491.772 78.6016C490.586 78.4039 489.479 78.3051 488.451 78.3051C486.949 78.3051 485.604 78.5226 484.418 78.9575C483.272 79.3924 482.244 80.0053 481.334 80.796C480.425 81.5868 479.594 82.5555 478.843 83.7022C478.131 84.8488 477.459 86.1536 476.827 87.6165V125.04H460.458V63.8932H470.125C471.785 63.8932 472.932 64.1897 473.565 64.7828C474.197 65.3759 474.652 66.4039 474.929 67.8668L475.818 73.9756Z" fill="white" fill-opacity="0.85"/>
<path d="M520.353 71.0102C521.579 69.824 522.844 68.7367 524.149 67.7482C525.494 66.7597 526.897 65.9096 528.36 65.1979C529.863 64.4862 531.464 63.9327 533.164 63.5373C534.904 63.1419 536.782 62.9442 538.798 62.9442C542.12 62.9442 545.065 63.5175 547.635 64.6642C550.205 65.8108 552.36 67.4121 554.1 69.4681C555.879 71.5242 557.204 73.9756 558.074 76.8224C558.983 79.6692 559.438 82.7928 559.438 86.1931V125.04H543.128V86.1931C543.128 82.7928 542.337 80.1634 540.756 78.3051C539.174 76.4072 536.841 75.4583 533.757 75.4583C531.464 75.4583 529.309 75.9525 527.293 76.941C525.276 77.9295 523.358 79.3133 521.54 81.0926V125.04H505.171V63.8932H515.253C517.309 63.8932 518.673 64.8421 519.345 66.74L520.353 71.0102Z" fill="white" fill-opacity="0.85"/>
<path d="M604.439 99.4782C600.445 99.6759 597.124 100.032 594.475 100.546C591.826 101.02 589.711 101.653 588.129 102.444C586.587 103.234 585.48 104.144 584.808 105.172C584.175 106.16 583.859 107.248 583.859 108.434C583.859 110.806 584.511 112.486 585.816 113.475C587.16 114.463 589.019 114.958 591.391 114.958C594.119 114.958 596.472 114.483 598.449 113.534C600.465 112.546 602.462 111.024 604.439 108.968V99.4782ZM571.108 72.3743C574.706 69.1321 578.679 66.7202 583.029 65.1386C587.378 63.5175 592.083 62.707 597.144 62.707C600.781 62.707 604.024 63.3001 606.87 64.4862C609.757 65.6724 612.188 67.333 614.165 69.4681C616.182 71.5637 617.724 74.0744 618.791 77.0003C619.859 79.9262 620.393 83.1288 620.393 86.6083V125.04H612.92C611.378 125.04 610.192 124.823 609.361 124.388C608.571 123.953 607.918 123.043 607.404 121.66L606.099 117.745C604.557 119.089 603.055 120.276 601.592 121.304C600.169 122.332 598.686 123.202 597.144 123.913C595.602 124.585 593.941 125.099 592.162 125.455C590.422 125.811 588.465 125.989 586.29 125.989C583.602 125.989 581.15 125.633 578.936 124.921C576.722 124.21 574.804 123.162 573.183 121.778C571.602 120.355 570.376 118.595 569.506 116.5C568.636 114.404 568.201 111.992 568.201 109.264C568.201 107.01 568.775 104.757 569.921 102.503C571.068 100.249 573.025 98.2129 575.793 96.3941C578.6 94.5358 582.317 93.0136 586.943 91.8274C591.608 90.6017 597.44 89.9098 604.439 89.7516V86.6083C604.439 82.773 603.628 79.9657 602.007 78.1865C600.386 76.3677 598.053 75.4583 595.009 75.4583C592.755 75.4583 590.877 75.7351 589.375 76.2886C587.872 76.8026 586.547 77.3759 585.401 78.0085C584.294 78.6016 583.246 79.1749 582.257 79.7285C581.269 80.2425 580.122 80.4995 578.818 80.4995C577.671 80.4995 576.702 80.2227 575.911 79.6692C575.16 79.0761 574.528 78.3842 574.014 77.5934L571.108 72.3743Z" fill="white" fill-opacity="0.85"/>
<path d="M649.539 36.6113V86.7862H652.267C653.295 86.7862 654.106 86.6478 654.699 86.371C655.292 86.0547 655.885 85.5012 656.478 84.7104L670 66.6807C670.673 65.7713 671.424 65.0793 672.254 64.6049C673.124 64.1304 674.211 63.8932 675.516 63.8932H690.462L672.907 86.1931C671.523 88.0514 669.921 89.5144 668.103 90.5819C669.012 91.2145 669.803 91.946 670.475 92.7763C671.147 93.6066 671.799 94.5358 672.432 95.5638L691.352 125.04H676.643C675.378 125.04 674.29 124.842 673.381 124.447C672.472 124.012 671.72 123.261 671.127 122.193L657.368 99.7154C656.814 98.7665 656.241 98.1536 655.648 97.8768C655.055 97.6001 654.165 97.4617 652.979 97.4617H649.539V125.04H633.17V36.6113H649.539Z" fill="white" fill-opacity="0.85"/>
</svg>
