<svg width="256" height="256" viewBox="0 0 256 256" fill="none" xmlns="http://www.w3.org/2000/svg">
<rect width="256" height="256" rx="25" fill="white"/>
<path d="M191.913 23.0001L166.35 33.2404L150.826 49.5377V70.0002C150.157 69.9699 146.436 69.8556 141.696 69.7455V65.3711C141.696 62.5773 139.87 60.7147 137.13 60.7147C134.391 60.7147 132.565 62.5773 132.565 65.3711V69.6545C128.077 69.6445 123.526 69.7224 118.87 69.9093V65.3711C118.87 62.5773 117.043 60.7148 114.304 60.7148C111.565 60.7148 109.739 62.5773 109.739 65.3711V70.3549C103.005 70.7281 96.9351 71.2058 91.4783 71.7645V65.3711C91.4783 62.5772 89.6522 60.7147 86.913 60.7147C84.1739 60.7147 82.3478 62.5772 82.3478 65.3711V72.7739C75.9889 73.5741 70.9418 74.3413 68.4114 74.7383H68.3936L68.3668 74.7474C66.7378 75.0198 65.6222 75.2758 64.0869 75.5478V67.2355C64.0869 64.4417 62.2608 62.5791 59.5217 62.5791C56.7826 62.5791 54.9565 64.4417 54.9565 67.2355V77.2666C44.3111 79.3797 36.7759 81.2058 32.1304 82.496V72.8195C32.1304 70.0257 30.3043 68.1631 27.5652 68.1631C24.8261 68.1631 23 70.0257 23 72.8195V128.232C26.1957 125.904 28.9348 123.574 32.1304 121.711V92.1179C35.9194 91.0072 43.6002 89.0107 54.9565 86.7158V106.351C54.9565 107.282 55.4113 107.748 55.4113 108.679C58.1504 107.282 60.8913 106.345 64.087 105.414V85.0151C66.1092 84.6499 67.6419 84.3017 69.847 83.9329C72.2363 83.5579 76.7901 82.8768 82.3478 82.1596V98.8934V99.8301H82.8026C85.5417 98.8989 88.2826 97.9694 91.4783 97.0381V81.1228C96.8824 80.5577 102.976 80.0683 109.739 79.6859V92.8456C112.478 92.3799 115.674 91.9107 118.87 91.445V79.222C123.472 79.0312 128.042 78.9568 132.565 78.9673V89.5806C133.935 89.5806 135.308 89.1167 136.221 89.1167H141.696V79.0582C146.34 79.1671 150.385 79.2938 150.826 79.3129V88.6529C156.761 88.6529 162.239 88.6511 169.087 89.1166V65.371C169.087 62.5772 170.913 60.7147 173.652 60.7147H210.174C212.913 60.7147 214.739 62.5772 214.739 65.371V92.3815C220.674 92.8472 227.065 93.7784 233 94.7097V49.5376L217.476 33.7042L191.913 23.0001ZM191.913 42.0893C194.652 42.0893 196.478 43.9519 196.478 46.7457C196.478 49.5395 194.652 51.402 191.913 51.402C189.174 51.402 187.348 49.5395 187.348 46.7457C187.348 43.9519 189.174 42.0893 191.913 42.0893ZM148.089 98.8933C128.915 108.206 110.197 118.923 93.3061 131.961C68.654 150.12 48.1105 171.069 24.8279 200.869L23 202.734V233H63.6322L64.087 231.599C66.8261 224.149 86.453 185.041 110.649 155.706C131.649 130.096 152.197 111.473 168.632 99.3661C160.871 98.9004 154.48 98.8933 148.089 98.8933ZM184.156 100.294C168.177 109.606 143.069 130.558 117.96 161.29C95.134 189.694 77.3243 224.153 73.6721 233H123.435L123.89 231.599C132.563 205.058 143.978 179.916 157.674 156.634C171.826 133.352 187.35 113.794 198.306 101.221C193.741 100.756 189.177 100.759 184.156 100.294ZM124.344 100.758C107.453 103.086 94.2138 106.815 85.5399 109.143C71.3877 113.333 60.4312 116.589 46.7356 124.039C39.4312 128.23 32.1286 132.885 25.7373 138.472L23 140.8V188.301C44.913 161.294 64.5399 142.197 87.8225 124.503C99.2356 115.656 111.562 108.208 124.344 100.758ZM209.719 101.694C199.219 113.801 180.953 134.749 165.431 161.29C152.192 183.641 141.237 207.856 133.02 233H177.763L178.217 232.072C182.783 211.119 188.714 190.625 195.105 170.603C202.41 147.787 211.545 124.971 221.132 103.086C217.48 102.62 213.828 102.16 209.719 101.694ZM230.263 104.486C220.219 126.837 211.087 150.113 203.326 173.395C196.935 192.952 191.458 212.978 186.893 233H233V104.486L230.263 104.486Z" fill="#F86F03"/>
</svg>
