<svg width="194" height="38" viewBox="0 0 194 38" fill="none" xmlns="http://www.w3.org/2000/svg">
<path d="M25.0986 1.44643e-05L21.3001 1.65743L18.9935 4.29516V7.60705C18.8941 7.60213 18.3412 7.58364 17.6368 7.56582V6.85781C17.6368 6.40563 17.3655 6.10418 16.9585 6.10418C16.5515 6.10418 16.2802 6.40563 16.2802 6.85781V7.5511C15.6133 7.54948 14.937 7.56208 14.2451 7.59233V6.85783C14.2451 6.40564 13.9738 6.10419 13.5668 6.10419C13.1598 6.10419 12.8885 6.40564 12.8885 6.85783V7.66445C11.8879 7.72486 10.9859 7.80217 10.1751 7.89259V6.85781C10.1751 6.40563 9.90377 6.10417 9.49676 6.10417C9.08976 6.10417 8.81842 6.40563 8.81842 6.85781V8.05598C7.87356 8.18549 7.12362 8.30966 6.74763 8.37392H6.74498L6.741 8.37539C6.49894 8.41948 6.33318 8.4609 6.10506 8.50493V7.15957C6.10506 6.70739 5.83372 6.40593 5.42671 6.40593C5.01971 6.40593 4.74837 6.70739 4.74837 7.15957V8.78313C3.16659 9.12514 2.04694 9.42069 1.35668 9.6295V8.06335C1.35668 7.61117 1.08534 7.30971 0.67834 7.30971C0.271336 7.30971 0 7.61117 0 8.06335V17.0319C0.474838 16.6551 0.881842 16.278 1.35668 15.9765V11.1868C1.91968 11.0071 3.06096 10.6839 4.74838 10.3125V13.4904C4.74838 13.6411 4.81595 13.7165 4.81595 13.8672C5.22295 13.6412 5.63022 13.4895 6.10506 13.3388V10.0372C6.40554 9.97812 6.63329 9.92176 6.96094 9.86207C7.31597 9.80138 7.99261 9.69114 8.81842 9.57506V12.2834V12.4351H8.88599C9.29299 12.2843 9.70026 12.1339 10.1751 11.9832V9.40726C10.9781 9.31579 11.8836 9.23658 12.8885 9.1747V11.3046C13.2955 11.2292 13.7703 11.1533 14.2451 11.0779V9.09961C14.929 9.06873 15.608 9.05668 16.2802 9.05839V10.7762C16.4837 10.7762 16.6877 10.7011 16.8234 10.7011H17.6368V9.0731C18.3269 9.09072 18.928 9.11123 18.9935 9.11432V10.626C19.8754 10.626 20.6894 10.6257 21.7069 10.7011V6.85781C21.7069 6.40563 21.9782 6.10417 22.3852 6.10417H27.8119C28.219 6.10417 28.4903 6.40563 28.4903 6.85781V11.2295C29.3721 11.3049 30.3218 11.4556 31.2036 11.6063V4.29514L28.897 1.73248L25.0986 1.44643e-05ZM25.0986 3.08963C25.5056 3.08963 25.7769 3.39109 25.7769 3.84327C25.7769 4.29545 25.5056 4.59691 25.0986 4.59691C24.6916 4.59691 24.4202 4.29545 24.4202 3.84327C24.4202 3.39109 24.6916 3.08963 25.0986 3.08963ZM18.5868 12.2834C15.7378 13.7907 12.9566 15.5252 10.4467 17.6354C6.78367 20.5746 3.73114 23.9651 0.271601 28.7884L0 29.0901V33.9888H6.03749L6.10506 33.7621C6.51206 32.5563 9.4284 26.2266 13.0236 21.4787C16.144 17.3337 19.1973 14.3194 21.6393 12.36C20.4861 12.2846 19.5365 12.2834 18.5868 12.2834ZM23.9459 12.5101C21.5717 14.0174 17.8409 17.4084 14.11 22.3825C10.7183 26.9797 8.07198 32.5569 7.52931 33.9888H14.9235L14.9911 33.7621C16.2799 29.4664 17.976 25.397 20.011 21.6288C22.1139 17.8606 24.4205 14.6951 26.0485 12.6602C25.3702 12.5849 24.6921 12.5855 23.9459 12.5101ZM15.0586 12.5852C12.5488 12.962 10.5816 13.5655 9.29273 13.9423C7.18988 14.6206 5.56186 15.1475 3.52684 16.3534C2.44149 17.0316 1.35642 17.785 0.406739 18.6893L0 19.0662V26.7542C3.25603 22.3831 6.17237 19.2923 9.6319 16.4284C11.3278 14.9965 13.1593 13.791 15.0586 12.5852ZM27.7444 12.7368C26.1842 14.6962 23.47 18.0867 21.1637 22.3825C19.1965 25.9999 17.5687 29.9191 16.3477 33.9888H22.996L23.0636 33.8386C23.7419 30.4473 24.6232 27.1304 25.5729 23.8897C26.6583 20.1969 28.0157 16.5041 29.4402 12.962C28.8976 12.8866 28.3549 12.8122 27.7444 12.7368ZM30.7969 13.1887C29.3046 16.8061 27.9476 20.5734 26.7944 24.3416C25.8448 27.5069 25.031 30.7481 24.3527 33.9888H31.2036V13.1887L30.7969 13.1887Z" fill="#F86F03"/>
<path d="M47.5477 27.32C48.3157 27.32 48.945 27.2293 49.4357 27.048C49.937 26.856 50.337 26.6053 50.6357 26.296C50.9343 25.9867 51.1423 25.6347 51.2597 25.24C51.377 24.8347 51.4357 24.4187 51.4357 23.992C51.4357 23.5227 51.3663 23.1013 51.2277 22.728C51.089 22.3547 50.865 22.04 50.5557 21.784C50.2463 21.5173 49.841 21.3147 49.3397 21.176C48.849 21.0373 48.241 20.968 47.5157 20.968H43.4357V27.32H47.5477ZM43.4357 11.432V17.704H46.5877C47.2597 17.704 47.857 17.6507 48.3797 17.544C48.9023 17.4267 49.3397 17.2453 49.6917 17C50.0437 16.7547 50.3103 16.4347 50.4917 16.04C50.6837 15.6347 50.7797 15.1493 50.7797 14.584C50.7797 14.008 50.6997 13.5173 50.5397 13.112C50.3903 12.7067 50.1557 12.3813 49.8357 12.136C49.5157 11.8907 49.1103 11.7147 48.6197 11.608C48.129 11.4907 47.5477 11.432 46.8757 11.432H43.4357ZM46.8757 7.784C48.433 7.784 49.761 7.93333 50.8597 8.232C51.969 8.52 52.8703 8.936 53.5637 9.48C54.2677 10.0133 54.7797 10.664 55.0997 11.432C55.4197 12.2 55.5797 13.0587 55.5797 14.008C55.5797 14.5413 55.4997 15.0533 55.3397 15.544C55.1903 16.0347 54.9503 16.4987 54.6197 16.936C54.2997 17.3627 53.8837 17.752 53.3717 18.104C52.8597 18.456 52.2517 18.7547 51.5477 19C53.1263 19.3733 54.2943 19.9813 55.0517 20.824C55.809 21.6667 56.1877 22.76 56.1877 24.104C56.1877 25.0853 55.9957 25.9973 55.6117 26.84C55.2383 27.6827 54.689 28.4133 53.9637 29.032C53.2383 29.6507 52.3423 30.136 51.2757 30.488C50.2197 30.8293 49.0037 31 47.6277 31H38.6357V7.784H46.8757ZM63.5092 14.504V31H59.0932V14.504H63.5092ZM64.0372 9.816C64.0372 10.1893 63.9625 10.536 63.8132 10.856C63.6638 11.176 63.4612 11.4587 63.2052 11.704C62.9598 11.9493 62.6665 12.1413 62.3252 12.28C61.9945 12.4187 61.6372 12.488 61.2532 12.488C60.8905 12.488 60.5438 12.4187 60.2132 12.28C59.8932 12.1413 59.6105 11.9493 59.3652 11.704C59.1198 11.4587 58.9225 11.176 58.7732 10.856C58.6345 10.536 58.5652 10.1893 58.5652 9.816C58.5652 9.44267 58.6345 9.096 58.7732 8.776C58.9225 8.44533 59.1198 8.15733 59.3652 7.912C59.6105 7.66667 59.8932 7.47467 60.2132 7.336C60.5438 7.19733 60.8905 7.128 61.2532 7.128C61.6372 7.128 61.9945 7.19733 62.3252 7.336C62.6665 7.47467 62.9598 7.66667 63.2052 7.912C63.4612 8.15733 63.6638 8.44533 63.8132 8.776C63.9625 9.096 64.0372 9.44267 64.0372 9.816ZM77.5337 17.896C77.4163 18.0773 77.2937 18.2107 77.1657 18.296C77.0483 18.3707 76.883 18.408 76.6697 18.408C76.4563 18.408 76.2377 18.3547 76.0137 18.248C75.7897 18.1413 75.539 18.0293 75.2617 17.912C74.9843 17.784 74.6643 17.6667 74.3017 17.56C73.9497 17.4533 73.539 17.4 73.0697 17.4C72.355 17.4 71.8003 17.5493 71.4057 17.848C71.011 18.136 70.8137 18.52 70.8137 19C70.8137 19.3307 70.9257 19.608 71.1497 19.832C71.3737 20.056 71.667 20.2533 72.0297 20.424C72.403 20.584 72.8243 20.7387 73.2937 20.888C73.763 21.0267 74.243 21.1813 74.7337 21.352C75.235 21.5227 75.7203 21.72 76.1897 21.944C76.659 22.168 77.075 22.4507 77.4377 22.792C77.811 23.1227 78.1097 23.528 78.3337 24.008C78.5577 24.4773 78.6697 25.048 78.6697 25.72C78.6697 26.52 78.5203 27.2613 78.2217 27.944C77.9337 28.616 77.507 29.1973 76.9417 29.688C76.3763 30.1787 75.6723 30.5627 74.8297 30.84C73.987 31.1173 73.0163 31.256 71.9177 31.256C71.3523 31.256 70.7923 31.2027 70.2377 31.096C69.683 31 69.155 30.8613 68.6537 30.68C68.1523 30.488 67.683 30.2693 67.2457 30.024C66.8083 29.7787 66.4297 29.512 66.1097 29.224L67.1337 27.576C67.251 27.384 67.395 27.2347 67.5657 27.128C67.747 27.0213 67.9763 26.968 68.2537 26.968C68.5203 26.968 68.7657 27.0373 68.9897 27.176C69.2137 27.304 69.4643 27.448 69.7417 27.608C70.019 27.7573 70.3443 27.9013 70.7177 28.04C71.1017 28.168 71.5763 28.232 72.1417 28.232C72.5683 28.232 72.9363 28.184 73.2457 28.088C73.555 27.992 73.8057 27.864 73.9977 27.704C74.1897 27.5333 74.3283 27.3467 74.4137 27.144C74.5097 26.9307 74.5577 26.712 74.5577 26.488C74.5577 26.1253 74.4403 25.832 74.2057 25.608C73.9817 25.3733 73.683 25.1707 73.3097 25C72.947 24.8293 72.5257 24.6747 72.0457 24.536C71.5657 24.3973 71.075 24.2427 70.5737 24.072C70.083 23.9013 69.5977 23.6987 69.1177 23.464C68.6483 23.2293 68.227 22.936 67.8537 22.584C67.491 22.2213 67.1923 21.7787 66.9577 21.256C66.7337 20.7333 66.6217 20.0987 66.6217 19.352C66.6217 18.6693 66.755 18.024 67.0217 17.416C67.2883 16.7973 67.6883 16.2533 68.2217 15.784C68.755 15.3147 69.4163 14.9413 70.2057 14.664C71.0057 14.3867 71.9283 14.248 72.9737 14.248C74.147 14.248 75.2137 14.44 76.1737 14.824C77.1337 15.208 77.923 15.7093 78.5417 16.328L77.5337 17.896ZM90.0579 24.104C88.9806 24.1573 88.0846 24.2533 87.3699 24.392C86.6553 24.52 86.0846 24.6907 85.6579 24.904C85.2419 25.1173 84.9433 25.3627 84.7619 25.64C84.5913 25.9067 84.5059 26.2 84.5059 26.52C84.5059 27.16 84.6819 27.6133 85.0339 27.88C85.3966 28.1467 85.8979 28.28 86.5379 28.28C87.2739 28.28 87.9086 28.152 88.4419 27.896C88.9859 27.6293 89.5246 27.2187 90.0579 26.664V24.104ZM81.0659 16.792C82.0366 15.9173 83.1086 15.2667 84.2819 14.84C85.4553 14.4027 86.7246 14.184 88.0899 14.184C89.0713 14.184 89.9459 14.344 90.7139 14.664C91.4926 14.984 92.1486 15.432 92.6819 16.008C93.2259 16.5733 93.6419 17.2507 93.9299 18.04C94.2179 18.8293 94.3619 19.6933 94.3619 20.632V31H92.3459C91.9299 31 91.6099 30.9413 91.3859 30.824C91.1726 30.7067 90.9966 30.4613 90.8579 30.088L90.5059 29.032C90.0899 29.3947 89.6846 29.7147 89.2899 29.992C88.9059 30.2693 88.5059 30.504 88.0899 30.696C87.6739 30.8773 87.2259 31.016 86.7459 31.112C86.2766 31.208 85.7486 31.256 85.1619 31.256C84.4366 31.256 83.7753 31.16 83.1779 30.968C82.5806 30.776 82.0633 30.4933 81.6259 30.12C81.1993 29.736 80.8686 29.2613 80.6339 28.696C80.3993 28.1307 80.2819 27.48 80.2819 26.744C80.2819 26.136 80.4366 25.528 80.7459 24.92C81.0553 24.312 81.5833 23.7627 82.3299 23.272C83.0873 22.7707 84.0899 22.36 85.3379 22.04C86.5966 21.7093 88.1699 21.5227 90.0579 21.48V20.632C90.0579 19.5973 89.8393 18.84 89.4019 18.36C88.9646 17.8693 88.3353 17.624 87.5139 17.624C86.9059 17.624 86.3993 17.6987 85.9939 17.848C85.5886 17.9867 85.2313 18.1413 84.9219 18.312C84.6233 18.472 84.3406 18.6267 84.0739 18.776C83.8073 18.9147 83.4979 18.984 83.1459 18.984C82.8366 18.984 82.5753 18.9093 82.3619 18.76C82.1593 18.6 81.9886 18.4133 81.8499 18.2L81.0659 16.792ZM103.255 31.256C102.508 31.256 101.847 31.1493 101.271 30.936C100.695 30.712 100.21 30.3973 99.8149 29.992C99.4203 29.5867 99.1216 29.096 98.9189 28.52C98.7163 27.944 98.6149 27.2933 98.6149 26.568V17.672H97.0629C96.8283 17.672 96.6256 17.5973 96.4549 17.448C96.2949 17.2987 96.2149 17.0747 96.2149 16.776V15.048L98.8549 14.568L99.7509 10.296C99.8683 9.816 100.194 9.576 100.727 9.576H103.031V14.6H107.287V17.672H103.031V26.28C103.031 26.7387 103.138 27.1013 103.351 27.368C103.575 27.6347 103.89 27.768 104.295 27.768C104.508 27.768 104.69 27.7467 104.839 27.704C104.988 27.6507 105.116 27.5973 105.223 27.544C105.33 27.48 105.426 27.4267 105.511 27.384C105.607 27.3307 105.703 27.304 105.799 27.304C105.927 27.304 106.034 27.336 106.119 27.4C106.204 27.4533 106.29 27.5493 106.375 27.688L107.703 29.8C107.095 30.28 106.407 30.6427 105.639 30.888C104.871 31.1333 104.076 31.256 103.255 31.256ZM119.96 20.808C119.96 20.3493 119.896 19.912 119.768 19.496C119.651 19.08 119.459 18.712 119.192 18.392C118.926 18.072 118.59 17.8213 118.184 17.64C117.779 17.448 117.294 17.352 116.728 17.352C115.672 17.352 114.846 17.6507 114.248 18.248C113.651 18.8453 113.262 19.6987 113.08 20.808H119.96ZM113.016 23.432C113.155 24.9787 113.592 26.1093 114.328 26.824C115.075 27.5387 116.046 27.896 117.24 27.896C117.848 27.896 118.371 27.8267 118.808 27.688C119.256 27.5387 119.646 27.3787 119.976 27.208C120.318 27.0267 120.622 26.8667 120.888 26.728C121.166 26.5787 121.438 26.504 121.704 26.504C122.046 26.504 122.312 26.632 122.504 26.888L123.784 28.488C123.315 29.032 122.798 29.4853 122.232 29.848C121.667 30.2 121.08 30.4827 120.472 30.696C119.864 30.8987 119.251 31.0373 118.632 31.112C118.014 31.1973 117.416 31.24 116.84 31.24C115.688 31.24 114.611 31.0533 113.608 30.68C112.616 30.296 111.747 29.736 111 29C110.264 28.2533 109.683 27.3307 109.256 26.232C108.83 25.1333 108.616 23.8587 108.616 22.408C108.616 21.288 108.798 20.232 109.16 19.24C109.534 18.248 110.067 17.384 110.76 16.648C111.454 15.912 112.296 15.3307 113.288 14.904C114.28 14.4667 115.4 14.248 116.648 14.248C117.704 14.248 118.675 14.4187 119.56 14.76C120.456 15.0907 121.224 15.576 121.864 16.216C122.515 16.856 123.016 17.6453 123.368 18.584C123.731 19.512 123.912 20.5733 123.912 21.768C123.912 22.0987 123.896 22.3707 123.864 22.584C123.832 22.7973 123.779 22.968 123.704 23.096C123.63 23.224 123.528 23.3147 123.4 23.368C123.272 23.4107 123.107 23.432 122.904 23.432H113.016ZM130.797 17.224C131.319 16.2853 131.922 15.544 132.605 15C133.287 14.456 134.087 14.184 135.005 14.184C135.751 14.184 136.359 14.36 136.829 14.712L136.541 17.976C136.487 18.1893 136.402 18.3387 136.285 18.424C136.178 18.4987 136.029 18.536 135.837 18.536C135.666 18.536 135.421 18.5147 135.101 18.472C134.781 18.4187 134.482 18.392 134.205 18.392C133.799 18.392 133.437 18.4507 133.117 18.568C132.807 18.6853 132.53 18.8507 132.285 19.064C132.039 19.2773 131.815 19.5387 131.613 19.848C131.421 20.1573 131.239 20.5093 131.069 20.904V31H126.653V14.504H129.261C129.709 14.504 130.018 14.584 130.189 14.744C130.359 14.904 130.482 15.1813 130.557 15.576L130.797 17.224ZM142.811 16.424C143.142 16.104 143.483 15.8107 143.835 15.544C144.198 15.2773 144.577 15.048 144.971 14.856C145.377 14.664 145.809 14.5147 146.267 14.408C146.737 14.3013 147.243 14.248 147.787 14.248C148.683 14.248 149.478 14.4027 150.171 14.712C150.865 15.0213 151.446 15.4533 151.915 16.008C152.395 16.5627 152.753 17.224 152.987 17.992C153.233 18.76 153.355 19.6027 153.355 20.52V31H148.955V20.52C148.955 19.6027 148.742 18.8933 148.315 18.392C147.889 17.88 147.259 17.624 146.427 17.624C145.809 17.624 145.227 17.7573 144.683 18.024C144.139 18.2907 143.622 18.664 143.131 19.144V31H138.715V14.504H141.435C141.99 14.504 142.358 14.76 142.539 15.272L142.811 16.424ZM165.495 24.104C164.418 24.1573 163.522 24.2533 162.807 24.392C162.093 24.52 161.522 24.6907 161.095 24.904C160.679 25.1173 160.381 25.3627 160.199 25.64C160.029 25.9067 159.943 26.2 159.943 26.52C159.943 27.16 160.119 27.6133 160.471 27.88C160.834 28.1467 161.335 28.28 161.975 28.28C162.711 28.28 163.346 28.152 163.879 27.896C164.423 27.6293 164.962 27.2187 165.495 26.664V24.104ZM156.503 16.792C157.474 15.9173 158.546 15.2667 159.719 14.84C160.893 14.4027 162.162 14.184 163.527 14.184C164.509 14.184 165.383 14.344 166.151 14.664C166.93 14.984 167.586 15.432 168.119 16.008C168.663 16.5733 169.079 17.2507 169.367 18.04C169.655 18.8293 169.799 19.6933 169.799 20.632V31H167.783C167.367 31 167.047 30.9413 166.823 30.824C166.61 30.7067 166.434 30.4613 166.295 30.088L165.943 29.032C165.527 29.3947 165.122 29.7147 164.727 29.992C164.343 30.2693 163.943 30.504 163.527 30.696C163.111 30.8773 162.663 31.016 162.183 31.112C161.714 31.208 161.186 31.256 160.599 31.256C159.874 31.256 159.213 31.16 158.615 30.968C158.018 30.776 157.501 30.4933 157.063 30.12C156.637 29.736 156.306 29.2613 156.071 28.696C155.837 28.1307 155.719 27.48 155.719 26.744C155.719 26.136 155.874 25.528 156.183 24.92C156.493 24.312 157.021 23.7627 157.767 23.272C158.525 22.7707 159.527 22.36 160.775 22.04C162.034 21.7093 163.607 21.5227 165.495 21.48V20.632C165.495 19.5973 165.277 18.84 164.839 18.36C164.402 17.8693 163.773 17.624 162.951 17.624C162.343 17.624 161.837 17.6987 161.431 17.848C161.026 17.9867 160.669 18.1413 160.359 18.312C160.061 18.472 159.778 18.6267 159.511 18.776C159.245 18.9147 158.935 18.984 158.583 18.984C158.274 18.984 158.013 18.9093 157.799 18.76C157.597 18.6 157.426 18.4133 157.287 18.2L156.503 16.792ZM177.662 7.144V20.68H178.398C178.676 20.68 178.894 20.6427 179.054 20.568C179.214 20.4827 179.374 20.3333 179.534 20.12L183.182 15.256C183.364 15.0107 183.566 14.824 183.79 14.696C184.025 14.568 184.318 14.504 184.67 14.504H188.702L183.966 20.52C183.593 21.0213 183.161 21.416 182.67 21.704C182.916 21.8747 183.129 22.072 183.31 22.296C183.492 22.52 183.668 22.7707 183.838 23.048L188.942 31H184.974C184.633 31 184.34 30.9467 184.094 30.84C183.849 30.7227 183.646 30.52 183.486 30.232L179.774 24.168C179.625 23.912 179.47 23.7467 179.31 23.672C179.15 23.5973 178.91 23.56 178.59 23.56H177.662V31H173.246V7.144H177.662Z" fill="#F86F03"/>
</svg>
